<?xml version="1.0" encoding="utf-8"?>
<!-- Generator: Adobe Illustrator 21.0.0, SVG Export Plug-In . SVG Version: 6.00 Build 0)  -->
<svg version="1.1" id="Capa_1" xmlns="http://www.w3.org/2000/svg" xmlns:xlink="http://www.w3.org/1999/xlink" x="0px" y="0px"
	 viewBox="0 0 711.5 384.4" style="enable-background:new 0 0 711.5 384.4;" xml:space="preserve">
<style type="text/css">
	.st0{fill:#FFFFFF;}
	.st1{fill:#E5E5E5;}
</style>
<path class="st0" d="M389.7,117.1c0,10.4-6.9,14.8-15.5,14.8s-15.5-5.4-15.5-14.8c0-9.5,6.9-14.8,15.5-14.8S389.7,107.5,389.7,117.1
	"/>
<path class="st0" d="M116.6,142.7c-12,0-26.3,3.9-35,14.8c-8.2-11.2-20-14.8-32.3-14.8c-15.5,0-44.1,7.4-44.1,46.4v72.4h27.5v-71.6
	c-0.1-16.4,7.9-22,19.7-22.1c11.1-0.1,16.5,5.9,16,21.6V221h-0.1h0v40.5h0h0.1h0h27.3h0h0.1h0V221h0h-0.1v-31.6
	c-0.5-15.7,6.8-21.7,17.8-21.6c11.8,0.1,18,5.7,17.8,22.1v71.6h27.5v-72.4C158.9,150.1,132.1,142.7,116.6,142.7"/>
<path class="st0" d="M265.5,231c-7.6,2.1-15.6,4.6-23.1,5.8c-14.5,2.4-22,0.5-25.4-1c-7.3-3.3-10.9-9.5-10.9-19.8v-4.2h56
	c4.3,0,9.2-2.3,9.2-9.8v-8.4c0-16-5.6-50.8-45.3-50.8c-19.5,0-47.4,10.6-47.4,51.9v23.3c0,13,5.7,45,49.8,45
	c4.7,0,23.4-1.2,37.2-7.2L265.5,231L265.5,231z M206.1,188.7c0-13.6,7.2-20.9,19.9-20.9c12.9,0,17.8,7.7,17.8,20.8
	c0,0.6,0,2.2,0.1,2.8h-37.8C206.1,191.1,206.1,189,206.1,188.7"/>
<path class="st0" d="M315.5,154l0-10.8h-25.6v118.2h27.5l0-74.1c-0.2-11.9,6.8-18.9,17.4-19.6c4.9-0.4,7.3-0.3,12.2-0.2V143
	C342.6,142.9,326.8,142.5,315.5,154"/>
<polygon class="st0" points="360.3,143.3 360.3,164.3 360.4,164.3 360.4,261.5 387.6,261.5 387.6,143.3 "/>
<path class="st0" d="M473.5,107.2l-0.1,38.3c-9.4-2.2-15-2.8-23.2-2.8c-13.2,0-42.7,8.2-42.7,45.3V220c0,16.8,6.8,43.2,40.3,43.2
	c7.3,0,19.5-1.9,27.1-12l0.1,10.3h25.8V107.2H473.5z M473.3,217.9c0,16.7-14.4,20.5-20.9,20.5c-15.2,0-17.5-11.8-17.5-18.3v-31.5
	c0-22.8,20.4-21.2,21.4-21.2c5.6,0,11.7,0.8,17,2.6V217.9z"/>
<path class="st0" d="M566,142.7c-10.3,0-30.1,2.9-40.2,7.1v24.4c0,0,20.7-6.4,37.7-6.4c7.7,0,17.2,3.3,17.2,16.8c0,0.5,0,6.5,0,7
	h-14.5c-12,0-48.1-2.2-48.1,36.7c0,26.8,21,34.9,35.6,34.9c15.8,0,24.5-6.2,28.6-12.3l0.1,10.6h25.8v-76.6
	C608.1,170.3,603.1,142.7,566,142.7 M580.7,217.9c0,13.6-10.8,21.5-23.2,21.5c-4.4,0-13.3-1.7-13.3-13c0-12.6,9.9-14,19.4-14h17.1
	V217.9z"/>
<path class="st0" d="M228.1,81.9L252,58.3l-6.1-6.4c-5.5-6-13.5-9.8-22.3-9.8c-8.8,0-16.7,3.8-22.3,9.8l-1.7,1.7L228.1,81.9z"/>
<polygon class="st0" points="257.1,63.4 233.2,87 257.3,110.8 281.1,87.2 "/>
<path class="st0" d="M228.1,92.1l-28.8,28.5l2,2c5.5,6,13.5,9.8,22.3,9.8s16.7-3.8,22.3-9.8l6.3-6.6L228.1,92.1z"/>
<g id="Capa_2">
	<g>
		<rect x="707" class="st1" width="4.5" height="384.4"/>
	</g>
</g>
</svg>
