<?xml version="1.0" encoding="utf-8"?>
<!-- Generator: Adobe Illustrator 16.0.0, SVG Export Plug-In . SVG Version: 6.00 Build 0)  -->
<!DOCTYPE svg PUBLIC "-//W3C//DTD SVG 1.1//EN" "http://www.w3.org/Graphics/SVG/1.1/DTD/svg11.dtd">
<svg version="1.1" id="Capa_1" xmlns="http://www.w3.org/2000/svg" xmlns:xlink="http://www.w3.org/1999/xlink" x="0px" y="0px"
	 width="612px" height="642.822px" viewBox="0 0 612 642.822" enable-background="new 0 0 612 642.822" xml:space="preserve">
<g>
	<g>
		<g>
			<path fill-rule="evenodd" clip-rule="evenodd" fill="#CCCCCB" d="M361.852,220.355l-0.002,0.003L361.852,220.355L361.852,220.355
				z M168.201,460.927l-0.018,0.006L168.201,460.927L168.201,460.927z M456.367,369.335l0.012-0.022l0.056-0.097
				c0.281-0.484,0.905-0.65,1.392-0.369c0.233,0.138,0.392,0.35,0.465,0.588l0,0l0.008,0.027l0.013,0.049l0.027,0.068l0.053,0.112
				l0.002,0.001l0,0c0.101,0.187,0.248,0.36,0.432,0.486l0.034,0.018l0.038,0.025c0.303,0.182,0.659,0.232,0.997,0.154
				c0.362-0.078,0.701-0.292,0.935-0.628l0.003-0.01h0.008l0.031-0.045l0.026-0.042c0.191-0.328,0.25-0.706,0.188-1.057
				c-0.062-0.344-0.252-0.665-0.547-0.875l-0.02-0.016l-0.023-0.02h-0.007l-0.004-0.002l0.003-0.003l-0.096-0.053l-0.086-0.039
				l-0.003-0.011l-0.001,0.004c-0.161-0.068-0.328-0.104-0.501-0.109c-0.561-0.018-1.002-0.483-0.997-1.051l0.013-0.112
				L456.367,369.335L456.367,369.335z M458.817,366.308l-2.461,3.042l0.012-0.016l-0.012,0.016l-0.004,0.004l-0.01,0.016
				c-0.235,0.337-0.574,0.546-0.937,0.628c-0.34,0.071-0.694,0.026-0.996-0.155l-0.045-0.027l-0.022-0.02l-0.022-0.016
				c-0.301-0.209-0.495-0.531-0.555-0.878c-0.066-0.358,0.001-0.741,0.201-1.073l0.017-0.019l0.029-0.047v0.002
				c0.157-0.234,0.367-0.418,0.606-0.527l0.049-0.024c0.071-0.031,0.122-0.047,0.153-0.058c0.042-0.014,0.099-0.028,0.174-0.042
				l0.001,0.003l0.1-0.022l0.007-0.003c0.443-0.066,0.804-0.434,0.851-0.906c0.012-0.17,0.055-0.339,0.131-0.495l0.058-0.122
				l0.052-0.087l0-0.001l0.015-0.015l0.015-0.025c0.232-0.332,0.571-0.552,0.931-0.629c0.342-0.073,0.697-0.029,1.001,0.149
				l0.042,0.032l0.029,0.017l0.003-0.002c0.267,0.176,0.443,0.445,0.535,0.731v0.005l0.03,0.125l0.005,0.013l-0.002,0.002l0,0.002
				c0.013,0.057,0.015,0.13,0.025,0.199l0.001,0.015l-0.004,0.006l0.008-0.004l-0.004,0.01
				C458.828,366.165,458.825,366.237,458.817,366.308L458.817,366.308z M474.262,368.808l0.027-0.006l0.104-0.009
				c0.562-0.044,1.055,0.37,1.106,0.929c0.023,0.272-0.056,0.519-0.217,0.723l0.005-0.005l-0.018,0.021l-0.035,0.044l-0.044,0.063
				l-0.06,0.103l-0.005,0.004l0.002,0.003c-0.096,0.187-0.151,0.405-0.143,0.628l0.003,0.039v0.046
				c0.025,0.355,0.194,0.67,0.45,0.903c0.268,0.252,0.64,0.402,1.054,0.405l0.012,0.006v-0.007l0.05,0.001l0.057-0.007
				c0.379-0.026,0.714-0.197,0.965-0.449c0.25-0.249,0.402-0.592,0.402-0.954l0.001-0.02l0.002-0.033l0,0l-0.004-0.011l0.001,0.001
				l-0.013-0.106l-0.009-0.099v-0.003l0,0c-0.038-0.172-0.11-0.331-0.203-0.477c-0.309-0.469-0.179-1.099,0.289-1.414l0.1-0.054
				L474.262,368.808L474.262,368.808z M478.145,369.074l-3.899-0.272l0.017,0.006l-0.017-0.006l-0.012,0.004l-0.015-0.002
				c-0.408,0.002-0.785-0.151-1.053-0.403c-0.258-0.23-0.422-0.55-0.444-0.9l-0.005-0.049l-0.002-0.035l-0.001-0.03
				c0.003-0.364,0.155-0.703,0.407-0.952c0.25-0.254,0.599-0.43,0.992-0.455l0.025-0.004l0.056,0.001v0.002
				c0.281-0.009,0.548,0.065,0.775,0.189l0.051,0.032c0.061,0.036,0.113,0.071,0.141,0.091c0.027,0.023,0.071,0.064,0.129,0.116
				l-0.001-0.006l0.07,0.078l0.006-0.001c0.316,0.329,0.825,0.417,1.235,0.176c0.146-0.083,0.312-0.144,0.481-0.175l0.129-0.019
				l0.107-0.012l-0.001,0.002l0.018,0.001l0.032-0.001c0.407,0,0.782,0.15,1.055,0.405c0.252,0.23,0.423,0.551,0.442,0.897
				l0.004,0.049l0.002,0.041l0,0c0.007,0.315-0.104,0.616-0.289,0.859l-0.006,0.002l-0.078,0.097l-0.015,0.008h-0.001l0.003,0.007
				c-0.044,0.038-0.09,0.091-0.146,0.134l-0.016,0.01l-0.004-0.001l0,0l-0.01,0.007
				C478.268,368.999,478.213,369.038,478.145,369.074L478.145,369.074z M420.449,456.309l0.021,0.017l0.089,0.063
				c0.458,0.326,0.565,0.963,0.239,1.421c-0.159,0.222-0.384,0.362-0.631,0.411l0,0l-0.027,0.006l-0.051,0.009l-0.072,0.021
				l-0.112,0.039l-0.007,0.005l0,0c-0.195,0.079-0.375,0.21-0.521,0.385l-0.022,0.028l-0.029,0.038
				c-0.207,0.284-0.288,0.634-0.246,0.979c0.043,0.365,0.227,0.726,0.538,0.987l0.012,0.013l0.001-0.002l0.04,0.032l0.041,0.034
				c0.309,0.223,0.677,0.314,1.031,0.285c0.353-0.03,0.69-0.19,0.927-0.467l0.014-0.014l0.022-0.026l0.001-0.002l0.003-0.003h-0.001
				l0.064-0.09l0.053-0.084l0.001-0.003h-0.001c0.083-0.151,0.136-0.317,0.157-0.486c0.068-0.561,0.578-0.959,1.138-0.892
				l0.111,0.021L420.449,456.309L420.449,456.309z M405.091,444.038l0.02-0.021l0.06-0.085c0.333-0.455,0.978-0.553,1.428-0.219
				c0.217,0.165,0.351,0.395,0.403,0.643L407,444.352l0.005,0.028l0.005,0.049l0.02,0.072l0.04,0.116l0.005,0.004l0,0
				c0.075,0.197,0.197,0.379,0.373,0.525l0.027,0.024l0.042,0.03c0.277,0.214,0.628,0.301,0.967,0.265
				c0.374-0.04,0.735-0.22,1.001-0.523l0.006-0.018l0.003-0.003l0.036-0.033l0.032-0.043c0.229-0.309,0.327-0.673,0.303-1.022
				c-0.023-0.354-0.178-0.696-0.452-0.938l-0.015-0.017l-0.027-0.019l0.004-0.001l-0.008-0.013l-0.004,0.011l-0.088-0.065
				l-0.074-0.054l-0.008-0.001l-0.002,0.001c-0.146-0.087-0.313-0.142-0.479-0.165c-0.559-0.077-0.95-0.593-0.877-1.155l0.029-0.108
				L405.091,444.038L405.091,444.038z M407.863,441.3l-2.782,2.751l0.01-0.013l-0.01,0.013l-0.007,0.012l-0.016,0.007
				c-0.262,0.308-0.626,0.485-0.989,0.523c-0.351,0.036-0.692-0.048-0.977-0.258l-0.042-0.031l-0.024-0.022l-0.021-0.019
				c-0.271-0.244-0.431-0.581-0.453-0.933c-0.025-0.361,0.082-0.738,0.322-1.044l0.016-0.021l0.03-0.044l-0.002,0.003
				c0.185-0.222,0.416-0.374,0.668-0.459l0.049-0.014c0.069-0.026,0.13-0.046,0.163-0.046c0.039-0.01,0.095-0.016,0.172-0.018
				l0.003-0.006l0.104-0.008l-0.004-0.001c0.458-0.021,0.857-0.344,0.945-0.808c0.038-0.163,0.1-0.327,0.188-0.483l0.076-0.104
				l0.063-0.092l0,0l0.012-0.011l0.02-0.021c0.268-0.309,0.626-0.49,0.996-0.523c0.342-0.032,0.695,0.039,0.979,0.253l0.03,0.037
				l0.032,0.023l-0.001-0.003c0.246,0.203,0.393,0.49,0.452,0.788l0.001,0.001l0.021,0.127l0.002,0.011l-0.004,0.005l0.002,0.001
				c0.009,0.063,0.009,0.133,0.005,0.2l-0.002,0.021h-0.005l0,0l0.005,0.008C407.877,441.16,407.874,441.229,407.863,441.3
				L407.863,441.3z M423.232,459.033l-2.796-2.735l0.013,0.011l-0.013-0.011l-0.008-0.006l-0.012-0.011
				c-0.311-0.263-0.494-0.623-0.538-0.989c-0.042-0.344,0.039-0.694,0.246-0.979l0.029-0.037l0.024-0.028l0.015-0.021
				c0.239-0.276,0.576-0.435,0.927-0.466c0.36-0.03,0.738,0.069,1.049,0.301l0.021,0.017l0.043,0.034v-0.002
				c0.218,0.181,0.376,0.409,0.468,0.653l0.015,0.051c0.024,0.07,0.041,0.126,0.047,0.164c0.009,0.037,0.017,0.095,0.022,0.168
				h0.001l0.007,0.108h0.003c0.029,0.452,0.359,0.848,0.828,0.933c0.164,0.032,0.33,0.094,0.481,0.179l0.111,0.07l0.084,0.062l0,0
				l0.015,0.014l0.024,0.02c0.312,0.263,0.496,0.623,0.539,0.987c0.042,0.344-0.036,0.694-0.242,0.98l-0.033,0.036l-0.024,0.029
				l0.002,0.001c-0.202,0.246-0.481,0.401-0.778,0.463l-0.007,0.002l-0.125,0.021h-0.014h-0.004v0.002
				c-0.063,0.005-0.132,0.009-0.2,0.006l-0.015-0.001h-0.005l0,0h-0.008C423.372,459.054,423.304,459.047,423.232,459.033
				L423.232,459.033z M320.344,512.261l0.022,0.016l0.088,0.064c0.458,0.325,0.565,0.961,0.239,1.421
				c-0.159,0.22-0.384,0.36-0.631,0.409v0.001l-0.026,0.005l-0.052,0.011l-0.071,0.019l-0.114,0.039l-0.007,0.005v0.001
				c-0.194,0.08-0.375,0.21-0.52,0.384l-0.022,0.03l-0.029,0.037c-0.208,0.285-0.289,0.635-0.247,0.978
				c0.043,0.366,0.227,0.727,0.538,0.988l0.012,0.012l0.001-0.001l0.042,0.033l0.039,0.033c0.308,0.222,0.676,0.313,1.031,0.284
				c0.352-0.029,0.689-0.189,0.927-0.466l0.014-0.014l0.021-0.025l0.001-0.003l0.003-0.002l-0.002-0.002l0.064-0.09l0.053-0.082
				l0.001-0.005h-0.001c0.083-0.151,0.136-0.315,0.157-0.486c0.068-0.561,0.578-0.959,1.138-0.892l0.111,0.021L320.344,512.261
				L320.344,512.261z M323.127,514.984l-2.796-2.733l0.013,0.01l-0.013-0.01l-0.008-0.008l-0.013-0.011
				c-0.311-0.263-0.495-0.623-0.538-0.989c-0.041-0.344,0.039-0.693,0.247-0.977l0.029-0.038l0.023-0.029l0.017-0.02
				c0.238-0.278,0.574-0.438,0.925-0.468c0.36-0.03,0.738,0.07,1.049,0.301l0.021,0.019l0.042,0.032l0,0
				c0.218,0.179,0.376,0.407,0.469,0.651l0.014,0.052c0.024,0.07,0.041,0.127,0.047,0.164c0.009,0.038,0.017,0.096,0.023,0.169
				h0.001l0.007,0.106h0.004c0.028,0.454,0.359,0.848,0.827,0.935c0.165,0.03,0.329,0.092,0.481,0.177l0.111,0.07l0.084,0.062v0.001
				l0.015,0.013l0.024,0.02c0.312,0.264,0.496,0.623,0.541,0.989c0.04,0.344-0.038,0.694-0.244,0.979l-0.033,0.038l-0.024,0.027
				l0.003,0.003c-0.203,0.246-0.482,0.4-0.78,0.463l-0.005,0.001l-0.124,0.021h-0.014h-0.004v0.002
				c-0.063,0.004-0.133,0.007-0.201,0.004l-0.017-0.001h-0.002l0,0h-0.008C323.267,515.007,323.201,514.998,323.127,514.984
				L323.127,514.984z M284.795,516.595l-0.018,0.006L284.795,516.595L284.795,516.595z M89.021,322.776
				c-0.461-0.321-0.574-0.957-0.252-1.417c0.321-0.46,0.957-0.574,1.417-0.251c0.014,0.009,4.275,3.052,9.22,3.342l-0.286-0.396
				l-0.036-0.047l-0.647-0.933c-1.846-2.676-2.831-4.104-7.046-5.931c-4.831-2.095-8.982-2.712-8.993-2.712
				c-0.557-0.073-0.95-0.584-0.877-1.142c0.072-0.557,0.583-0.95,1.142-0.878c0.011,0.001,4.458,0.66,9.536,2.862
				c0.4,0.174,0.774,0.346,1.125,0.514c-2.743-6.122-8.684-10.031-8.702-10.044c-0.469-0.313-0.597-0.948-0.285-1.417
				c0.314-0.47,0.949-0.597,1.418-0.284c0.023,0.015,7.982,5.25,10.319,13.326c1.778,1.271,2.707,2.616,4.038,4.548l0.648,0.933
				l0.016,0.025c0.445,0.631,0.923,1.215,1.419,1.764c0.07,0.059,0.133,0.128,0.186,0.203L89.021,322.776L89.021,322.776z
				 M102.381,324.838l-13.361-2.063c0.017,0.012,5.791,4.137,12.101,3.702c0.785,0.827,1.583,1.569,2.35,2.282
				c1.189,1.104,2.299,2.138,3.075,3.241c1.792,2.556,4.232,6.833,4.238,6.844c0.264,0.496,0.882,0.684,1.377,0.419
				c0.496-0.263,0.683-0.881,0.419-1.376c-0.007-0.013-2.525-4.428-4.365-7.053c-0.529-0.756-1.15-1.442-1.828-2.118
				c-0.037-8.452-6.376-15.702-6.393-15.722c-0.371-0.423-1.014-0.466-1.438-0.096c-0.422,0.369-0.465,1.015-0.095,1.438
				c0.014,0.017,4.84,5.538,5.745,12.322c-0.496-0.467-0.997-0.95-1.49-1.465L102.381,324.838L102.381,324.838z M166.649,326.701
				v0.05V326.701L166.649,326.701z M419.659,141.252h-119.11v291.397c68.553-1.697,123.527-48.897,123.527-106.861
				c0-0.063-0.003-0.126-0.003-0.191h0.003V144.754C424.076,142.828,422.088,141.252,419.659,141.252L419.659,141.252z
				 M267.125,255.927c0.047,0.196,0.203,0.416,0.65,0.463c0.057,0.006,0.119,0.009,0.184,0.009h0.004h0.717h21.888l0.348-1.208
				v-15.148c0,0,0.167-0.892-1.354-0.99c-0.312-0.02-1.406-0.032-2.943-0.038v3.855c0,1.375-0.924,2.499-2.051,2.499l0,0
				c-1.128,0-2.05-1.123-2.05-2.499v-3.856h-3.836l-3.495,0.009v3.847c0,1.375-0.922,2.499-2.049,2.499l0,0
				c-1.129,0-2.051-1.123-2.051-2.499v-3.833l-3.124,0.013c0,0-0.411-0.049-0.838,0.15v16.397v0.001v0.002V255.927L267.125,255.927z
				 M267.125,257.39h0.807h0.027h0.721h21.357c0.001,0.239-0.08,0.476-0.25,0.67l-3.223,3.674v69.872v0.025h0.978
				c1.278,0,2.323,1.045,2.323,2.321v13.873c0.511,0.012,0.979,0.214,1.318,0.537l0.005,0.004c0.333,0.317,0.556,0.759,0.59,1.25
				l0.007,0.119v0.007v1.788v0.012h-0.005v0.012c-0.006,0.526-0.229,1.002-0.585,1.345c-0.322,0.309-0.759,0.516-1.243,0.546
				c-0.039,0.005-0.082,0.008-0.122,0.008h-0.007v-0.005h-20.528l-15.778,22.902c-0.109,0.447-0.511,0.784-0.992,0.784h-29.789
				c-0.475,0-0.875-0.329-0.99-0.77l-15.781-22.917h-20.527v0.005h-0.007c-0.042,0-0.08-0.002-0.12-0.008
				c-0.483-0.031-0.924-0.237-1.246-0.546c-0.354-0.343-0.578-0.818-0.585-1.345l0-0.012h-0.005v-0.012v-1.788v-0.007
				c0-0.057,0.007-0.109,0.015-0.164c0.045-0.473,0.257-0.897,0.582-1.205c0.342-0.325,0.81-0.529,1.324-0.541v-13.873
				c0-1.276,1.044-2.321,2.323-2.321h1.106v-69.897l-3.862-4.4h24.083c0.333-0.127,0.584-0.424,0.644-0.787l0.316-1.098
				c0.027-0.094,0.042-0.186,0.041-0.278h0.003v-15.149c0-0.09-0.01-0.176-0.032-0.26c-0.006-0.051-0.012-0.107-0.021-0.163
				l7.708-4.528l0.067-0.037v-0.149h6.976V206.75v-1.021v-7.458c0-0.097,0.011-0.196,0.037-0.283
				c-1.45-0.516-4.039-1.851-4.491-4.899h34c0.369,0-2.241,4.215-4.79,5.008c0.005,0.043,0.01,0.087,0.01,0.131v0.027v0.016v0.027
				v7.43v1.021v28.135h6.966v0.148c0.295-0.144,0.654-0.141,0.958,0.035l8.854,5.164l0.024-0.077v16.825
				c0,0.225,0.181,0.41,0.403,0.41H267.125L267.125,257.39z M116.582,373.233l0.101,0.032l0.025,0.011l0.035,0.011
				c0.437,0.138,0.925,0.295,1.423,0.471c0.866,0.31,1.825,0.689,2.756,1.143c-1.603-4.24-3.139-8.294-3.906-10.29
				c-0.309-0.802-0.602-1.808-0.878-2.935c-0.497-0.754-1.083-1.608-1.735-2.505c-1.025-1.41-4.01-3.679-6.653-5.541
				c-0.541-0.38-1.052-0.736-1.514-1.049l-0.599-0.408c-0.837,0.777-1.959,1.255-3.193,1.261v0.003h-0.013h-0.006v-0.003
				c-1.3-0.002-2.479-0.532-3.33-1.383c-0.846-0.848-1.372-2.022-1.376-3.317h-0.004v-0.013v-0.006h0.004
				c0.002-1.298,0.53-2.477,1.384-3.329c0.848-0.846,2.02-1.371,3.315-1.376v-0.004h0.013h0.006v0.004
				c1.299,0.002,2.477,0.531,3.33,1.384c0.845,0.846,1.371,2.02,1.375,3.314h0.003v0.013v0.006h-0.003
				c-0.001,0.625-0.125,1.223-0.348,1.77l0.593,0.399c0.504,0.345,1.025,0.704,1.537,1.064c2.245,1.582,4.742,3.463,6.246,4.99
				c-0.962-5.478-1.557-11.255-1.557-11.255l0.001-0.001l0.062,0.011c-1.226-0.265-2.749-0.689-4.608-1.294
				c-6.161-2.004-22.423-12.745-24.051-17.842c-1.627-5.097,1.046-5.37-1.943-5.48c-2.989-0.112-6.208-5.187-5.794-11.323
				c0.414-6.136,2.344-4.187,1.406-7.276c-0.938-3.091-5.363-8.458-3.13-9.655c2.232-1.197,5.192,4.735,7.606,5.319
				c2.415,0.585,5.729-0.861,8.359,1.157c1.236,0.948,3.032,2.574,5.455,4.518c0.263-3.913,1.565-6.557,3.567-8.416
				c3.101-2.878,4.879-8.53,5.215-12.028c0.337-3.497,3.758-0.521,4.346,2.536c0.587,3.058,4.017,4.093,6.794,8.241
				c2.778,4.15,0.996,4.332,2.34,8.697c1.346,4.364,4.325,6.416,5.687,1.429c1.363-4.987,0.684-8.935,6.097-10.18
				c5.414-1.245,5.932-2.958,8.807-5.33c2.875-2.371,6.113-1.176,3.544,3.517c-2.569,4.694,0.357,10.976,1.679,13.75
				c1.321,2.774-0.289,6.679-2.25,10.548c-1.96,3.871,3.185,5.424-0.625,10.176s-11.194,11.806-14.352,13.444
				c-3.158,1.638-9.967,4.89-9.967,4.89l0.144-0.069c-0.293,3.039-0.283,8.481,1.974,15.509c0.374-1.683,1.107-3.015,1.8-3.97
				c0.255-0.353,0.523-0.671,0.769-0.938l0.012-0.011c-0.295-0.614-0.464-1.3-0.466-2.026h-0.005v-0.013v-0.006h0.005
				c0-1.299,0.529-2.477,1.383-3.329c0.847-0.847,2.02-1.372,3.315-1.376v-0.004h0.012h0.006v0.004
				c1.299,0.001,2.477,0.529,3.329,1.383c0.846,0.846,1.372,2.02,1.376,3.315h0.004v0.012v0.007h-0.004
				c-0.001,1.298-0.53,2.478-1.383,3.328c-0.848,0.847-2.021,1.373-3.316,1.376v0.005H126.8h-0.006v-0.005
				c-1.121-0.001-2.149-0.397-2.958-1.051c-0.125,0.15-0.263,0.326-0.408,0.525c-1.119,1.542-2.365,4.304-1.171,8.161
				c0.053,0.177,0.056,0.355,0.017,0.523c4.05,9.184,8.032,16.474,10.092,20.08l0,0.001c1.557,0.547,3.373,1.156,5.317,2.447
				c4.159,2.763,2.583,3.616,5.503,7.128c2.92,3.512,6.459,4.26,5.799-0.868c-0.661-5.126-2.804-8.51,1.713-11.739
				c4.52-3.23,4.339-5.012,6.083-8.305c1.742-3.295,5.19-3.438,4.624,1.883c-0.567,5.321,4.549,9.995,6.835,12.049
				c2.287,2.052,2.301,6.275,1.979,10.603c-0.321,4.327,5.024,3.782,3.335,9.634c-1.691,5.851-5.796,15.202-8.082,17.928
				c-1.041,1.244-2.657,3.09-4.104,4.729c2.847,2.623,6.719,6.141,9.106,8.13c2.664,2.221,11.806,7.012,19.946,10.881
				c-0.398-3.46,0.845-6.024,1.977-7.583c0.255-0.353,0.523-0.67,0.769-0.938l0.011-0.011c-0.295-0.613-0.464-1.299-0.466-2.025
				h-0.004v-0.012v-0.008h0.004c0.002-1.301,0.531-2.479,1.384-3.329c0.847-0.846,2.019-1.372,3.315-1.375v-0.005h0.013h0.005v0.005
				c1.299,0.001,2.479,0.529,3.33,1.383c0.845,0.846,1.371,2.019,1.375,3.314h0.004v0.015v0.004h-0.004
				c-0.001,1.301-0.532,2.479-1.384,3.33c-0.847,0.846-2.021,1.371-3.314,1.376v0.004h-0.013h-0.007v-0.004
				c-1.12-0.002-2.147-0.398-2.957-1.052c-0.126,0.149-0.264,0.326-0.409,0.525c-1.049,1.445-2.211,3.962-1.371,7.448
				c3.625,1.684,6.891,3.107,9.069,3.922c4.102,1.539,10.561,5.007,15.475,7.773c-0.096-0.017-0.192-0.033-0.29-0.058
				c2.453,0.578,5.261-0.854,9.567-0.426c4.968,0.496,3.976,1.987,8.198,3.728c4.224,1.738,7.701,0.744,4.722-3.479
				c-2.981-4.222-6.46-6.211-3.975-11.179c2.483-4.97,1.49-6.46,1.49-10.187c0-3.726,2.981-5.466,4.968-0.496
				c1.989,4.97,8.696,6.708,11.677,7.453c2.981,0.744,4.969,4.47,6.708,8.446c1.739,3.976,6.211,0.993,7.453,6.955
				c1.243,5.964,1.987,16.148,1.243,19.627c-0.372,1.734-1.01,4.425-1.56,6.687l0.024-0.092l1.803,0.314
				c0,0,18.223,11.53,30.612,21.004c12.391-9.476,30.609-21.004,30.609-21.004l0.204-0.035c0.413-1.058,7.14-17.949,20.412-29.842
				c13.704-12.282,23.826-12.656,28.143-15.633c4.316-2.978,12.844-12.161,12.149-8.379s-3.021,6.566-7.552,12.993
				c-4.533,6.428-14.208,18.053-14.208,18.053s7.689-1.318,13.607-2.043c3.965-2.134,12.369-6.705,17.126-9.679l0.63-0.386
				c2.03-3.191,2.861-7.908,3.095-9.509c-0.966-0.002-2.944-0.325-3.518-2.868c-0.766-3.419,2.779-3.994,2.779-3.994
				s0.534-2.38,3.437-2.209c2.899,0.171,3.187,3.158,3.198,3.232c0.004,0.075,2.649,1.236,1.859,4.062
				c-1.175,4.19-5.209,2.241-5.209,2.241l-0.54-0.135c-0.199,1.326-0.759,4.438-1.979,7.416c6.597-3.555,15.24-7.396,15.176-8.406
				c-0.005-0.084,0.003-0.146,0.025-0.192l-0.201-0.182c0,0-1.616-18.783,5.371-35.808c6.988-17.024,15.936-21.77,18.525-26.33
				c2.588-4.56,6.266-16.541,7.287-12.834s0.14,7.227-1.138,14.985c-1.281,7.759-4.926,22.439-4.926,22.439s2.662-1.902,5.901-4.12
				c0.908-2.018,5.566-12.359,9.022-20.047c0.367-4.81-3.216-11.288-3.226-11.309c-0.101-0.183-0.138-0.383-0.122-0.577
				c-0.876,0.13-3.075,0.172-3.967-2.447c-1.133-3.313,2.319-4.268,2.319-4.268s0.281-2.431,3.181-2.571
				c2.897-0.148,3.51,2.791,3.529,2.86c0.021,0.076,2.77,0.94,2.289,3.838c-0.708,4.295-4.928,2.801-4.928,2.801l-0.208-0.03
				c0.65,1.287,2.159,4.508,2.832,7.921l1.383-3.085c2.802-6.265,3.701-17.661,3.706-17.741
				c-2.164-3.371-10.471-17.163-12.492-33.003c-2.331-18.254,3.107-26.799,3.107-32.043c0-5.243-2.718-17.477,0-14.758
				c2.718,2.718,3.691,6.213,6.409,13.594c2.718,7.38,6.798,21.944,6.798,21.944s6.213-13.4,8.737-17.089
				c2.525-3.691,1.749-9.127,3.884-12.624c2.135-3.495,4.855-1.941,3.885,0.777c-0.973,2.72-2.138,8.351-1.943,12.428
				c0.193,4.079,0.777,11.846,0,16.507c-0.777,4.661-0.972,5.632-0.972,5.632s9.321-12.818,16.118-19.227
				c6.796-6.408,14.761-9.321,11.652-5.243c-3.105,4.078-6.213,9.322-8.35,17.866c-2.136,8.545-4.077,16.896-10.486,23.498
				c-6.409,6.603-21.556,23.498-21.556,23.498s-2.874,6.718-4.033,10.688c-0.134,0.464-0.365,1.2-0.664,2.134
				c2.033-1.894,4.306-3.355,5.594-4.12c-0.639-0.738-1.667-2.426-0.15-4.516c2.061-2.831,4.831-0.549,4.831-0.549
				s2.148-1.169,3.935,1.12c1.785,2.286-0.269,4.474-0.313,4.532c-0.05,0.058,0.821,2.798-1.822,4.076
				c-3.917,1.895-5.125-2.421-5.125-2.421l-0.268-0.519c-2.28,1.338-8.118,5.125-8.789,9.219c-0.039,0.238-0.16,0.444-0.327,0.595
				c-2.418,7.28-5.393,16.093-5.938,17.706c1.028-0.629,1.93-1.146,2.603-1.476c4.017-1.962,6.026-7.074,9.61-9.058
				c3.583-1.986,5.18,0.708,2.993,2.593c-2.186,1.884-5.979,6.207-7.825,9.849s-5.173,10.684-8.151,14.354
				c-2.977,3.671-3.624,4.418-3.624,4.418s14.434-6.541,23.509-8.759c9.074-2.217,17.437-0.818,12.722,1.193
				c-4.716,2.013-10.008,5.038-16.084,11.414c-6.077,6.375-11.889,12.677-20.722,15.255c-8.833,2.576-30.347,9.79-30.347,9.79
				l-0.524-0.479c-1.145,0.979-5.32,4.433-9.893,6.679c2.585,0.241,4.877,0.797,5.958,1.089c-0.056-0.354-0.418-3.296,2.776-4.064
				c3.401-0.82,4.03,2.711,4.03,2.711s2.393,0.505,2.267,3.403c-0.126,2.901-3.104,3.237-3.179,3.248
				c-0.076,0.011-1.193,2.666-4.029,1.923c-4.213-1.104-2.331-5.171-2.331-5.171l0.015-0.063c-1.568-0.434-6.5-1.653-10.333-1.011
				c-3.956,1.862-8.952,4.976-12.25,7.126c2.161-0.995,4.271-2.053,6.395-2.17c4.091-0.226,4.357,2.896,1.566,3.639
				c-2.789,0.743-8.088,2.982-11.333,5.456c-3.25,2.477-9.312,7.366-13.591,9.372c-4.277,2.007-5.186,2.396-5.186,2.396
				s15.843,0.399,24.977,2.354c9.134,1.959,16.053,6.859,10.931,6.617c-5.12-0.243-11.2,0.175-19.448,3.268
				c-8.249,3.092-16.225,6.233-25.298,4.707c-8.381-1.41-28.221-3.975-31.206-4.359l0.016,0.035
				c-1.387,0.606-2.833,1.247-4.354,1.931c-9.279,4.177-17.024,9.143-23.89,15.028c4.813-1.968,12.165-0.548,13.336-0.304
				l0.021-0.089c0,0-0.629-3.278,2.77-4.098c3.4-0.82,4.029,2.711,4.029,2.711s2.394,0.505,2.267,3.404
				c-0.126,2.9-3.104,3.236-3.18,3.247c-0.075,0.011-1.192,2.666-4.028,1.923c-3.945-1.033-2.544-4.664-2.351-5.122
				c-1.409-0.293-10.113-1.938-13.686,1.158c2.716,2.221,4.909,4.224,6.198,5.793c2.359,2.87,7.579,10.148,14.118,19.116
				c49.14-2.73,89.767-15.276,114.166-27.017c3.93-2.8-0.379-6.742-5.829-4.197c-9.378,2.289-15.587,2.416-15.208,1.397
				c-3.167,0-1.774-4.195,2.661-6.358c52.723-16.279,112.666-63.213,140.8-108.873c6.716-11.574,11.533-21.24-4.688-17.425
				c-3.421,1.398-7.73,5.596-11.405,3.561c-5.451-7.631-0.509-13.48,14.574-28.871c29.021-24.166,40.807-33.069,38.399-73.006
				c10.646,27.473,15.587,55.2-9.378,76.95c8.745,0.126,13.181,1.271,18.124,3.179c-17.11,9.157-19.644,17.297-23.573,26.073
				c4.435,3.943,17.235,12.083,21.798,16.154c6.717,5.087,3.929,11.063,1.901,15.008c-26.36,50.875-86.685,107.347-143.714,133.167
				c1.901,3.561,0.126,10.939-3.043,11.445c-29.63,12.3-63.079,21.486-97.786,26.66l0.13-0.019c1.493,1.539,2.918,2.917,4.248,4.102
				c17.126,15.245,54.523,36.231,72.46,35.873c17.934-0.359,14.347,7.53,11.835,9.685c-2.511,2.151-32.642-2.87-50.935-13.99
				c-12.361-7.513-29.96-18.466-45.83-34.517l0.127-0.018c-36.457,4.764-74.078,5.058-109.958-0.151
				c0.717,0.103,1.438,0.208,2.157,0.307c-15.834,15.976-33.371,26.886-45.694,34.379c-18.295,11.12-48.427,16.142-50.938,13.99
				c-2.51-2.154-6.097-10.044,11.838-9.685c17.937,0.358,55.332-20.628,72.46-35.873c1.311-1.166,2.712-2.524,4.184-4.035
				c1.379,0.226,2.764,0.439,4.15,0.646c-28.41-4.28-55.692-12.036-80.395-23.791c-3.042-1.4-4.943-8.141-3.548-11.955
				c-57.029-25.82-123.184-72.88-149.544-123.756c-2.027-3.942-4.817-9.921,1.901-15.008c4.562-4.069,17.995-12.209,22.432-16.153
				c-3.93-8.776-10.52-19.333-27.755-28.49c4.942-1.907,9.505-3.052,18.25-3.18C4.666,350.009,4.032,336.146,3.398,318.72
				c1.394-11.446,5.069-22.003,8.111-29.635c0,10.303,0.253,23.276,2.409,35.231c9.758,18.315,23.318,25.565,42.454,40.319
				c15.082,15.391,17.489,21.241,13.308,29.254c-3.295-1.271-6.717-2.544-10.139-3.942c-12.801-0.892-10.139,6.867-4.689,17.424
				c27.881,45.788,85.545,82.928,140.927,98.444c3.295,0.255,6.463,5.852,3.675,6.359c-4.436,1.653-12.04-1.907-16.602,0.254l0,0
				c-1.267-0.509-12.926,0.763-5.958,3.561c34.192,13.749,67.822,20.82,99.333,23.372c6.337-8.696,11.378-15.716,13.687-18.522
				c1.482-1.802,4.157-4.178,7.449-6.797l-0.191-0.173c-3.707,2.737-7.256,2.521-9.451,1.938c-0.448-0.118-0.836-0.252-1.156-0.376
				l-0.022-0.011c-0.466,0.495-1.042,0.899-1.715,1.162l-0.052,0.02c-1.204,0.455-2.479,0.382-3.569-0.101l-0.071-0.035
				c-1.063-0.493-1.952-1.386-2.412-2.567l-0.008-0.026l-0.004-0.006l-0.001,0.002c-0.461-1.209-0.392-2.491,0.095-3.587
				l0.047-0.092c0.497-1.058,1.384-1.937,2.554-2.392l0.015-0.003l0.011-0.005l0.006-0.003l-0.001-0.003
				c1.208-0.461,2.492-0.391,3.587,0.095l0.095,0.049c1.058,0.497,1.934,1.383,2.388,2.55l0.014,0.035
				c0.397,1.043,0.398,2.137,0.079,3.123c0.195,0.068,0.409,0.138,0.638,0.198c1.711,0.453,4.441,0.625,7.359-1.355
				c-6.944-6-14.779-11.053-24.198-15.292c-1.753-0.787-3.412-1.522-4.987-2.207c0.977,0.978-0.662,2.863-6.127,6.342
				c-5.466,3.478-24.098,9.191-29.065,7.204c-4.97-1.988-3.479-4.223-5.466-1.988c-1.988,2.237-7.951,1.491-12.422-2.732
				c-4.472-4.223-1.739-4.471-4.72-5.713c-2.981-1.242-9.937-1.242-9.441-3.728c0.498-2.484,6.957-0.993,8.944-2.484
				c1.986-1.489,2.981-4.968,6.211-5.713c1.598-0.368,4.169-0.737,7.442-1.437l-0.486,0.103c-2.85-2.692-4.063-5.38-4.223-8.106
				c-0.218-3.69-2.708-7.947-4.991-10.621l0.14,0.168c-0.025-0.011-15.506-6.108-24.011-10.932
				c-1.072-0.226-3.188-0.637-5.645-0.928c-1.184-0.14-3.322,0.129-5.575,0.529c-2.058,0.366-4.16,0.835-5.757,1.213
				c0.062,0.791-0.076,1.569-0.387,2.274c-0.016,0.032-0.029,0.064-0.047,0.095c-0.497,1.058-1.385,1.934-2.552,2.389l-0.053,0.02
				c-1.204,0.454-2.479,0.382-3.57-0.102l-0.07-0.032c-1.063-0.495-1.952-1.388-2.412-2.569l-0.008-0.025l-0.004-0.006l-0.001,0.001
				c-0.46-1.209-0.391-2.492,0.095-3.587l0.047-0.093c0.499-1.058,1.384-1.936,2.554-2.391l0.015-0.004l0.011-0.005l0.006-0.002
				v-0.003c1.208-0.461,2.491-0.389,3.586,0.095l0.094,0.049c0.866,0.406,1.607,1.076,2.098,1.943
				c1.676-0.398,3.902-0.899,6.003-1.273c2.412-0.427,4.752-0.711,6.166-0.543l0.409,0.049
				c-10.049-5.936-25.708-15.545-25.708-15.545v-0.002c-1.103,0.659-3.552,1.157-7.722,1.494c-6.458,0.52-25.599-3.145-29.062-7.226
				c-3.462-4.078-1.099-5.358-3.902-4.312c-2.801,1.047-7.723-2.399-9.701-8.226c-1.977-5.824,0.554-4.765-1.5-7.256
				c-2.054-2.492-8.202-5.747-6.6-7.709c1.6-1.965,6.612,2.374,9.065,1.987c2.454-0.39,4.959-3,8.163-2.146
				c1.505,0.4,3.788,1.21,6.772,2.072c-1.261-3.715-1.076-6.655,0.058-9.141c1.756-3.849,1.225-9.75,0.19-13.108
				c-0.282-0.915-0.169-1.476,0.183-1.752l-1.41-3.729c-1.25-0.877-3.054-1.624-4.54-2.153c-0.514-0.184-0.97-0.331-1.354-0.451
				l-0.057-0.019l-0.252-0.08c-0.168,0.246-0.358,0.477-0.566,0.686c-0.847,0.847-2.021,1.371-3.314,1.375v0.005h-0.014h-0.006
				v-0.005c-1.3-0.002-2.478-0.531-3.329-1.383c-0.846-0.848-1.372-2.021-1.375-3.315h-0.005v-0.013v-0.006h0.005
				c0-1.3,0.529-2.478,1.383-3.33c0.848-0.846,2.02-1.371,3.315-1.375v-0.004h0.012h0.006v0.004c1.299,0.001,2.478,0.53,3.33,1.383
				c0.846,0.848,1.372,2.021,1.376,3.315h0.004v0.013v0.006h-0.004C116.641,372.743,116.622,372.991,116.582,373.233
				L116.582,373.233z M230.384,482.397c-0.466,0.155-0.925,0.306-1.378,0.447C229.459,482.703,229.917,482.553,230.384,482.397
				L230.384,482.397z M468.295,317.516c-0.008,0.034-3.429,12.394-3.042,20.144l0.007,0.122v0.004l0.001,0.047
				c0.059,1.11,0.137,2.208,0.229,3.276c0.092,1.074,0.21,2.216,0.339,3.378c0.64,5.737,1.573,11.042,1.81,11.749
				c0.178,0.532,0.755,0.819,1.289,0.643c0.533-0.179,0.82-0.756,0.643-1.289c-0.213-0.636-1.087-5.711-1.713-11.326
				c-0.117-1.055-0.231-2.171-0.332-3.33c-0.098-1.15-0.179-2.25-0.23-3.251l-0.005-0.119c-0.373-7.421,2.97-19.503,2.978-19.537
				c0.139-0.543-0.188-1.102-0.731-1.241C468.994,316.646,468.436,316.972,468.295,317.516L468.295,317.516z M481.185,322.71
				c-0.014,0.033-4.979,11.891-5.575,19.623c-0.041,0.561,0.381,1.053,0.942,1.094c0.561,0.041,1.053-0.38,1.094-0.942
				c0.571-7.413,5.401-18.945,5.416-18.977c0.219-0.518-0.021-1.117-0.538-1.337C482.005,321.951,481.404,322.192,481.185,322.71
				L481.185,322.71z M440.974,406.947c0.391-0.404,1.038-0.412,1.441-0.02c0.403,0.391,0.412,1.036,0.021,1.44
				c-0.025,0.025-8.707,9.036-11.917,15.732l0.003,0.001l-0.097,0.205l-0.03,0.055c-0.443,0.938-0.886,1.919-1.319,2.917
				c-0.427,0.979-0.861,2.022-1.291,3.08c-2.104,5.197-3.738,10.019-3.853,10.676c-0.095,0.556-0.623,0.93-1.178,0.835
				s-0.929-0.622-0.835-1.18c0.128-0.727,1.819-5.78,3.974-11.098c0.407-1.006,0.846-2.058,1.313-3.129
				c0.443-1.022,0.899-2.03,1.353-2.99l0.02-0.042l0.098-0.206l0.004,0.001v-0.001C432.036,416.223,440.95,406.974,440.974,406.947
				L440.974,406.947z M450.082,420.935c-0.027,0.023-10.181,7.862-14.521,14.299c-0.314,0.467-0.19,1.102,0.276,1.418
				c0.467,0.314,1.103,0.189,1.417-0.276c4.152-6.159,14.07-13.821,14.097-13.842c0.441-0.352,0.514-0.994,0.164-1.434
				C451.166,420.658,450.523,420.585,450.082,420.935L450.082,420.935z M280.675,511.102c-0.276,0.624-0.315,1.354-0.056,2.037
				l-0.001,0.002l0.008,0.022c0.26,0.669,0.765,1.176,1.371,1.455l0.032,0.012c0.624,0.278,1.355,0.316,2.039,0.057v0.003
				l0.019-0.009c0.537-0.213,0.97-0.576,1.263-1.02l0.01-0.019l0.01-0.017l0.004-0.007l0.027-0.039
				c0.05-0.081,0.097-0.162,0.138-0.247l0.019-0.057c0.277-0.623,0.316-1.353,0.056-2.038h0.002l-0.009-0.02
				c-0.259-0.662-0.751-1.166-1.344-1.447l-0.06-0.024c-0.624-0.276-1.353-0.317-2.037-0.057l0,0l-0.024,0.008
				c-0.66,0.257-1.16,0.751-1.442,1.344L280.675,511.102L280.675,511.102z M116.802,345.992l-0.064,0.01l0.034-0.003l-0.001,0.003
				l0.001-0.003L116.802,345.992L116.802,345.992z M129.026,384.887c0.071,0.061,0.142,0.12,0.216,0.179
				C129.168,385.007,129.098,384.947,129.026,384.887L129.026,384.887z M131.1,386.068c0.145,0.06,0.292,0.115,0.442,0.171
				C131.392,386.184,131.245,386.128,131.1,386.068L131.1,386.068z M111.935,369.809v0.005h-0.006h-0.012v-0.005
				c-0.73,0.001-1.395,0.302-1.877,0.784c-0.484,0.482-0.785,1.15-0.785,1.885h0.003v0.006v0.013h-0.003
				c0.001,0.73,0.301,1.395,0.784,1.878c0.482,0.482,1.151,0.783,1.884,0.784v-0.004h0.006h0.014v0.004
				c0.729-0.001,1.395-0.302,1.877-0.784c0.233-0.232,0.424-0.511,0.558-0.816l0.001-0.002l0.001-0.001l0.01-0.024l0.001-0.005
				l0.008-0.018l0.006-0.013l0.004-0.01c0.126-0.308,0.193-0.644,0.193-0.996H114.6v-0.006v-0.013h0.003
				c0-0.729-0.302-1.396-0.784-1.877C113.338,370.109,112.669,369.81,111.935,369.809L111.935,369.809z M115.852,421.824
				c0.01-0.001,4.157-0.961,9.409-0.779c4.591,0.157,6.032,1.126,8.729,2.94l0.944,0.633l0.004,0.001l-0.001,0.002
				c0.151,0.101,0.305,0.198,0.456,0.293c-4.702,1.537-9.774,0.264-9.791,0.261c-0.546-0.138-1.102,0.195-1.239,0.743
				c-0.136,0.545,0.196,1.103,0.743,1.236c0.021,0.006,6.909,1.734,12.626-0.981c1.032,0.482,2.048,0.881,3.025,1.266
				c1.506,0.589,2.913,1.142,4.046,1.891c2.601,1.724,6.44,4.813,6.45,4.82c0.429,0.363,1.074,0.31,1.438-0.12
				c0.364-0.43,0.309-1.075-0.121-1.438c-0.01-0.008-3.967-3.192-6.641-4.962c-0.766-0.507-1.594-0.917-2.473-1.297
				c-3.128-7.854-11.683-12.284-11.709-12.296c-0.5-0.257-1.116-0.062-1.373,0.439c-0.258,0.5-0.061,1.115,0.44,1.373
				c0.02,0.011,6.531,3.381,9.852,9.361c-0.777-0.312-1.571-0.643-2.368-1.029c-0.074-0.047-0.152-0.085-0.233-0.114
				c-0.673-0.334-1.345-0.711-2.003-1.147v0.003l-0.94-0.63c-1.946-1.309-3.303-2.221-5.423-2.752
				c-5.133-6.658-14.453-8.619-14.48-8.625c-0.55-0.118-1.095,0.231-1.212,0.782c-0.12,0.55,0.231,1.095,0.781,1.214
				c0.023,0.004,6.979,1.47,11.771,6.163c-0.388-0.027-0.799-0.051-1.234-0.065c-5.542-0.191-9.861,0.811-9.873,0.812
				c-0.553,0.11-0.913,0.648-0.802,1.201C114.759,421.576,115.297,421.935,115.852,421.824L115.852,421.824z M151.376,393.544
				c0.007,0.011,2.692,3.248,4.888,8.036c1.918,4.18,1.698,5.9,1.285,9.122l-0.142,1.128l0,0.01l-0.003-0.002
				c-0.021,0.179-0.039,0.358-0.054,0.532c-3.485-3.512-4.619-8.602-4.622-8.617c-0.115-0.551-0.655-0.905-1.205-0.792
				c-0.55,0.114-0.905,0.656-0.791,1.206c0.002,0.015,0.912,4.094,3.577,7.752c-1.199-0.813-2.551-1.694-3.954-2.61
				c-3.251-2.121-6.799-4.438-9.267-6.363l-0.051-0.041l-0.028-0.022l0,0.003l-0.002-0.003c-5.477-4.292-8.949-8.768-8.958-8.781
				c-0.336-0.448-0.976-0.54-1.425-0.203c-0.45,0.336-0.541,0.976-0.205,1.426c0.011,0.013,3.654,4.712,9.331,9.162l-0.001,0.002
				l0.027,0.021l0.058,0.041c2.54,1.979,6.126,4.324,9.413,6.467c3.933,2.569,7.426,4.851,7.868,5.607
				c0.069,0.121,0.163,0.222,0.267,0.301c0.035,0.466,0.075,0.922,0.116,1.371c0.146,1.605,0.282,3.105,0.117,4.472
				c-0.372,3.099-1.415,7.919-1.418,7.931c-0.127,0.548,0.214,1.098,0.762,1.228c0.549,0.127,1.098-0.216,1.226-0.764
				c0.002-0.014,1.077-4.973,1.46-8.154c0.109-0.905,0.106-1.83,0.052-2.792c5.62-6.319,5.741-15.93,5.743-15.956
				c0.015-0.563-0.43-1.031-0.99-1.047c-0.563-0.016-1.032,0.429-1.047,0.99c0,0.021-0.094,7.369-3.952,13.021
				c-0.07-0.829-0.129-1.684-0.142-2.567c0.013-0.095,0.011-0.191-0.001-0.285c0-0.747,0.032-1.512,0.126-2.295h-0.003l0.141-1.118
				c0.298-2.329,0.508-3.953,0.032-6.086c3.652-7.567,1.225-16.776,1.218-16.803c-0.139-0.543-0.693-0.874-1.237-0.735
				c-0.544,0.139-0.873,0.694-0.735,1.238c0.005,0.021,1.815,6.898-0.234,13.292c-0.149-0.36-0.316-0.737-0.496-1.131
				c-2.308-5.032-5.168-8.48-5.176-8.491c-0.359-0.431-1.002-0.49-1.433-0.131C151.076,392.47,151.018,393.113,151.376,393.544
				L151.376,393.544z M126.806,350.912v0.003H126.8h-0.012v-0.003c-0.729,0.001-1.396,0.301-1.878,0.784
				c-0.484,0.481-0.784,1.151-0.784,1.884h0.004v0.006v0.013h-0.004c0.002,0.589,0.198,1.134,0.526,1.576l0.019,0.024l0.001,0.001
				l0.008,0.01l0.007,0.011c0.069,0.089,0.143,0.176,0.222,0.256c0.482,0.483,1.15,0.784,1.885,0.784v-0.004h0.006h0.013v0.004
				c0.73-0.002,1.397-0.302,1.877-0.784c0.482-0.482,0.784-1.149,0.785-1.884h-0.005v-0.007v-0.012h0.005
				c-0.001-0.73-0.302-1.395-0.785-1.877C128.209,351.212,127.539,350.912,126.806,350.912L126.806,350.912z M104.59,350.303
				l0.012-0.022l0.035-0.048c0.294-0.427,0.465-0.948,0.467-1.506h-0.004v-0.006v-0.013h0.004c-0.002-0.729-0.302-1.395-0.784-1.877
				c-0.482-0.483-1.151-0.784-1.885-0.785v0.005h-0.006h-0.013v-0.005c-0.731,0.001-1.396,0.302-1.877,0.785
				c-0.484,0.481-0.786,1.151-0.786,1.884h0.004v0.006v0.013h-0.004c0.001,0.731,0.303,1.396,0.784,1.878
				c0.482,0.482,1.151,0.785,1.885,0.785v-0.004h0.006h0.013v0.004c0.73-0.001,1.396-0.301,1.878-0.784
				C104.417,350.515,104.509,350.413,104.59,350.303L104.59,350.303z M135.404,316.029c0.244-0.507,0.856-0.72,1.361-0.476
				c0.507,0.245,0.72,0.855,0.476,1.361c-0.012,0.025-3.991,8.762-11.685,12.281c-0.337,0.9-0.708,1.753-1.173,2.538
				c-1.629,2.751-4.599,6.842-4.607,6.853c-0.326,0.459-0.963,0.566-1.421,0.24c-0.458-0.327-0.566-0.964-0.241-1.422
				c0.009-0.011,2.918-4.019,4.511-6.71c0.699-1.179,1.179-2.607,1.693-4.136c0.144-0.426,0.29-0.864,0.445-1.305
				c-0.064-0.114-0.107-0.243-0.124-0.381c-0.098-0.873-2.375-4.368-4.94-8.302c-2.134-3.275-4.463-6.848-5.982-9.664l-0.075-0.138
				l0.002-0.001l-0.002-0.003c-3.404-6.365-4.838-12.099-4.842-12.116c-0.143-0.543,0.183-1.102,0.727-1.245
				c0.543-0.143,1.102,0.183,1.245,0.725c0.004,0.016,1.386,5.544,4.665,11.675l0.002-0.001l0.074,0.139
				c1.492,2.763,3.791,6.289,5.896,9.52c0.913,1.4,1.792,2.744,2.561,3.966c-0.962-4.417-0.154-8.507-0.15-8.522
				c0.114-0.55,0.655-0.905,1.206-0.79c0.55,0.114,0.904,0.654,0.791,1.205c-0.004,0.016-1.016,5.132,0.755,9.75
				c0.086-0.155,0.172-0.307,0.265-0.462l0.001,0.001l0.002-0.004l0.576-0.957l0.01-0.021c1.677-2.786,2.573-4.272,2.503-8.867
				c-0.082-5.253-1.238-9.311-1.241-9.323c-0.154-0.542,0.162-1.106,0.703-1.26c0.543-0.154,1.107,0.16,1.262,0.702
				c0.002,0.011,1.227,4.31,1.313,9.856c0.006,0.435,0.007,0.844-0.001,1.233c4.452-5.021,5.564-12.035,5.567-12.057
				c0.086-0.556,0.606-0.937,1.163-0.851c0.554,0.085,0.935,0.607,0.85,1.163c-0.004,0.026-1.499,9.443-7.886,14.898
				c-0.425,2.147-1.271,3.548-2.483,5.558l-0.046,0.073l-0.537,0.895l0.002,0c-0.401,0.678-0.742,1.362-1.041,2.045
				c-0.025,0.092-0.062,0.178-0.112,0.261c-0.343,0.81-0.634,1.619-0.903,2.404C132.343,322.736,135.394,316.049,135.404,316.029
				L135.404,316.029z M197.427,437.79v0.003h-0.005h-0.013v-0.003c-0.729,0.001-1.396,0.301-1.877,0.782
				c-0.484,0.482-0.784,1.151-0.784,1.886h0.003v0.008v0.012h-0.003c0,0.591,0.2,1.137,0.53,1.581l0.004,0.005l0.012,0.016
				c0.073,0.098,0.151,0.188,0.236,0.275c0.483,0.481,1.152,0.783,1.885,0.783v-0.003h0.007h0.013v0.003
				c0.73,0,1.395-0.301,1.877-0.783c0.482-0.482,0.784-1.148,0.785-1.885h-0.004v-0.004v-0.015h0.004
				c-0.002-0.729-0.302-1.396-0.785-1.879C198.831,438.091,198.162,437.79,197.427,437.79L197.427,437.79z M164.082,455.434
				c-0.278,0.624-0.317,1.353-0.057,2.038l-0.001,0.001l0.008,0.023c0.26,0.667,0.766,1.175,1.372,1.454l0.032,0.013
				c0.623,0.276,1.354,0.315,2.038,0.055v0.003l0.019-0.009c0.665-0.262,1.172-0.754,1.451-1.348l0.021-0.057
				c0.276-0.623,0.316-1.351,0.056-2.036l0.002-0.002l-0.009-0.018c-0.259-0.664-0.751-1.167-1.344-1.447l-0.06-0.024
				c-0.623-0.276-1.352-0.317-2.038-0.057l0,0l-0.023,0.008c-0.66,0.256-1.159,0.751-1.442,1.343L164.082,455.434L164.082,455.434z
				 M157.494,436.888v0.002V436.888L157.494,436.888z M319.13,540.188c-12.273,0.514-25.05,0.405-38.216-0.481
				c6.015-8.923,12.073-16.648,18.948-23.321C306.861,523.179,313.01,531.063,319.13,540.188L319.13,540.188z M278.28,539.52
				l-1.981-0.154C276.96,539.42,277.62,539.469,278.28,539.52L278.28,539.52z M355.632,588.668c0.733-0.098,1.464-0.201,2.195-0.304
				C357.096,588.467,356.365,588.57,355.632,588.668L355.632,588.668z M18.739,425.883l4.407,6.48l2.807-2.023l-1.219-1.795
				l11.817-8.519l6.107-4.684l0.217,0.318l-8.099,7.632l-10.444,10.816l0.694,1.019l14.443-7.025l8.697-4.662l0.218,0.322
				l-6.442,4.262l-11.786,8.494l-1.221-1.794l-2.806,2.024l4.775,7.021l2.807-2.023l-1.231-1.811l17.637-12.714L51.326,429
				l2.808-2.024l-4.864-7.149l-4.934,2.45c-1.149,0.562-2.542,1.282-4.173,2.175l-4.148,2.255l-0.063-0.092l4.055-3.537
				c1.094-0.966,1.944-1.756,2.542-2.379l4.291-4.444l-4.849-7.128l-2.806,2.022l1.221,1.795l-17.638,12.712l-1.221-1.795
				L18.739,425.883L18.739,425.883z M52.576,430.324l1.445,1.651L39.63,445.314c-1.324,1.229-2.047,2.646-2.166,4.252
				c-0.113,1.602,0.456,3.122,1.708,4.554c1.144,1.308,2.534,1.996,4.182,2.07c1.644,0.08,3.422-0.775,5.333-2.547L62.1,441.213
				l1.416,1.618l2.547-2.361l-4.702-5.374l-2.546,2.361l0.98,1.12l-13.535,12.545c-1.008,0.934-1.837,1.472-2.482,1.597
				c-0.647,0.128-1.257-0.135-1.838-0.799c-0.564-0.644-0.758-1.292-0.576-1.942c0.181-0.655,0.781-1.453,1.798-2.396l13.536-12.546
				l1.007,1.151l2.547-2.361l-5.129-5.862L52.576,430.324L52.576,430.324z M49.701,465.016l5.771,5.739l2.38-2.538l-1.452-1.444
				l6.569-7.002l11.411-5.935l1.314,1.307l2.38-2.538l-5.246-5.215l-2.379,2.537l1.3,1.293l-7.05,3.913l-0.051-0.05l3.414-7.528
				l1.327,1.319l2.38-2.537l-5.525-5.493l-2.38,2.538l1.313,1.306l-5.332,12.465l-6.333,6.751l-1.433-1.424L49.701,465.016
				L49.701,465.016z M64.512,479.406l5.745,4.621l2.11-2.779l-1.514-1.22l5.846-7.701l5.085-7.206l0.092,0.073l-2.705,6.173
				c-0.703,1.627-1.276,3.038-1.707,4.239l-3.955,11.037l2.493,2.006l15.366-20.247l1.529,1.23l2.11-2.779l-5.745-4.62l-2.11,2.779
				l1.515,1.22l-4.062,5.35l-4.936,7.224l-0.092-0.071l3.596-7.943l3.774-10.42l-4.961-3.989l-2.11,2.78l1.531,1.23l-13.255,17.466
				l-1.531-1.231L64.512,479.406L64.512,479.406z M99.318,488.637c2.891-4.098,4.609-7.522,5.144-10.281
				c0.529-2.755-0.047-4.764-1.733-6.024c-1.119-0.836-2.406-1.096-3.857-0.773c-1.447,0.316-3.031,1.242-4.739,2.763
				c-1.712,1.524-3.531,3.651-5.447,6.364c-2.865,4.059-4.572,7.412-5.114,10.059c-0.54,2.648,0.1,4.647,1.92,6.008
				C89.03,499.396,93.634,496.689,99.318,488.637L99.318,488.637z M92.143,483.468c-2.411,3.416-3.929,5.838-4.554,7.261
				c-0.62,1.417-0.586,2.385,0.105,2.901c0.672,0.502,1.564,0.228,2.683-0.816c1.124-1.049,2.884-3.274,5.279-6.67
				c2.623-3.716,4.261-6.295,4.921-7.739c0.672-1.445,0.649-2.427-0.053-2.951c-0.744-0.558-1.713-0.219-2.923,1.012
				S94.573,480.024,92.143,483.468L92.143,483.468z M97.572,500.957l-1.817-1.213l-1.866,2.958l5.272,3.524
				c2.212,1.478,4.306,2.01,6.276,1.584c1.977-0.423,3.637-1.705,4.992-3.853c0.997-1.583,1.479-3.17,1.433-4.764
				c-0.038-1.595-0.633-2.956-1.774-4.089l0.042-0.067c1.218,0.632,2.436,0.696,3.662,0.198c1.221-0.502,2.292-1.483,3.206-2.932
				c1.239-1.964,1.646-3.885,1.23-5.765c-0.416-1.882-1.606-3.481-3.575-4.797l-5.306-3.548l-1.865,2.96l1.816,1.213L97.572,500.957
				L97.572,500.957z M112.664,484.618l-4.576,7.255c0.692,0.447,1.281,0.738,1.771,0.885c0.494,0.141,1.035,0.051,1.626-0.279
				c0.591-0.331,1.227-1.034,1.913-2.123c0.841-1.331,1.24-2.413,1.204-3.241C114.56,486.29,113.913,485.455,112.664,484.618
				L112.664,484.618z M106.21,494.849l-5.274,8.358c1.242,0.829,2.348,1.104,3.309,0.823c0.965-0.278,1.898-1.139,2.797-2.566
				c0.802-1.271,1.222-2.338,1.269-3.199c0.039-0.865-0.117-1.53-0.474-1.999C107.477,495.805,106.932,495.331,106.21,494.849
				L106.21,494.849z M108.997,512.609l11.219,6.665l6.168-10.998l-2.968-1.764l-4.456,7.943l-3-1.783l10.766-19.193l1.861,1.104
				l1.713-3.054l-7.11-4.227l-1.714,3.056l1.777,1.055l-10.767,19.196l-1.777-1.056L108.997,512.609L108.997,512.609z
				 M122.407,520.912l11.432,6.523l4.225-7.85l-2.996-1.708l-2.564,4.762l-3.099-1.769l4.604-8.548l2.52,1.437l1.66-3.084
				l-2.518-1.438l4.173-7.75l3.098,1.768l-2.355,4.377l2.997,1.71l4.018-7.463l-11.431-6.523l-1.662,3.088l1.827,1.043
				l-10.438,19.384l-1.829-1.043L122.407,520.912L122.407,520.912z M144.338,533.146l7.212,3.62l1.503-3.171l-1.815-0.91
				l4.146-8.749l9.071-9.275l1.642,0.824l1.502-3.17l-6.553-3.291l-1.502,3.171l1.625,0.814l-5.531,5.965l-0.063-0.032l0.988-8.243
				l1.659,0.832l1.502-3.17l-6.906-3.468l-1.502,3.171l1.641,0.824l-1.328,13.551l-3.997,8.436l-1.791-0.898L144.338,533.146
				L144.338,533.146z M180.048,562.126l7.653,2.712l1.175-3.512l-2.119-0.753l4.947-14.79l2.387-7.886l0.376,0.134l-2.311,11.666
				l-2.394,15.87l1.204,0.429l8.083-15.192l4.609-9.516l0.378,0.135l-2.926,7.736l-4.935,14.754l-2.118-0.753l-1.177,3.516
				l8.293,2.939l1.175-3.514l-2.139-0.759l7.385-22.074l2.101,0.743l1.173-3.514l-8.446-2.995l-2.731,5.234
				c-0.642,1.21-1.396,2.712-2.247,4.513l-2.18,4.565l-0.109-0.038l1.328-5.599c0.352-1.521,0.602-2.735,0.734-3.647l0.985-6.522
				l-8.421-2.985l-1.174,3.515l2.119,0.75l-7.383,22.076l-2.12-0.751L180.048,562.126L180.048,562.126z M209.99,543.985l2.217,0.526
				l-4.588,20.459c-0.422,1.884-0.214,3.556,0.627,5.016c0.841,1.451,2.225,2.41,4.145,2.866c1.755,0.417,3.36,0.146,4.826-0.813
				c1.464-0.954,2.499-2.798,3.106-5.515l4.277-19.066l2.171,0.516l0.811-3.622l-7.212-1.714l-0.812,3.62l1.504,0.357l-4.316,19.245
				c-0.32,1.434-0.721,2.412-1.204,2.92c-0.482,0.513-1.165,0.667-2.055,0.455c-0.865-0.205-1.412-0.643-1.637-1.32
				c-0.23-0.675-0.179-1.737,0.145-3.184l4.315-19.244l1.543,0.366l0.813-3.62l-7.866-1.87L209.99,543.985L209.99,543.985z
				 M228.087,576.084l8.324,1.513l0.626-3.66l-2.093-0.381l1.729-10.1l6.571-12.1l1.894,0.342l0.628-3.659l-7.564-1.372l-0.628,3.66
				l1.876,0.339l-3.917,7.691l-0.074-0.013l-1.325-8.644l1.914,0.349l0.628-3.66l-7.971-1.447l-0.627,3.66l1.895,0.344l2.477,14.119
				l-1.668,9.735l-2.065-0.376L228.087,576.084L228.087,576.084z M252.533,580.336l13.57,1.47l1.359-13.308l-3.59-0.387l-0.98,9.608
				l-3.631-0.394l2.371-23.217l2.251,0.241l0.376-3.693l-8.601-0.932l-0.377,3.695l2.149,0.233l-2.37,23.22l-2.15-0.233
				L252.533,580.336L252.533,580.336z M269.409,581.955l13.751,0.742l0.48-9.44l-3.604-0.195l-0.292,5.729l-3.728-0.2l0.525-10.282
				l3.029,0.162l0.189-3.711l-3.03-0.161l0.475-9.323l3.727,0.201l-0.268,5.263l3.604,0.194l0.457-8.974l-13.75-0.741l-0.189,3.71
				l2.198,0.119l-1.188,23.316l-2.198-0.121L269.409,581.955L269.409,581.955z M293.761,572.039h3.576l0.732,6.985h-1.903v3.717
				h7.999v-3.717h-1.87l-3.292-23.346h2.079v-3.717h-11.066v3.717h2.08l-3.292,23.346h-1.862v3.717h7.992v-3.717h-1.903
				L293.761,572.039L293.761,572.039z M294.039,568.303h3.021l-1.273-13.705h-0.474L294.039,568.303L294.039,568.303z
				 M307.504,582.706l13.641-0.49l-0.455-13.37l-3.609,0.13l0.328,9.655l-3.648,0.133l-0.792-23.334l2.261-0.081l-0.127-3.712
				l-8.643,0.31l0.127,3.712l2.159-0.076l0.792,23.333l-2.16,0.078L307.504,582.706L307.504,582.706z M342.621,569.383
				c0.271,2.641,0.26,4.549-0.015,5.729c-0.279,1.18-0.848,1.816-1.704,1.909c-0.997,0.107-1.737-0.604-2.221-2.145
				c-0.484-1.532-0.973-4.722-1.467-9.569c-0.36-3.523-0.567-6.073-0.617-7.644c-0.059-1.579,0.028-2.646,0.256-3.203
				c0.23-0.56,0.662-0.873,1.294-0.939c0.855-0.094,1.564,0.383,2.141,1.429c0.571,1.047,0.962,2.609,1.172,4.683l3.591-0.39
				l-1.015-9.935l-3.59,0.388l0.151,1.485l-0.08,0.008c-0.87-1.252-2.015-1.795-3.437-1.64c-4.041,0.437-5.505,6.035-4.406,16.803
				c0.533,5.213,1.494,9.034,2.9,11.463c1.407,2.427,3.294,3.514,5.666,3.256c1.919-0.208,3.332-1.293,4.25-3.264
				c0.922-1.964,1.231-4.558,0.922-7.769L342.621,569.383L342.621,569.383z M351.307,579.266l8.725-1.261l-0.503-3.68l-2.279,0.33
				l-3.157-23.121l2.279-0.329l-0.501-3.681l-8.725,1.263l0.503,3.68l2.26-0.326l3.156,23.12l-2.259,0.327L351.307,579.266
				L351.307,579.266z M358.776,550.527l2.241-0.407l3.543,20.68c0.325,1.903,1.154,3.357,2.481,4.363
				c1.326,0.997,2.964,1.325,4.903,0.971c1.776-0.322,3.149-1.215,4.132-2.689c0.987-1.467,1.239-3.58,0.768-6.326l-3.301-19.271
				l2.193-0.399l-0.627-3.659l-7.29,1.322l0.628,3.661l1.521-0.275l3.333,19.449c0.247,1.448,0.25,2.511,0,3.172
				c-0.252,0.668-0.82,1.083-1.719,1.245c-0.874,0.159-1.545-0.024-2.008-0.556c-0.469-0.531-0.826-1.527-1.076-2.988l-3.333-19.451
				l1.561-0.284l-0.626-3.658l-7.95,1.442L358.776,550.527L358.776,550.527z M383.967,573.199l5.371-1.276
				c3.215-0.767,5.304-2.541,6.288-5.347c0.98-2.792,0.906-6.716-0.227-11.771c-1.158-5.162-2.759-8.797-4.807-10.892
				c-2.041-2.098-4.746-2.749-8.091-1.956l-5.259,1.249l0.811,3.62l2.125-0.502l5.103,22.748l-2.125,0.505L383.967,573.199
				L383.967,573.199z M384.296,545.346l5.102,22.749c1.493-0.383,2.349-1.432,2.581-3.153c0.235-1.716-0.093-4.571-0.99-8.567
				c-0.698-3.115-1.367-5.504-1.993-7.158c-0.629-1.654-1.311-2.773-2.041-3.357C386.224,545.266,385.338,545.098,384.296,545.346
				L384.296,545.346z M404.963,557.017l3.454-0.952l2.462,6.551l-1.838,0.507l0.935,3.59l7.725-2.129l-0.936-3.592l-1.805,0.498
				l-9.049-21.675l2.009-0.553l-0.935-3.592l-10.688,2.95l0.933,3.59l2.009-0.554l2.691,23.429l-1.799,0.496l0.933,3.59l7.721-2.131
				l-0.935-3.588l-1.838,0.507L404.963,557.017L404.963,557.017z M404.292,553.333l2.917-0.805l-4.676-12.9l-0.458,0.127
				L404.292,553.333L404.292,553.333z M421.271,563.475l5.273-1.659c3.154-0.992,5.118-2.913,5.911-5.78
				c0.787-2.858,0.446-6.769-1.027-11.728c-1.505-5.067-3.348-8.576-5.533-10.521c-2.177-1.945-4.92-2.403-8.204-1.37l-5.161,1.626
				l1.056,3.555l2.084-0.656l6.633,22.326l-2.085,0.655L421.271,563.475L421.271,563.475z M419.711,535.667l6.631,22.327
				c1.463-0.488,2.247-1.596,2.36-3.331c0.118-1.728-0.401-4.553-1.567-8.473c-0.907-3.06-1.737-5.396-2.475-6.999
				c-0.739-1.605-1.495-2.673-2.26-3.205C421.63,535.449,420.735,535.345,419.711,535.667L419.711,535.667z M515.27,459.196
				l3.271-0.467v-5.295h-2.805L515.27,459.196L515.27,459.196z M465.248,532.367l4.667-2.436c2.795-1.456,4.327-3.586,4.614-6.397
				c0.285-2.805-0.651-6.404-2.812-10.799c-2.208-4.485-4.487-7.46-6.837-8.912c-2.345-1.455-4.981-1.424-7.89,0.094l-4.571,2.383
				l1.549,3.146l1.847-0.961l9.73,19.769l-1.847,0.965L465.248,532.367L465.248,532.367z M459.395,506.617l9.729,19.773
				c1.291-0.704,1.849-1.87,1.683-3.511c-0.165-1.637-1.097-4.191-2.806-7.664c-1.333-2.711-2.477-4.754-3.421-6.131
				c-0.943-1.378-1.82-2.248-2.621-2.617C461.154,506.094,460.299,506.146,459.395,506.617L459.395,506.617z M482.845,522.985
				l11.219-6.902l-4.473-7.703l-2.94,1.809l2.715,4.677l-3.042,1.871l-4.872-8.392l2.472-1.521l-1.758-3.028l-2.472,1.521
				l-4.418-7.605l3.042-1.871l2.494,4.295l2.94-1.811l-4.251-7.323l-11.219,6.903l1.758,3.028l1.792-1.104l11.046,19.025
				l-1.792,1.104L482.845,522.985L482.845,522.985z M510.718,504.436l6.147-4.745l-2.056-2.822l-1.703,1.314l-8.655-11.881
				l-4.747-6.131l0.305-0.233l7.672,8.081l10.841,10.395l0.966-0.748l-7.292-14.631l-4.808-8.795l0.303-0.235l4.349,6.489
				l8.633,11.85l-1.704,1.314l2.057,2.822l6.662-5.144l-2.057-2.821l-1.717,1.325l-12.918-17.731l1.688-1.302l-2.057-2.823
				l-6.785,5.238l2.541,4.997c0.583,1.163,1.327,2.573,2.245,4.222l2.326,4.194l-0.086,0.067l-3.565-4.058
				c-0.973-1.093-1.769-1.941-2.395-2.536l-4.455-4.271l-6.764,5.222l2.058,2.822l1.702-1.313l12.917,17.732l-1.703,1.313
				L510.718,504.436L510.718,504.436z M531.473,488.104l9.886-8.804l-5.704-6.786l-2.592,2.308l3.461,4.118l-2.679,2.387
				l-6.213-7.393l2.179-1.94l-2.243-2.666l-2.178,1.939l-5.633-6.703l2.679-2.385l3.18,3.782l2.591-2.306l-5.42-6.453l-9.886,8.805
				l2.244,2.668l1.58-1.408l14.088,16.76l-1.582,1.409L531.473,488.104L531.473,488.104z M541.147,461.312
				c0.459-0.456,0.812-0.859,1.065-1.21l11.531,7.145l3.449-3.413l-2.375-2.543l-1.224,1.211l-9.549-5.644
				c0.62-2.688-0.111-5.151-2.192-7.379c-1.608-1.722-3.4-2.61-5.382-2.662c-1.981-0.048-3.835,0.784-5.564,2.494l-5.118,5.063
				l2.375,2.543l1.725-1.706l14.921,15.98l-1.725,1.706l2.375,2.543l6.136-6.073l-2.374-2.543l-1.521,1.505L541.147,461.312
				L541.147,461.312z M532.781,452.349l5.991,6.417c1.094-1.081,1.642-2.117,1.637-3.115c-0.002-0.989-0.528-2.047-1.583-3.178
				c-1.115-1.193-2.125-1.779-3.045-1.761C534.866,450.727,533.864,451.276,532.781,452.349L532.781,452.349z M560.306,460.455
				l5.717-6.282l-2.5-2.413l-1.495,1.643l-15.711-15.154l1.495-1.642l-2.5-2.413l-5.72,6.284l2.501,2.411l1.48-1.627l15.712,15.153
				l-1.483,1.627L560.306,460.455L560.306,460.455z M569.527,449.851l3.372-4.119c2.02-2.464,2.623-5.04,1.819-7.745
				c-0.801-2.695-3.03-5.634-6.687-8.808c-3.736-3.242-6.961-5.063-9.675-5.454c-2.712-0.396-5.128,0.693-7.228,3.259l-3.305,4.032
				l2.622,2.274l1.334-1.629l16.461,14.285l-1.335,1.63L569.527,449.851L569.527,449.851z M554.365,428.504l16.461,14.286
				c0.923-1.166,0.992-2.464,0.215-3.907c-0.771-1.441-2.599-3.419-5.49-5.927c-2.255-1.957-4.085-3.381-5.477-4.268
				c-1.393-0.887-2.53-1.339-3.406-1.355C555.787,427.312,555.02,427.704,554.365,428.504L554.365,428.504z M576.882,424.177
				l2-2.822l5.613,3.333l-1.066,1.502l2.768,2.081l4.477-6.313l-2.768-2.08l-1.046,1.476l-19.234-10.472l1.166-1.641l-2.768-2.08
				l-6.194,8.733l2.768,2.08l1.163-1.643l15.546,15.668l-1.042,1.47l2.768,2.08l4.473-6.307l-2.768-2.08l-1.064,1.502
				L576.882,424.177L576.882,424.177z M574.252,421.866l1.691-2.385l-10.921-6.668l-0.265,0.375L574.252,421.866L574.252,421.866z
				 M224.496,484.104c-0.71,0.176-1.396,0.336-2.057,0.482C223.1,484.439,223.787,484.279,224.496,484.104L224.496,484.104z
				 M243.544,452.532c0.016,0.016,5.119,4.976,6.664,11.502c-0.312-0.23-0.646-0.469-1.004-0.711
				c-4.58-3.121-8.796-4.594-8.808-4.598c-0.531-0.19-1.117,0.088-1.306,0.617c-0.189,0.532,0.087,1.117,0.619,1.307
				c0.012,0.004,4,1.397,8.344,4.357c3.799,2.589,4.498,4.176,5.808,7.149l0.459,1.038l0.033,0.065l0.203,0.431
				c-4.798-1.211-8.404-4.99-8.414-5.002c-0.386-0.409-1.032-0.431-1.441-0.045c-0.41,0.387-0.43,1.032-0.045,1.441
				c0.012,0.011,2.894,3.034,7.063,4.789c-1.444-0.076-3.057-0.137-4.73-0.196c-3.855-0.14-8.063-0.292-11.2-0.667h-0.007
				l-0.123-0.016c-6.911-0.849-12.222-2.901-12.236-2.906c-0.528-0.193-1.115,0.078-1.308,0.606
				c-0.195,0.529,0.078,1.115,0.606,1.31c0.015,0.006,5.539,2.14,12.692,3.018l0.124,0.017l0.054,0.005
				c3.161,0.375,7.422,0.529,11.328,0.67c4.696,0.168,8.866,0.318,9.636,0.74c0.119,0.065,0.247,0.104,0.375,0.119
				c0.272,0.378,0.542,0.749,0.811,1.113c0.959,1.307,1.855,2.528,2.409,3.763c1.27,2.825,2.892,7.562,2.897,7.572
				c0.194,0.526,0.782,0.795,1.308,0.6c0.527-0.195,0.795-0.784,0.6-1.31c-0.005-0.012-1.621-4.75-2.944-7.692
				c-0.377-0.841-0.858-1.633-1.398-2.426c1.552-8.314-3.305-16.61-3.318-16.635c-0.28-0.488-0.904-0.658-1.394-0.379
				c-0.488,0.281-0.658,0.905-0.378,1.394c0.011,0.021,3.72,6.36,3.336,13.189c-0.488-0.674-0.982-1.379-1.448-2.127
				c-0.038-0.088-0.09-0.172-0.151-0.247c-0.377-0.622-0.734-1.277-1.049-1.97l-0.019-0.046l-0.46-1.038
				c-0.946-2.149-1.607-3.648-3.117-5.23c-0.781-8.37-7.605-14.998-7.625-15.018c-0.397-0.398-1.046-0.398-1.444,0
				C243.146,451.485,243.146,452.133,243.544,452.532L243.544,452.532z M217.424,492.782c0.022-0.003,6.939-1.681,13.293,0.488
				c-0.362,0.141-0.743,0.297-1.143,0.471c-5.063,2.208-8.548,4.986-8.559,4.994c-0.448,0.337-0.539,0.977-0.204,1.426
				c0.336,0.448,0.976,0.54,1.426,0.202c0.008-0.006,3.318-2.645,8.153-4.754c4.212-1.835,5.927-1.583,9.144-1.108l0.046,0.006
				l1.082,0.157l0.047,0.007c0.164,0.022,0.328,0.044,0.491,0.063c-3.581,3.417-8.708,4.455-8.724,4.458
				c-0.551,0.114-0.906,0.655-0.792,1.204c0.114,0.553,0.654,0.905,1.205,0.791c0.02-0.003,6.978-1.412,10.966-6.324
				c1.139-0.007,2.225-0.088,3.271-0.164c1.618-0.115,3.131-0.225,4.472-0.037c3.073,0.429,7.91,1.574,7.923,1.577
				c0.548,0.128,1.097-0.216,1.225-0.764s-0.214-1.097-0.762-1.226c-0.013-0.001-4.913-1.161-8.106-1.607
				c-0.91-0.128-1.834-0.139-2.789-0.104c-6.209-5.738-15.84-6.047-15.867-6.049c-0.561-0.015-1.03,0.429-1.046,0.991
				c-0.016,0.562,0.429,1.03,0.99,1.045c0.022,0,7.346,0.237,12.924,4.2c-0.834,0.056-1.691,0.098-2.573,0.095
				c-0.095-0.014-0.193-0.015-0.288-0.003c-0.741-0.012-1.497-0.063-2.265-0.169l-0.014-0.003l-1.103-0.16l-0.018-0.004
				c-2.324-0.342-3.941-0.578-6.084-0.144c-7.498-3.794-16.741-1.547-16.768-1.543c-0.548,0.122-0.893,0.669-0.77,1.218
				C216.33,492.562,216.877,492.906,217.424,492.782L217.424,492.782z M370.673,482.931c-0.036,0.009-12.599,2.646-19.308,6.549
				c-0.488,0.282-0.653,0.906-0.372,1.394c0.282,0.487,0.906,0.651,1.393,0.371c6.421-3.736,18.674-6.312,18.709-6.317
				c0.55-0.118,0.903-0.659,0.787-1.211C371.766,483.167,371.223,482.814,370.673,482.931L370.673,482.931z M367.625,468.957
				c-0.034,0.012-12.071,4.472-18.137,9.321l0,0l-0.052,0.041l-0.007,0.005l-0.001-0.002c-0.85,0.681-1.709,1.398-2.556,2.128
				c-0.806,0.694-1.669,1.459-2.547,2.254c-4.308,3.898-8.087,7.772-8.517,8.372c-0.329,0.458-0.224,1.098,0.235,1.426
				c0.458,0.328,1.098,0.221,1.425-0.237c0.396-0.552,4.029-4.258,8.221-8.051c0.777-0.705,1.618-1.448,2.509-2.215
				c0.852-0.732,1.696-1.438,2.507-2.088v-0.002l0.046-0.035l-0.002-0.001l0.006-0.005c5.797-4.637,17.532-8.983,17.565-8.996
				c0.528-0.19,0.801-0.776,0.61-1.305C368.74,469.038,368.153,468.765,367.625,468.957L367.625,468.957z M169.172,39.322
				l12.24,13.19c0.147-1.325,1.271-2.354,2.634-2.354c1.463,0,2.649,1.187,2.649,2.65c0,1.431-1.135,2.595-2.554,2.646
				l12.678,13.663c0,0,5.905,7.248,15.031,4.026c9.128-3.22,9.932-7.516,9.932-7.516s6.626,4.437,12.297,2.95
				c5.67-1.486,9.412-10.489,10.52-11.54c1.107-1.049,6.469,7.221,12.711,6.148c6.241-1.074,10.955-9.95,11.983-10.979
				c1.028-1.028,7.203,7.952,14.227,8.104h0.083c-1.829,0.056-3.65,0.126-5.452,0.219c-31.405,1.609-75.695,17.984-75.695,17.984
				c-5.101,2.952,5.368,8.59,5.368,8.59s1.27,2.202,2.885,5.06l6.883-3.097c0.283-0.126,0.619,0,0.747,0.285l2.545,5.659
				c0.126,0.283,0,0.619-0.284,0.747l-6.307,2.838c1.346,2.463,2.49,4.643,2.925,5.688c1.342,3.221,2.147,6.979,10.469,11.811
				c8.322,4.832,57.443,8.322,73.817,8.857c16.374,0.537,65.765-5.369,73.305-7.81c7.543-2.44,10.712-10.712,10.712-10.712
				s1.302-2.848,2.729-7.123l-7.889-3.549c-0.283-0.127-0.41-0.465-0.282-0.747l2.546-5.659c0.127-0.285,0.464-0.411,0.746-0.285
				l6.893,3.101l-1.994,7.079c0.713-2.142,1.459-4.637,2.083-7.312c1.879-8.053,7.516-7.515,10.455-10.75
				c2.939-3.233-5.355-5.356-5.355-5.356s-2.76-0.917-6.984-2.224l0.044,0.01c6.94,1.51,9.305,0.118,17.651-8.497
				c2.708-2.795,6.201-6.267,9.689-9.68c-0.104,0.011-0.21,0.02-0.316,0.02c-1.464,0-2.65-1.186-2.65-2.649s1.187-2.65,2.65-2.65
				c1.463,0,2.648,1.187,2.648,2.65c0,0.13-0.01,0.257-0.027,0.381c6.413-6.241,12.19-11.719,12.19-11.719s4.026-4.563,8.321-4.563
				c4.294,0,8.321-1.343,5.368-3.759c-2.951-2.416-9.125-3.22-10.736-2.416c-1.61,0.806-2.618,4.112-8.465,0.892
				c-5.847-3.222-10.057-0.623-11.667,1.255c-1.61,1.88-6.033,2.717-9.127,3.222c-3.094,0.505-2.951,2.952-2.683,4.832
				c0.269,1.879,2.818,2.818,2.818,2.818s-4.419,0.247-4.295,4.294c0.124,4.048,2.551,3.087,2.551,3.087s-4.028,0.806-3.624,3.625
				c0.401,2.818,3.355,2.549,3.355,2.549s-1.68,8.591-8.659,9.396c-6.979,0.805-9.754-7.248-9.485-9.126
				c0.042-0.295,0.047-0.579,0.018-0.833c0.449,0.133,0.927,0.207,1.417,0.207c2.749,0,4.977-2.229,4.977-4.978
				c0-2.748-2.228-4.978-4.977-4.978c-2.748,0-4.977,2.229-4.977,4.978c0,1.586,0.741,2.997,1.897,3.909
				c-0.468,0.284-1.031,0.823-1.684,1.695c-5.164,6.884-12.409,4.835-16.653-0.501c0,0-0.017-0.178-0.058-0.473
				c2.019,0.392,3.018,0.791,3.722-0.1c0.707-0.892-0.193-3.296-0.193-3.296s2.343,1.888,3.421,1.773
				c5.002-0.532-1.536-5.325-1.026-5.833c0.511-0.51,7.618,2.538,9.558,0.501c1.938-2.036,1.938-4.072,1.162-5.526
				c-0.774-1.454-4.482-2.132-4.482-3.199c0-1.066,5.757-2.919,6.471-4.023c0.714-1.104,0.34-3.831-1.989-4.121
				c-2.324-0.29-3.925-0.727-3.925-2.277c0-1.551,1.307-4.509-1.212-5.866c-2.521-1.357-4.459,1.745-5.139,2.328
				c-0.678,0.582-1.647-0.485-3.491-0.97c-1.84-0.484-4.459,0.873-4.362,2.813c0.098,1.938-0.387,2.908-1.355,2.714
				c-0.972-0.194-0.972-1.261-2.813-0.098c-1.842,1.164,3.718,6.924-1.066,3.684c-1.895-1.283-2.618-1.648-3.781-0.678
				c-1.165,0.969-0.098,2.812,1.163,3.781c1.26,0.969,1.648,2.037-0.291,1.551c-1.939-0.484-3.393,0.387-2.715,1.842
				c0.679,1.455,2.133,1.746,2.813,2.326c0.679,0.582-0.97,1.067-2.522,0.873c-5.203-0.651-3.152,4.147,0.97,3.419
				c1.648-0.292,2.916,0.398,2.328,1.428c-0.589,1.031-0.571,1.956-0.463,3.066c-2.441,1.083-4.684,2.15-5.397,2.526
				c-1.219,0.643-6.338,1.616-10.902-2.948c-2.892-2.89-3.769-7.929-4.117-10.782l0.066,0.001c2.749,0,4.977-2.229,4.977-4.977
				c0-2.749-2.228-4.978-4.977-4.978c-2.749,0-4.977,2.229-4.977,4.978c0,2.217,1.449,4.095,3.453,4.738
				c-1.578,1.695-4.436,3.785-6.018,5.432c-6.528,6.803-17.817,3.854-21.338-4.697c-0.654-1.588,1.778,0.9,3.208-1.125
				c1.19-1.692-3.212-6.664-0.401-3.852c0.632,0.634,4.52,3.17,5.333,0.182c0.571-2.097-1.432-3.794-2.589-4.838l0.187-0.062
				l0.1,0.015c5.696,0.814,7.955-0.905,9.131-2.082c1.175-1.179,1.537-3.624-2.17-4.981c-1.969-0.722-4.702-0.014-6.833,0.81
				l-0.417-0.139c1.158-1.044,3.161-2.742,2.59-4.837c-0.813-2.989-4.701-0.454-5.333,0.181c-5.07,5.073,1.109-1.577,0.401-3.985
				c-0.533-1.808-3.529-1.24-4.847,0.89c-0.92,1.485,2.121-5.1,2.361-5.677c0.685-1.643-0.646-4.285-1.878-4.421
				c-1.232-0.137-2.739-0.508-2.739-2.424c0-1.918-2.738-2.355-2.738-0.275c-0.001,2.082-0.959,2.466-2.602,2.739
				c-1.644,0.273-2.055,2.465-1.782,4.107c0.172,1.027,1.838,3.921,3.065,5.951c-1.319-2.129-3.761-2.428-4.847-0.89
				c-1.704,2.42,5.531,9.525,0,3.985c-0.632-0.634-4.52-3.17-5.333-0.181c-0.554,2.031,1.31,3.688,2.479,4.738
				c-2.015-0.71-4.41-1.222-6.186-0.571c-3.707,1.358-3.345,3.803-2.169,4.981c1.125,1.125,3.245,2.749,8.417,2.172
				c-1.164,1.048-3.103,2.727-2.541,4.795c0.813,2.988,4.702,0.453,5.333-0.182c3.252-3.063-1.578,1.61,0,3.852
				c2.531,3.59,5.873-2.971,1.792,2.466c-3.22,4.294-7.121,6.995-12.674,7.3c-5.555,0.305-10.569-5.958-12.448-8.911
				c-0.266-0.416-0.515-0.735-0.749-0.957c1.979-0.659,3.41-2.524,3.41-4.723c0-2.748-2.229-4.977-4.978-4.977
				c-2.748,0-4.978,2.229-4.978,4.977c0,2.706,2.16,4.907,4.85,4.976c-0.483,0.803-0.85,2.286-1.137,4.194
				c-0.652,4.313-6.236,9.887-9.458,10.423c-2.762,0.46-7.072,0.362-9.936-2.047c0.342-1.251,0.213-3.055-0.303-3.958
				c-0.775-1.357,0.679-1.067,2.328-0.776c4.121,0.728,6.172-4.722,0.969-4.071c-1.551,0.194-3.2-0.291-2.52-0.873
				c0.678-0.581,2.133-0.872,2.811-2.326c0.679-1.455-0.775-2.326-2.714-1.842c-1.94,0.485-1.552-0.582-0.291-1.551
				s2.328-2.812,1.164-3.781c-1.164-0.97-1.887-0.604-3.781,0.678c-4.787,3.241,0.774-2.52-1.067-3.684
				c-1.842-1.164-1.842-0.096-2.812,0.098c-0.969,0.194-1.454-0.777-1.357-2.714c0.098-1.94-2.52-3.297-4.362-2.813
				c-1.841,0.485-2.812,1.552-3.49,0.97c-0.679-0.583-2.619-3.685-5.138-2.328c-2.521,1.357-1.212,4.315-1.212,5.866
				c0,1.551-1.601,1.987-3.927,2.277c-2.326,0.291-2.701,3.017-1.987,4.121c0.713,1.104,5.848,1.714,5.848,2.781
				c0,1.065-3.085,2.988-3.861,4.441c-0.775,1.454-0.775,3.491,1.164,5.526c1.938,2.036,8.016-2.036,8.807-1.245
				c0.792,0.791-3.669,3.468-3.377,5.51c0.29,2.043,2.133,1.551,3.102,1.066c0.97-0.485,4.277-3.538,2.891-2.308
				c-1.386,1.23-1.344,3.975-0.975,4.344c0.369,0.368,1.665,0.124,2.626-0.005c-2.34,4.674-6.693,5.639-9.958,4.342
				c-2.718-1.079-5.231-5.638-6.948-6.968c0.767-0.875,1.234-2.021,1.234-3.275c0-2.748-2.229-4.978-4.977-4.978
				c-2.749,0-4.978,2.23-4.978,4.978s2.229,4.978,4.978,4.978c0.622,0,1.214-0.115,1.763-0.324c-0.41,1.954-0.587,5.178-3.409,7.999
				c-4.026,4.027-8.063,2.404-10.48,0.794c-1.823-1.217-3.647-4.877-4.432-6.601c1.761,0.067,1.82-3.255,1.621-4.549
				c-0.199-1.295-0.099-1.594,1.193-3.187c1.291-1.594,0-2.79-1.193-3.984c-1.193-1.194-0.596-1.991-0.299-3.286
				c0.299-1.294,0.2-2.889-2.087-4.68c-2.287-1.793-4.872,0.297-4.872-0.5c0-0.796-0.795-3.085-2.783-5.477
				c-1.989-2.39-6.562-2.988-9.345-2.788c-2.784,0.199-3.579,1.495-7.465,2.311l-0.002,0c-1.326-0.597-2.426-0.984-3.176-1.064
				c-3.895-0.41-11.986-1.929-14.259,3.922C153.905,37.726,163.69,34.49,169.172,39.322L169.172,39.322z M284.01,60.297
				c4.984-0.367,14.085-7.638,15.349-15.338c0,0,5.73,13.51,13.556,14.927c7.825,1.418,17.85-7.948,17.85-7.948
				s4.691,9.33,10.711,10.711c6.021,1.381,12.374-3.463,13.448-5.074c1.072-1.61,2.717,6.57,8.589,8.589
				c5.869,2.02,13.152,1.075,14.763-0.537c1.482-1.481,3.03,5.251,8.679,7.51c-7.208-2.207-17.726-5.238-26.396-6.973
				C346.706,63.394,313.945,59.444,284.01,60.297L284.01,60.297z M363.934,41.276c1.463,0,2.65,1.186,2.65,2.649
				c0,1.464-1.188,2.649-2.65,2.649c-1.461,0-2.648-1.186-2.648-2.649C361.286,42.462,362.473,41.276,363.934,41.276L363.934,41.276
				z M300.089,25.937c1.463,0,2.649,1.187,2.649,2.65c0,1.462-1.186,2.649-2.649,2.649s-2.649-1.187-2.649-2.649
				C297.44,27.124,298.626,25.937,300.089,25.937L300.089,25.937z M236.054,40.34c1.462,0,2.649,1.186,2.649,2.65
				c0,1.463-1.187,2.649-2.649,2.649c-1.464,0-2.649-1.186-2.649-2.649C233.405,41.526,234.59,40.34,236.054,40.34L236.054,40.34z
				 M359.56,198.422c0,0,0.679-1.801,4.042-1.553c3.362,0.248,4.545,1.356,5.311,2.507c0.401,0.603,0.635,1.877,0.445,2.779
				c-0.174,0.823-0.667,1.338-1.255,1.606c-0.531,0.244-1.313,0.204-2.072-0.073c-0.912-0.333-1.791-0.979-2.208-1.459
				c-0.267-0.31-0.944-0.655-1.555-0.984c-1.125-0.604-2.284-1.055-2.618-1.487C359.26,199.253,359.56,198.422,359.56,198.422
				L359.56,198.422z M360.606,198.674c0,0,0.54-0.972,3.163-0.733c2.622,0.24,3.575,0.955,4.212,1.911
				c0.635,0.956,0.635,2.786-0.397,3.026c-1.033,0.238-2.424-0.758-3.02-1.354c-0.597-0.596-3.624-2.096-3.974-2.262
				C360.238,199.099,360.606,198.674,360.606,198.674L360.606,198.674z M226.461,175.802c-0.089-0.006-0.175-0.009-0.258-0.013
				C226.287,175.792,226.371,175.796,226.461,175.802L226.461,175.802z M206.576,352.533l15.631,22.702
				c0.131-0.081,0.281-0.132,0.442-0.145l0.085-7.818l0.003-0.315l-0.475-0.53l-11.97-13.35l-3.71-4.357L206.576,352.533
				L206.576,352.533z M205.476,348.847h-20.037h-0.023h-0.019h-0.005h-0.017l-0.005,0.001l-0.017,0l-0.009,0.002l-0.014,0
				l-0.009,0.002l-0.015,0l-0.008,0.001l-0.012,0.002l-0.01,0.001l-0.013,0.002l-0.011,0.002l-0.011,0.003l-0.011,0.002
				l-0.012,0.003l-0.012,0.001l-0.032,0.009l-0.013,0.003l-0.006,0.003l-0.014,0.003l-0.01,0.005l-0.013,0.004l-0.007,0.004
				l-0.013,0.003l-0.007,0.003l-0.017,0.006l-0.004,0.002l-0.039,0.018l-0.018,0.007l-0.003,0.002l-0.035,0.018l-0.004,0.003
				l-0.016,0.008l-0.003,0.001l-0.015,0.01l-0.003,0.002l-0.019,0.01v0.001l-0.017,0.011l-0.002,0.002l-0.016,0.011l0,0
				l-0.018,0.012v0.001l-0.016,0.012l-0.001,0.001l-0.016,0.013l-0.001,0.001l-0.015,0.013l-0.001,0.001l-0.016,0.014l-0.001,0
				l-0.005,0.005l-0.021,0.019l-0.005,0.005l0,0.001l-0.013,0.014l-0.002,0.002l-0.013,0.012l-0.001,0.002l-0.012,0.013
				l-0.004,0.005l-0.049,0.063l-0.004,0.006l-0.015,0.023l-0.016,0.024l-0.003,0.006l-0.006,0.012l-0.006,0.008l-0.006,0.011
				l-0.004,0.008l-0.005,0.01l-0.006,0.01l-0.005,0.01l-0.004,0.011l-0.004,0.008l-0.006,0.011l-0.001,0.004l-0.002,0.006
				l-0.003,0.009l-0.004,0.009l-0.005,0.012l-0.003,0.009l-0.004,0.012l-0.002,0.007l-0.005,0.014v0.002l-0.002,0.005l-0.002,0.014
				l-0.002,0.007l-0.004,0.014l-0.014,0.049l0,0.016l-0.001,0.002v0.003l-0.004,0.018v0.003l-0.003,0.02v0.002l-0.005,0.021v0.002
				v0.019v0.001l-0.003,0.021v0.001v0.022v0.001l-0.001,0.023v1.788c0,0.492,0.42,0.895,0.936,0.895h20.037h0.365v-3.578H205.476
				L205.476,348.847z M268.784,348.793l-1.654,1.876l-14.194,15.83c-0.038,0.279-0.191,0.521-0.408,0.682l0.076,7.908
				c0.162,0.013,0.314,0.063,0.447,0.144l14.327-20.797v0.001l1.406-2.029V348.793L268.784,348.793z M187.892,225.609
				c0.051-0.065,0.109-0.123,0.173-0.173C188,225.486,187.943,225.544,187.892,225.609L187.892,225.609z M202.681,245.35
				L202.681,245.35L202.681,245.35z M191.25,245.35L191.25,245.35L191.25,245.35z M237.809,333.712L237.809,333.712l-0.022,0.001
				v0.065h0.022v2.33h0.007l0,5.112h13.376c0.001-0.066,0.012-0.133,0.027-0.195v-3.477l-0.03-0.036v-3.798h-2.973v-0.001H237.809
				L237.809,333.712z M268.748,332.746l-15.525,9.111l-0.259,23.087l14.962-16.688c0.105-0.148,0.248-0.266,0.413-0.341l0.001-0.001
				l0.002-0.001l0.011-0.004l0.012-0.004h0.001l0.011-0.005l0.011-0.005h0.001l0.012-0.005l0.011-0.004l0.001-0.001l0.001-0.001
				l0.02-0.006l0.004-0.001l0.012-0.004l0.008-0.004l0.004-0.002h0.007l0.006-0.001l0.005-0.003l0.002,0l0.004-0.001l0.012-0.003
				l0.005-0.001l0.008-0.002l0.015-0.002l0.001-0.001l0.051-0.011v0l0.024-0.003l0.001,0l0.023-0.002l0.007-0.001l0.02-0.001
				l0.004-0.001l0.056-0.003h0.014h0.003h0.012V332.746L268.748,332.746z M269.786,348.847v3.578h20.038
				c0.514,0,0.935-0.403,0.935-0.895v-1.788c0-0.479-0.398-0.873-0.894-0.895h-0.02h-0.022H269.786L269.786,348.847z
				 M223.667,375.087h7.202v-19.585c0-3.148,3.042-5.725,6.761-5.725c3.719,0,6.762,2.577,6.762,5.725v19.585h7.194l-0.076-7.799
				c-0.355-0.162-0.602-0.519-0.598-0.934l0.27-24.121h-26.514l-0.372,24.197c-0.005,0.387-0.224,0.72-0.544,0.889L223.667,375.087
				L223.667,375.087z M237.63,349.777L237.63,349.777L237.63,349.777z M206.515,347.825h0.012h0.004h0.015l0.085,0.007h0.006h0.001
				l0.087,0.015l0.007,0.002l0.017,0.004l0.004,0.001h0.003l0.013,0.003l0.012,0.003l0.001,0.001l0.004,0.001l0.017,0.004
				l0.006,0.002l0.016,0.005l0.003,0.001l0.009,0.003l0.013,0.005h0.002l0.012,0.006l0.009,0.003l0.045,0.019h0.002l0.019,0.008
				l0.045,0.023l0.003,0l0.043,0.025l0.004,0.004l0.012,0.007l0.004,0.002l0.002,0.001l0.018,0.014l0.012,0.006l0.008,0.006
				l0.003,0.002l0.021,0.016l0.005,0.003l0.012,0.009l0.008,0.007l0.009,0.01h0.001l0.003,0.003l0.015,0.011
				c0.025,0.021,0.048,0.045,0.07,0.069l0.005,0.005l0.01,0.01l0.001,0.003l0.041,0.046l0.04,0.051l14.947,16.669l0.343-22.366
				l-16.112-9.734V347.825L206.515,347.825z M224.095,337.512v3.55l0.085,0.05l-0.001,0.004c0.053,0.03,0.104,0.065,0.149,0.105
				h12.448l0-5.119V334.8v-1.021v-0.065v-0.008h-7.042v0.008h-5.639v1.899V337.512L224.095,337.512z M244.515,332.64v-6.362h-13.711
				v6.362v0.062h13.711V332.64L244.515,332.64z M244.515,317.682v-6.488h-13.711v6.488v0.001L244.515,317.682L244.515,317.682
				L244.515,317.682z M230.804,266.054v0.956v5.419v0.075h13.711v-0.075v-5.419v-0.956H230.804L230.804,266.054z M208.681,256.379
				l0.348-1.208v-15.002v-0.146c0,0,0.166-0.892-1.355-0.989c-0.312-0.021-1.405-0.032-2.943-0.038v3.855
				c0,1.375-0.923,2.5-2.05,2.5l-0.053-0.004h-0.009l-0.053-0.003h-0.011l-0.124-0.015h-0.001c-1.012-0.151-1.8-1.207-1.8-2.479
				v-3.856h-3.835l-3.495,0.01v3.846c0,1.375-0.922,2.5-2.05,2.5l-0.053-0.004h-0.009l-0.053-0.003h-0.011h-0.001l-0.121-0.015
				h-0.002h0.002c-1.011-0.152-1.802-1.207-1.802-2.479v-3.832l-3.123,0.012c0,0-1.67-0.194-1.768,1.822s0,12.637,0,13.573
				c0,0.933,0.435,1.955,1.174,1.955h0.051h0.082h0.111h0.139h0.169h0.194h0.22h0.244h0.27h0.291h0.313h0.333h0.354h0.372h0.39
				h0.404h0.424h0.437h0.451h0.462h0.476h0.484h0.495h0.503h0.511h0.517h0.522h0.527h0.531h0.532h0.536h0.533h0.535h0.533h0.531
				h0.526h0.522h0.517h0.511h0.501h0.494h0.484h0.475h0.46h0.45h0.435h0.42h0.404h0.39h0.372h0.352h0.332h0.313h0.29h0.267h0.241
				h0.22h0.193h0.164h0.097H208.681L208.681,256.379z M224.095,332.64h5.687v-5.42h-5.687V332.64L224.095,332.64z M229.784,326.208
				c0.034-0.534,0.479-0.954,1.02-0.954h6v-6.56h-12.709v7.514H229.784L229.784,326.208z M237.817,325.254h6.698
				c0.541,0,0.983,0.42,1.017,0.954h5.658v-7.514h-13.374L237.817,325.254L237.817,325.254z M245.537,327.22v5.42h5.653v-5.42
				H245.537L245.537,327.22z M224.095,317.682h5.687v-5.532h-5.687V317.682L224.095,317.682z M229.783,311.138
				c0.028-0.538,0.476-0.966,1.021-0.966h5.958v-6.628h-12.667v7.594L229.783,311.138L229.783,311.138z M237.817,310.171h6.698
				c0.545,0,0.99,0.427,1.019,0.965l5.657,0.001v-7.595h-13.374L237.817,310.171L237.817,310.171z M245.537,312.149v5.532h5.653
				v-5.532H245.537L245.537,312.149z M224.095,302.53h5.713v-5.372h-5.713V302.53L224.095,302.53z M230.82,297.158v5.372h13.695
				v-5.409h-3.41c-0.546,0-0.991-0.423-1.021-0.955h-5.181c-0.03,0.531-0.474,0.955-1.02,0.955h-0.025h-2.302v0.037H230.82
				L230.82,297.158z M226.288,296.146l-0.001-0.035v-7.603h-2.191v7.638H226.288L226.288,296.146z M234.907,288.507v6.647h1.897
				v-6.647H234.907L234.907,288.507z M240.083,295.154v-6.647h-2.266l0,6.647H240.083L240.083,295.154z M248.704,288.507v7.602
				h2.486v-7.602H248.704L248.704,288.507z M247.694,297.121l-0.013,0h-0.025h-2.129v5.409h5.664v-5.409H247.694L247.694,297.121z
				 M224.095,287.495h2.191v-4.818v-0.009h0.004c0-0.241,0.013-0.479,0.033-0.713h-2.228V287.495L224.095,287.495z M226.474,280.942
				c0.188-0.878,0.521-1.669,0.952-2.317c0.78-1.171,1.898-1.902,3.163-1.906v-0.003h0.008h0.006v0.003
				c1.265,0.004,2.386,0.735,3.167,1.909c0.279,0.422,0.514,0.904,0.699,1.433h2.335v-6.545h-12.709v7.426H226.474L226.474,280.942z
				 M234.745,281.073c0.101,0.506,0.157,1.039,0.158,1.585h0.004v0.019v4.818h5.175v-4.818v-0.009h0.004
				c0.001-0.551,0.053-1.087,0.154-1.596H234.745L234.745,281.073z M240.517,280.061c0.186-0.53,0.423-1.013,0.705-1.436
				c0.779-1.171,1.897-1.902,3.163-1.906v-0.003h0.008h0.006v0.003c1.266,0.004,2.388,0.735,3.167,1.909
				c0.431,0.648,0.759,1.438,0.949,2.314h2.676v-7.426h-13.374l0,6.545H240.517L240.517,280.061z M248.666,281.956
				c0.021,0.229,0.033,0.466,0.033,0.703h0.005v0.019v4.818h2.486v-5.54H248.666L248.666,281.956z M224.095,272.428h5.687v-5.419
				h-5.687V272.428L224.095,272.428z M245.537,267.009v5.419h5.653v-5.419H245.537L245.537,267.009z M224.095,265.998h5.688
				c0.028-0.54,0.476-0.967,1.021-0.967h6.978v-6.534h-13.403c-0.08,0.08-0.176,0.148-0.283,0.199V265.998L224.095,265.998z
				 M224.634,257.485h26.708c0-0.112,0.021-0.223,0.061-0.335c0.024-0.072,0.059-0.137,0.098-0.199l-0.001,0l3.375-5.464h-35.308
				l4.844,5.609c0.084,0.09,0.149,0.195,0.196,0.316L224.634,257.485L224.634,257.485z M251.19,258.497h-12.398l0,6.534h5.722
				c0.545,0,0.991,0.427,1.019,0.967h5.657V258.497L251.19,258.497z M194.834,331.631h7.542v-7.291h-7.542V331.631L194.834,331.631z
				 M204.43,331.631h1.066c-0.001-0.18,0.044-0.36,0.143-0.526c0.192-0.318,0.532-0.495,0.876-0.496l0.003-6.269h-2.089V331.631
				L204.43,331.631z M268.77,330.621c0.298,0.041,0.579,0.216,0.742,0.495c0.096,0.163,0.138,0.338,0.136,0.515h1.313v-7.291h-2.111
				l-0.082-0.006L268.77,330.621L268.77,330.621z M273.014,331.631h7.542v-7.291h-7.542V331.631L273.014,331.631z M268.768,322.305
				l0.082-0.001h11.706v-4.899H272l-0.012,0.001l-0.013-0.001h-3.125l-0.084-0.005L268.768,322.305L268.768,322.305z
				 M268.764,315.37l0.085-0.003h2.119v-4.356h-2.119l-0.086-0.004L268.764,315.37L268.764,315.37z M268.762,308.977l0.087-0.002
				h3.006c0.042-0.006,0.087-0.008,0.132-0.008c0.044,0,0.085,0.001,0.128,0.008h8.439v-5.011h-8.455
				c-0.039,0.005-0.075,0.008-0.113,0.008c-0.039,0-0.078-0.003-0.115-0.008h-3.023l-0.089-0.005L268.762,308.977L268.762,308.977z
				 M268.76,301.93l0.09-0.002h2.113v-4.9h-2.113l-0.093-0.006L268.76,301.93L268.76,301.93z M268.757,294.996l0.093-0.004h2.825
				c0.099-0.031,0.205-0.046,0.313-0.046s0.211,0.015,0.309,0.046h8.259v-4.356h-8.455c-0.039,0.004-0.075,0.007-0.113,0.007
				c-0.039,0-0.078-0.003-0.115-0.007h-3.023l-0.095-0.006L268.757,294.996L268.757,294.996z M268.754,288.603l0.095-0.004h2.113
				v-4.577h-2.113l-0.098-0.006L268.754,288.603L268.754,288.603z M268.751,281.988l0.098-0.003h3.006
				c0.042-0.007,0.087-0.008,0.132-0.008c0.044,0,0.085,0.001,0.128,0.008h8.439v-4.9h-7.881l-0.067,0.004l-0.072-0.004h-3.686
				l-0.1-0.006L268.751,281.988L268.751,281.988z M268.749,275.052l0.101-0.004h2.735v-4.355h-2.735l-0.103-0.006L268.749,275.052
				L268.749,275.052z M268.746,268.66l0.104-0.003h3.686l0.072-0.004l0.067,0.004h7.881v-6.283h-11.794l0.064,0.379
				c0.034,0.21,0.001,0.413-0.082,0.592L268.746,268.66L268.746,268.66z M280.556,270.693h-6.926v4.355h6.926V270.693
				L280.556,270.693z M280.556,284.021h-7.542v4.577h7.542V284.021L280.556,284.021z M280.556,297.028h-7.542v4.9h7.542V297.028
				L280.556,297.028z M280.556,311.011h-7.549v4.356h7.549V311.011L280.556,311.011z M194.834,322.303h11.685l0.001-4.899h-3.104
				l-0.014,0.001l-0.013-0.001h-8.556V322.303L194.834,322.303z M194.834,315.367h7.549v-4.356h-7.549V315.367L194.834,315.367z
				 M194.834,308.975h8.448l0.12-0.008l0.124,0.008h2.999l0-5.011h-3.009c-0.038,0.005-0.075,0.008-0.113,0.008
				s-0.077-0.003-0.116-0.008h-8.452V308.975L194.834,308.975z M206.523,311.011h-2.102v4.356h2.1L206.523,311.011L206.523,311.011z
				 M194.834,301.928h7.543v-4.9h-7.543V301.928L194.834,301.928z M194.834,294.992h8.261c0.097-0.031,0.202-0.046,0.307-0.046
				c0.106,0,0.207,0.016,0.304,0.046h2.823l0.002-4.356h-3.012c-0.039,0.004-0.078,0.007-0.117,0.007s-0.075-0.003-0.113-0.007
				h-8.455V294.992L194.834,294.992z M206.529,297.028h-2.101v4.9h2.099L206.529,297.028L206.529,297.028z M194.834,288.599h7.543
				v-4.577h-7.543V288.599L194.834,288.599z M194.834,281.985h8.448c0.04-0.005,0.079-0.008,0.12-0.008
				c0.042,0,0.084,0.003,0.124,0.008h3.009l0.001-4.9h-3.683l-0.071,0.004l-0.068-0.004h-7.88V281.985L194.834,281.985z
				 M206.534,284.021h-2.105v4.577h2.105L206.534,284.021L206.534,284.021z M201.76,275.048v-4.355h-6.926v4.355H201.76
				L201.76,275.048z M203.806,270.693v4.355h2.732l0.001-4.355H203.806L203.806,270.693z M194.834,268.656h7.846l0.102-0.004
				l0.106,0.004h3.651l0.002-4.156c-0.093-0.204-0.123-0.437-0.063-0.67l0.374-1.458h-12.019V268.656L194.834,268.656z
				 M188.698,238.001l0.431-0.001l0.07-0.004c0.564,0,1.023,0.458,1.023,1.022v3.832v0.015h-0.005
				c0.003,0.412,0.129,0.783,0.333,1.055l0.042,0.049c0.182,0.222,0.416,0.363,0.651,0.363v-0.005h0.005h0.011v0.005
				c0.236-0.003,0.468-0.141,0.648-0.36c0.229-0.278,0.372-0.673,0.373-1.113h-0.004v-0.008v-3.846h0.004
				c0-0.563,0.457-1.019,1.018-1.019l3.495-0.009v-0.003h3.835c0.564,0,1.023,0.458,1.023,1.021v3.856v0.015h-0.003
				c0.001,0.412,0.128,0.783,0.331,1.055l0.042,0.049c0.182,0.222,0.416,0.363,0.65,0.363v-0.005h0.007h0.009v0.005
				c0.237-0.003,0.468-0.141,0.649-0.36c0.228-0.278,0.372-0.673,0.372-1.113h-0.004v-0.008v-3.855h0.004v-0.004
				c0.001-0.377,0.21-0.707,0.517-0.882v-2.039v-9.828h-15.53v9.828V238.001L188.698,238.001z M227.13,234.885v5.987h6.673v-5.987
				H227.13L227.13,234.885z M240.786,234.885v5.987h6.674v-5.987H240.786L240.786,234.885z M210.353,256.919l-1.409,5.494
				l12.999-5.061l-3.957-4.58L210.353,256.919L210.353,256.919z M266.528,261.386l-0.74-4.444l-9.319-4.164l-2.572,4.166
				L266.528,261.386L266.528,261.386z M248.487,233.862h0.007v-5.595h-4.596v0.005h-6.655v3.871v1.719v1.023h2.521
				c0-0.564,0.458-1.023,1.022-1.023h6.674c0.564,0,1.022,0.459,1.022,1.023h0.005V233.862L248.487,233.862z M236.21,233.862v-1.719
				v-3.871h-5.84v-0.005h-4.597v3.876v1.719v1.023h0.335c0-0.564,0.458-1.023,1.022-1.023h6.673c0.564,0,1.022,0.459,1.022,1.023
				h1.384V233.862L236.21,233.862z M241.004,221.269v0.759c0,0.357-0.293,0.65-0.65,0.65h-6.513c-0.358,0-0.65-0.293-0.65-0.65
				v-0.759v-0.546h-1.801v0.893v1.828v3.782h4.819h1.033h5.565v-5.61h-0.003v-0.893h-1.801V221.269L241.004,221.269z
				 M229.101,175.798c-0.049,0.01-0.097,0.02-0.145,0.028C229.004,175.818,229.052,175.809,229.101,175.798L229.101,175.798z
				 M217.72,188.577v-12.266c0-1.048,1.318-2.806,2.472-4.375c1.154-1.568,3.792-2.476,3.709-0.414
				c-0.082,2.064,0.577,4.264,2.143,4.264h3.105c0.898-0.213,1.591-0.806,1.591-2.282c0-3.136-0.082-4.375,2.225-4.458
				c2.309-0.082,7.829,0.166,7.829,0.166s1.982,0.163,1.774,1.774c-0.208,1.61,0.041,3.014,0.041,3.014s-0.166,1.786,2.636,1.786
				c2.801,0,3.873-0.879,4.038-2.613c0.166-1.732,0.082-4.54,1.979-3.382c1.895,1.155,3.625,2.641,4.036,3.465
				c0.412,0.827,0.742,1.509,0.742,2.53v12.79H217.72L217.72,188.577z M218.939,192.074c-0.479-0.524-0.948-1.308-1.219-2.483
				h38.318c0,0-0.158,1.513-0.565,2.213c-0.056,0.095-0.118,0.188-0.183,0.278c-0.031-0.005-0.061-0.008-0.095-0.008H218.939
				L218.939,192.074z M184.14,220.796h24.684v0.002c0.379-0.284,0.626-0.733,0.626-1.24v-9.416c0-2.2-1.152-3.839-3.349-3.965
				c-2.356-0.137-1.88,3.821-1.88,5.793c0,1.375-1.125,2.499-2.5,2.499l0,0c-1.374,0-2.499-1.124-2.499-2.499v-5.83h-5.438
				c0,1.942,0,3.886,0,5.83c0,1.375-1.124,2.499-2.498,2.499l0,0c-1.376,0-2.5-1.124-2.5-2.499v-3.961
				c0.053-1.868-1.206-1.868-1.81-1.868c-1.924,0-3.499,1.574-3.499,3.499v9.856C183.478,220.029,183.738,220.501,184.14,220.796
				L184.14,220.796z M188.35,225.279c0.108-0.041,0.227-0.06,0.349-0.06h15.53c0.37,0,0.692,0.195,0.872,0.491l-0.002-0.004
				l2.796-4.061l-22.798-0.05L188.35,225.279L188.35,225.279z M217.774,237.394l-7.274,4.274v12.853l7.235-3.93l0.001,0.001
				l0.038-0.02V237.394L217.774,237.394z M256.482,250.555l0.005,0.001v-0.001l9.192,4.106l-0.068-12.467l-9.128-5.325V250.555
				L256.482,250.555z M268.864,206.16c-1.924,0-3.499,1.574-3.499,3.5v9.855c0,0.888,0.727,1.616,1.614,1.616h22.806
				c0.854,0,1.552-0.698,1.552-1.553v-9.416c0-2.199-1.151-3.838-3.349-3.965c-2.356-0.137-1.88,3.821-1.88,5.792
				c0,1.375-1.125,2.5-2.499,2.5l0,0c-1.376,0-2.5-1.125-2.5-2.5v-5.829h-5.438c0,1.943,0,3.887,0,5.829c0,1.375-1.125,2.5-2.5,2.5
				l0,0c-1.375,0-2.5-1.125-2.5-2.5v-3.96C270.727,206.16,269.466,206.16,268.864,206.16L268.864,206.16z M270.413,225.499
				c0.182-0.16,0.415-0.259,0.674-0.259h15.531c0.215,0,0.413,0.07,0.578,0.184l2.26-3.281l-22.007-0.002L270.413,225.499
				L270.413,225.499z M271.086,238.016v-1.926v-9.827h15.531v9.827v1.908c-0.561,0.001-1.018,0.454-1.019,1.014v0.004h-0.004v3.855
				v0.007h0.004c0,0.442-0.144,0.836-0.372,1.114c-0.182,0.22-0.413,0.358-0.649,0.36v-0.004h-0.011h-0.006v0.004
				c-0.235,0-0.47-0.14-0.65-0.363l-0.043-0.046c-0.202-0.272-0.329-0.644-0.332-1.056h0.004v-0.015v-3.856
				c0-0.564-0.458-1.023-1.022-1.023h-3.836v0.004l-3.495,0.01c-0.562,0-1.019,0.457-1.019,1.018h-0.003v3.847v0.007h0.003
				c-0.001,0.442-0.145,0.836-0.372,1.114c-0.18,0.22-0.412,0.358-0.649,0.36v-0.004h-0.01h-0.007v0.004
				c-0.235,0-0.469-0.14-0.651-0.363l-0.042-0.046c-0.203-0.272-0.33-0.644-0.332-1.056h0.003v-0.015v-3.833
				C272.109,238.474,271.651,238.016,271.086,238.016L271.086,238.016z M225.773,198.229v7.165h4.65v-0.003
				c0.015-0.044,0.033-0.087,0.054-0.129l0.008-0.013c0.024-0.047,0.052-0.092,0.084-0.133l0,0c0.054-0.072,0.117-0.137,0.188-0.193
				h0.001l0.026-0.019l0.016-0.012l0.022-0.015l0.016-0.012l0.001,0l0.016-0.009l0.003-0.003l0.012-0.007l0.009-0.007l0.008-0.004
				l0.014-0.007l0.003-0.004l0.005-0.001l0.023-0.012l0.012-0.005l0.011-0.006l0.012-0.003l0.006-0.004l0.036-0.014l0.004-0.002
				l0.015-0.007l0.007-0.002l0.011-0.004h0.001l0.034-0.012h0.001l0.001,0l0.004-0.001l0.034-0.009l0.008-0.002l0.012-0.002
				l0.013-0.004l0.006-0.001l0.019-0.003h0.001l0.02-0.005h0.004l0.038-0.006l0.013-0.001h0.006l0.02-0.003h0.001l0.02-0.001
				l0.004-0.001h0.003l0.034-0.001h0.015h0.005h0.022l0.071,0.004h4.721v-6.481H225.773L225.773,198.229z M237.257,198.229v6.481
				h5.618c0.44,0,0.814,0.279,0.957,0.671h4.47v-7.152H237.257L237.257,198.229z M231.391,205.729v6.542h1.783v-1.288
				c0-2.37,1.782-4.309,3.959-4.309l0,0c2.178,0,3.961,1.939,3.961,4.309v1.247h0.371h1.345h0.066v-6.501H231.391L231.391,205.729z
				 M241.093,219.705h1.661c0.608,0,1.109,0.375,1.142,0.846h1.024h3.575v-4.357v-2.899h-5.686h-1.715V219.705L241.093,219.705z
				 M243.898,221.616v5.61h4.596v-5.61h-3.575H243.898L243.898,221.616z M230.37,227.226v-5.61h-1.019h-3.578v5.61H230.37
				L230.37,227.226z M226.03,213.245v0.01h-0.257v7.296h3.578h1.02c0.032-0.47,0.534-0.846,1.143-0.846h1.659v-5.396v-1.015v-0.05
				H226.03L226.03,213.245z M243.898,206.249v0.521v3.278v2.223h4.596v-2.223v-3.297v-0.502H243.898L243.898,206.249z
				 M225.774,206.249v0.521h-0.001v5.46h4.595v-2.183h0.002v-3.799H225.774L225.774,206.249z M177.665,141.252h119.112v291.397
				c-68.553-1.697-123.526-48.897-123.526-106.861c0-0.063,0.002-0.126,0.002-0.191h-0.002V144.754
				C173.25,142.828,175.238,141.252,177.665,141.252L177.665,141.252z M300.981,95.959c41.806,0,75.708,5.163,75.708,11.53
				c0,6.366-33.902,11.53-75.708,11.53c-41.805,0-75.708-5.164-75.708-11.53C225.273,101.123,259.176,95.959,300.981,95.959
				L300.981,95.959z M210.472,85.931c-0.391,0.126-0.811-0.087-0.938-0.478c-0.127-0.391,0.087-0.812,0.479-0.939
				c0.115-0.037,40.354-13.182,66.747-15.067c13.165-0.939,22.66-1.17,30.95-0.982c8.324,0.188,15.365,0.793,23.657,1.519
				l0.047,0.007l0.016,0.002V69.99c2.328,0.206,5.021,0.576,7.941,1.06c2.898,0.479,6.008,1.074,9.198,1.736
				c16.37,3.397,34.956,8.61,38.24,9.576c0.394,0.115,0.619,0.53,0.503,0.923c-0.114,0.395-0.53,0.62-0.923,0.504
				c-3.275-0.963-21.81-6.162-38.124-9.548c-3.172-0.658-6.261-1.248-9.132-1.724c-2.849-0.471-5.501-0.833-7.832-1.041v-0.001
				l-0.063-0.004c-8.311-0.728-15.365-1.334-23.559-1.52c-8.225-0.186-17.675,0.045-30.816,0.982
				C250.646,72.807,210.586,85.893,210.472,85.931L210.472,85.931z M228.221,86.686c1.473,0,2.667,1.194,2.667,2.666
				c0,1.473-1.194,2.666-2.667,2.666c-1.472,0-2.666-1.193-2.666-2.666C225.555,87.88,226.75,86.686,228.221,86.686L228.221,86.686z
				 M237.47,88.031l7.155-7.117l11.521,2.402l-8.655,7.14L237.47,88.031L237.47,88.031z M269.972,78.247
				c2.377,0,4.304,1.928,4.304,4.305c0,2.378-1.927,4.305-4.304,4.305c-2.377,0-4.305-1.927-4.305-4.305
				C265.667,80.175,267.595,78.247,269.972,78.247L269.972,78.247z M371.991,86.686c1.472,0,2.667,1.194,2.667,2.666
				c0,1.473-1.195,2.666-2.667,2.666c-1.472,0-2.667-1.193-2.667-2.666C369.324,87.88,370.519,86.686,371.991,86.686L371.991,86.686
				z M363.516,88.031l-10.021,2.425l-8.656-7.14l11.521-2.402L363.516,88.031L363.516,88.031z M330.425,78.247
				c2.378,0,4.305,1.928,4.305,4.305c0,2.378-1.927,4.305-4.305,4.305c-2.376,0-4.305-1.927-4.305-4.305
				C326.121,80.175,328.049,78.247,330.425,78.247L330.425,78.247z M286.376,76.987h27.775c0.31,0,0.565,0.254,0.565,0.565v6.205
				c0,0.31-0.255,0.564-0.565,0.564h-27.775c-0.311,0-0.565-0.255-0.565-0.564v-6.205C285.812,77.241,286.066,76.987,286.376,76.987
				L286.376,76.987z M170.5,134.062h255.899h0.008v0.002c1.462,0.002,2.798,0.483,3.77,1.256c1.017,0.808,1.652,1.94,1.655,3.198
				h0.002v0.011v188.222l-0.003,0.072l0.001,0.117l-0.001,0.008h0.003v0.006h-0.002c-0.001,30.962-14.948,58.993-39.105,79.273
				c-24.118,20.249-57.432,32.777-94.215,32.78v0.003h-0.016h-0.007v-0.003c-36.787-0.002-70.105-12.531-94.226-32.782
				c-24.154-20.279-39.1-48.308-39.102-79.268h-0.004v-0.01l0.004-0.053l0.002-0.066l-0.007-0.077V138.454v-0.006h0.004
				c0.002-1.239,0.626-2.356,1.63-3.152c0.953-0.756,2.262-1.228,3.694-1.231v-0.002H170.5L170.5,134.062z M426.399,135.553H170.5
				h-0.015v-0.003c-1.082,0.002-2.063,0.351-2.769,0.912c-0.659,0.522-1.07,1.227-1.071,1.986h0.003v0.006v188.247v0.061
				l-0.002,0.122l0.002,0.064v0.01h-0.003v0.001c0.003,30.495,14.745,58.12,38.573,78.126
				c23.868,20.037,56.848,32.437,93.271,32.437v-0.003h0.007h0.016v0.003c36.418-0.001,69.393-12.399,93.259-32.437
				c23.832-20.007,38.574-47.632,38.577-78.13v-0.001h-0.004v-0.006h0.004l-0.002-0.108l-0.004-0.088l0.003-0.069V138.529v-0.011
				h0.004c-0.002-0.776-0.422-1.499-1.097-2.033c-0.724-0.576-1.732-0.935-2.844-0.936v0.003H426.399L426.399,135.553z
				 M336.922,278.35l0.016-0.04l0.001,0c0.204-0.476,0.741-0.731,1.245-0.571c1.172,0.37,1.975,0.34,2.328,0.293
				c1.092-0.955,6.357-5.791,6.156-10.115c-0.027-0.608-0.025-1.094,0.025-1.477l-0.006-0.061c-0.011-0.285,0.096-0.544,0.278-0.736
				c0.148-0.191,0.355-0.292,0.641-0.317l0.027-0.003l0.03-0.002h0.004c0.791-0.032,1.017,0.548,1.366,1.491
				c0.628,1.697,2.119,5.722,5.039,6.926l0.007,0.002l0.082,0.031l0.021,0.008l0.01,0.004v0.001
				c0.237,0.093,0.439,0.271,0.552,0.519c0.131,0.283-0.244,0.563-0.172,0.546l0.031-0.016c0.033-0.014,0.136-0.103,0.236-0.189
				c0.313-0.271,0.64-0.551,1.143-0.667c0.051-0.015,0.104-0.026,0.157-0.034l0.027-0.003v0.005c0.118-0.015,0.243-0.009,0.364,0.02
				c0.408,0.098,0.699,0.427,0.765,0.815c6.077-1.353,14.753-8.373,16.806-7.201c2.493,1.425,1.068,4.987,3.383,4.276
				c2.317-0.714,1.848-6.05,3.969-2.876c2.12,3.174,4.403,6.21,5.473,6.414c1.068,0.202,4.815,3.537,7.574,0
				c2.757-3.537,0.976-3.359-0.806-6.032c-1.781-2.672-3.206-3.562,0.357-5.166c3.563-1.604,5.522-6.414,3.919-6.948
				c-1.604-0.535-1.247,2.851-2.851,2.851c-1.603,0-6.08-3.052-5.354-5.356c0.724-2.304-2.661-4.264-2.661-4.264
				s4.276,0.89,5.344-3.563c1.069-4.453-2.851-9.263-3.741-9.798c-0.891-0.534,0.534-5.528,0-7.574
				c-0.535-2.045-2.494-2.224-3.563-5.609c-1.07-3.383,4.81-3.383,1.424-8.194c-3.384-4.81-5.466-9.497-5.466-9.497h-0.001
				l-0.005-0.002h-0.003c-0.041-0.021-0.244-0.124-0.571-0.268v0l-0.006-0.003c-1.543-0.623-5.644-1.6-6.179,5.375
				c-0.657,8.577-12.357,9.063-12.525,9.106h-0.005h-0.001l-0.003-0.002h-0.001l-0.006-0.005l-0.004-0.001l-0.008-0.003
				l-0.013-0.007l-0.001-0.001l-0.018-0.009l-0.008-0.003l-0.012-0.006l-0.023-0.011l0,0l-0.009-0.004l-0.034-0.017l-0.013-0.007
				l-0.033-0.015l-0.003-0.002l-0.032-0.013l-0.024-0.011l-0.014-0.007c-0.077-0.033-0.168-0.072-0.275-0.112l-0.008-0.004
				l-0.157-0.056l-0.012-0.005l-0.006-0.001l-0.009-0.004c-0.438-0.15-1.037-0.305-1.703-0.328l-0.047-0.002
				c-0.132-0.002-0.267,0-0.403,0.008h-0.014h-0.001l-0.134,0.011l-0.035,0.004c-0.193,0.02-0.389,0.052-0.586,0.101l-0.011,0.003
				l-0.016,0.003c-0.097,0.025-0.196,0.055-0.296,0.088v0.001l-0.005,0.001c-0.098,0.035-0.195,0.071-0.291,0.115l-0.011,0.004
				l-0.003,0.001l-0.018,0.008c-1.229,0.554-2.399,1.87-2.999,4.664c-1.602,7.482-1.602,13.36-4.63,14.429
				c-3.028,1.069-5.524-2.672-6.235,0c-0.713,2.672,2.671,4.633,1.781,7.66c-0.89,3.029-0.712,1.781-3.741,1.96
				c-3.027,0.177-3.049,3.478-2.859,6.994c0.188,3.516-4.323,6.811-4.979,8.861c-0.656,2.051-5.721,6.13-1.07,10.689
				C334.302,276.922,335.716,277.819,336.922,278.35L336.922,278.35z M357.125,275.847c3.203-0.604,6.969-2.705,10.268-4.547
				c3.047-1.701,5.642-3.151,6.201-2.832l0.037,0.022c0.79,0.475,1.022,1.404,1.21,2.162c0.054,0.218,0.106,0.426,0.173,0.647
				c0.397,1.293,0.985,2.08,2.769,1.532c1.476-0.453,2.055-1.889,2.533-3.069l0.018-0.056c0.171-0.424,0.321-0.787,0.346-0.802
				c0.215-0.145-0.278,0.338-0.073,0.643l0.053,0.08c0.343,0.511,0.65,0.963,0.903,1.328c0.284,0.407,0.588,0.834,0.907,1.27
				c0.972,1.328,1.928,2.479,2.763,3.239c1.535,4.936,2.772,11.379,5.541,14.763c1.96,2.396,6.07,5.556,9.408,12.348
				c-0.108,0.051-0.206,0.123-0.288,0.204v-0.001l0,0.001c-0.189,0.188-0.29,0.435-0.299,0.684v0.025
				c-0.002,0.182,0.042,0.366,0.135,0.529c0.43,0.947,0.853,1.981,1.256,3.111c0.417,1.165,0.803,2.399,1.149,3.707
				c0.141,0.542,0.698,0.867,1.238,0.729c0.134,0.543,0.259,1.104,0.381,1.677c1.711,8.119,1.527,14.21,1.021,18.032l0.001,0.002
				c0.63,3.345,2.961,4.947,5.31,3.702c2.348-1.244,2.348,1.105-0.829,4.559c-3.178,3.454-5.94,1.382-7.874,0.553
				c-1.935-0.831-1.244,1.657,0.829,3.039c2.072,1.381,6.078,8.428,6.63,11.19c0.553,2.763-2.347,0.689-3.454,0
				c-1.104-0.691-1.586,3.048-0.414,5.083c1.171,2.034,1.934,7.903,0.828,9.423c-1.105,1.52-2.209-0.554-4.281-0.968
				c-2.073-0.413-6.771,4.283-6.633,6.631c0.139,2.35-1.381,3.179-3.04,3.73c-1.657,0.553-1.934-4.145-2.9-2.349
				c-0.968,1.797-1.796,1.52-3.592,0.968c-1.796-0.553-0.276-3.039-1.935-1.796c-1.658,1.243-3.867,0.138-2.486-2.487
				c1.383-2.624,6.771-4.974,10.914-4.697c2.086,0.14,2.703-1.647,2.801-3.455c-0.524-0.72-1.074-1.369-1.405-1.864
				c-1.234-1.854-1.853-5.872-0.308-8.652c1.544-2.783-0.926-4.636-4.327-6.182c-3.399-1.545-4.325,4.635-8.961,5.253
				c-4.636,0.618-10.198-3.399-10.506-10.507c-0.066-1.535,0-3.144,0.205-4.791c0.334-0.148,0.544-0.233,0.547-0.234
				c0.132-0.053,0.248-0.129,0.342-0.226l0.002,0.003v-0.001c0.179-0.177,0.275-0.403,0.295-0.635
				c0.124-0.747,0.282-1.506,0.469-2.268c0.185-0.757,0.412-1.54,0.675-2.341c1.328-4.02,3.562-8.062,6.872-11.688l0.008-0.009
				c0.688-0.755,1.207-1.521,1.579-2.286c0.379-0.78,0.611-1.565,0.721-2.344c0.542-3.862-1.98-7.362-4.045-9.517
				c-0.119-0.124-0.264-0.209-0.417-0.258v-0.002l-0.245-0.082l-0.008-0.002l0.001-0.001c-0.307-0.099-0.882-0.278-1.68-0.47
				c-0.418-0.356-0.687-0.549-0.687-0.549s-9.58-0.619-16.687-8.035c-1.461-1.522-2.214-3.791-2.493-6.43
				c0.107-0.072,0.213-0.126,0.314-0.171c0.403-0.174,0.633-0.576,0.611-0.991h0.003c-0.119-2.136,0.043-4.492,0.373-6.868
				C356.199,280.084,356.639,277.899,357.125,275.847L357.125,275.847z M347.615,267.408c-0.081-0.02-0.083-0.035,0.054-0.045
				c-0.157-4.096,0.845,5.334,6.148,7.371c1.022,2.227,1.546,0.37,2.445,0.229l0.026-0.003c-1.115,4.546-2.029,9.805-1.782,14.223
				c-0.766,0.332-1.627,1.087-2.244,2.73c-1.377,3.672-1.989,3.366-3.826,2.908c-1.836-0.459-5.201,2.6-8.569,5.355
				c-3.363,2.754-3.518,4.589-4.129,7.038c-0.611,2.447-3.213-1.225-4.437-2.296c-1.223-1.071-3.824-0.153-4.437,1.225
				c-0.611,1.376-1.376,2.294-3.059,2.907c-1.684,0.611-2.449-1.684-3.367-1.226c-0.918,0.46-2.295,3.672-5.201,3.213
				c-2.908-0.458-0.154-4.283,0-5.507c0.153-1.225-1.837-2.908-3.061-5.049c-1.224-2.143,5.966-2.448,9.027-1.989
				c3.059,0.458,3.825-2.448,5.661-5.507c1.835-3.062,4.437-3.214,4.743-1.531c0.305,1.683,1.837,0,1.837,0
				s3.518-9.485,3.977-11.474c0.064-0.278,0.221-0.712,0.456-1.265c1.901,0.604,3.088,0.27,3.088,0.27s6.971-5.79,6.724-11.11
				l-0.02-0.475L347.615,267.408L347.615,267.408z M358.651,241.433c-0.315-0.466-0.195-1.099,0.271-1.414
				c0.465-0.315,1.099-0.194,1.414,0.271c0.015,0.023,5.755,8.322,1.148,11.393l-0.002,0.002v0.002
				c-0.445,0.295-0.904,0.584-1.319,0.847c-2.253,1.417-2.928,1.844-1.987,6.285c0.413,1.951,0.791,3.146,1.049,3.968
				c0.624,1.979,0.706,2.24-0.436,4.383c-0.264,0.495-0.881,0.683-1.377,0.419c-0.494-0.264-0.684-0.881-0.419-1.376
				c0.736-1.381,0.685-1.549,0.285-2.818c-0.27-0.855-0.662-2.098-1.097-4.153c-1.237-5.83-0.284-6.431,2.897-8.433
				c0.372-0.234,0.78-0.492,1.279-0.824l0,0.002C363.22,248.065,358.662,241.45,358.651,241.433L358.651,241.433z M374.954,223.067
				c0.381-0.414,1.026-0.439,1.44-0.059c0.413,0.382,0.44,1.027,0.058,1.442c-0.007,0.009-3.015,3.182-1.851,4.993l0.008,0.012
				c0.395,0.612,0.937,1.164,1.456,1.692c1.685,1.711,3.211,3.265,1.627,6.589c-0.862,1.811-1.594,3.527-1.929,5.094
				c-0.308,1.455-0.278,2.794,0.318,3.987l0.027,0.069c0.203,0.402,0.431,0.814,0.649,1.212c1.372,2.507,2.479,4.529,0.292,7.445
				c-0.336,0.449-0.975,0.541-1.425,0.204c-0.447-0.336-0.54-0.975-0.203-1.425c1.399-1.867,0.574-3.378-0.452-5.25
				c-0.219-0.401-0.449-0.813-0.683-1.278l-0.034-0.066c-0.827-1.655-0.887-3.434-0.485-5.32c0.378-1.771,1.162-3.622,2.081-5.55
				c0.97-2.037-0.078-3.106-1.236-4.283c-0.596-0.604-1.214-1.234-1.722-2.02l-0.007-0.012
				C370.843,227.37,374.942,223.081,374.954,223.067L374.954,223.067z M361.963,219.404l0.001-0.005l-0.014-0.005l-0.006-0.002
				l0.002-0.001l-0.126-0.055l-0.033-0.011l0.001-0.001l-0.149-0.058l-0.032-0.011v-0.001l-0.157-0.057l-0.041-0.012l-0.004-0.001
				v-0.004c-0.247-0.084-0.545-0.172-0.885-0.244l-0.025-0.003l-0.007-0.001l-0.029-0.005c-0.32-0.063-0.674-0.113-1.05-0.125
				v-0.001l-0.048-0.001l-0.032,0v0l-0.199-0.001l-0.024,0.002v-0.002l-0.08,0.002l-0.019,0.002v-0.002l-0.041,0.002l-0.013,0v0
				l-0.044,0.002v-0.001h-0.001l-0.076,0.005v0l-0.017,0l-0.019,0.001l-0.1,0.008l-0.063,0.009v-0.002l-0.037,0.006l-0.004,0.001
				c-0.12,0.013-0.225,0.026-0.318,0.041c-0.102,0.017-0.214,0.041-0.333,0.07l0,0l-0.012,0.002l-0.006,0.002l-0.014,0.003
				l-0.021,0.005l-0.026,0.008l-0.007,0.002h-0.002v-0.002l-0.015,0.005l-0.011,0.004l-0.12,0.033l-0.039,0.014v-0.002l-0.118,0.038
				v-0.001l-0.005,0.002l-0.071,0.023h-0.002l-0.146,0.053l-0.039,0.017h-0.001l-0.144,0.061l-0.012,0.004l-0.03,0.015v-0.001
				l-0.017,0.008c-0.258,0.117-0.51,0.255-0.76,0.428c-0.691-0.946-1.256-2.532-3.693-1.836c-3.468,0.991-6.441-0.99-7.267-2.477
				c-0.823-1.487,2.478-4.954,3.965-3.963c1.486,0.991,2.145,1.651,3.465,1.982c1.322,0.329,2.973,1.815,4.955,1.651
				c1.981-0.166,2.641-5.614,0.825-7.265c-1.816-1.652,0-4.458-2.64-5.944c-2.644-1.486,0.495,5.283-4.625,1.816
				c-3.907-2.645-1.657-3.656-0.775-4.756c0.747,0.63,2.057,1.233,4.337,1.591c0.556,0.085,1.077-0.295,1.162-0.851
				c0.084-0.556-0.295-1.076-0.851-1.162c-3.876-0.606-3.599-1.233-3.599-1.233c0.134-0.409-0.001-0.841-0.313-1.102
				c0.756-0.52,1.855-0.743,1.855-0.743s9.412-0.66,13.706-0.496c4.292,0.166,9.411,3.137,9.411,3.137s3.633-0.99,5.119-0.164
				c1.485,0.825,2.807,4.623,0.825,7.429c-0.085,0.122-0.178,0.234-0.277,0.34c-0.083-0.104-0.187-0.188-0.3-0.252l0.001-0.004
				l-0.006-0.004l-0.076-0.036l0.001-0.002l-0.036-0.019l-0.033-0.014l-0.017-0.008l-0.073-0.029l-0.347-0.162l-0.008-0.005
				l-0.001-0.001c-0.037-0.021-0.078-0.04-0.117-0.055l-0.005-0.002l-0.072-0.026c-0.939-0.368-2.593-0.798-4.169-0.125
				c-1.597,0.682-3.027,2.436-3.331,6.398c-0.023,0.313-0.063,0.606-0.114,0.88c-1.178,6.219-9.645,7.123-11.218,7.261
				L361.963,219.404L361.963,219.404z M331.759,266.266c-1.742-0.684-3.741-1.628-5.907-2.548
				c-5.031-2.133-5.943-10.667-7.314-14.629c-1.373-3.962-1.068-4.876-3.811-4.876s-2.439-3.505-1.524-6.553
				c0.914-3.048,0.914-6.096-0.152-7.772c-1.067-1.675-1.678-2.742-1.525-4.419c0.153-1.676-0.304-2.589-1.067-5.028
				c-0.761-2.438,2.133-3.353,3.963-3.506c1.827-0.152,0.489,3.832,0.891,3.832c0.403,0,0.211-3.288,1.821-3.796
				c1.609-0.511,1.491,3.677,1.859,2.556c0.368-1.122,1.067-1.983,2.134-2.134c1.067-0.152,2.895,3.048,3.809,5.791
				c0.916,2.743-0.609,8.381-2.133,12.953c-1.523,4.571,0.915,7.467,2.133,9.601c1.219,2.134,4.571,3.961,6.857,4.115
				c2.287,0.152,3.657,2.59,3.657,4.419c0,0.543,0.973,0.991,2.334,1.354l0.014,0.299v0.003l0.004,0.083v0.008
				c0.041,1.801-1.558,3.736-2.896,5.357l-0.034,0.047c-0.907,1.098-1.708,2.074-2.004,2.999l-0.001,0.004l-0.002-0.001
				l-0.006,0.017l-0.002,0.009c-0.119,0.34-0.469,0.862-0.869,1.462l-0.037,0.063L331.759,266.266L331.759,266.266z
				 M356.786,213.933c-1.322-1.43-3.762-3.861-5.733-4.685c-2.863-1.193-6.758,0.16-9.062,0.717
				c-2.306,0.558-6.756,1.434-9.299,0.478c-2.544-0.956-3.498-3.503-3.418-5.254c0.08-1.752,3.021-0.876,3.576,0.875
				c0.558,1.751,5.485,1.514,8.187,0.957c2.705-0.559,8.107-1.115,11.764-0.161c2.459,0.643,4.648,2.942,5.816,4.38
				c-0.013,0.443-0.072,0.882-0.166,1.284c-0.134,0.575-0.336,1.059-0.587,1.335c-0.078,0.085-0.149,0.14-0.199,0.143
				C357.37,214.025,357.078,213.995,356.786,213.933L356.786,213.933z M376.075,306.824c2.661,2.774,6.146,7.911,1.719,12.76
				c-4.755,5.208-7.353,11.244-8.281,16.896l0,0c0,0-4.512,1.854-5.207,3.446c-0.696,1.594,3.28,7.171,3.28,11.354
				c0,4.184-5.369,7.57-6.808,7.817c-1.441,0.248-0.847-4.231-1.444-1.442c-0.596,2.788-3.081,1.693-3.279,0.697
				s-1.493-4.979-1.99-1.394c-0.496,3.585-4.969,6.773-6.66,8.765c-1.689,1.991-2.883-0.101-2.982-1.196
				c-0.098-1.096-3.28-0.498-5.169,0.199c-1.888,0.697-1.591,2.888-2.783,3.686c-1.193,0.797-0.795-1.993-1.393-0.996
				c-0.596,0.996-0.895,1.194-3.181,1.094c-2.287-0.098-0.497-3.485-1.292-3.584c-0.795-0.1-0.398,1.693-2.287,1.792
				c-1.889,0.099-0.596-2.39-1.292-2.191c-0.695,0.2-0.795,0.598-2.685-0.896c-1.889-1.494,1.99-3.286,4.077-3.984
				c2.087-0.697,3.281-0.298,4.573-1.394c1.293-1.096,2.187-0.399,2.982,0c0.796,0.397-0.2,3.884,6.859,0.996
				c7.059-2.889,6.065-9.859,6.662-11.154c0.596-1.296-0.397-2.292-1.491-3.187c-1.094-0.896-0.796-2.489-0.1-4.184
				c0.696-1.693-2.385-2.988-5.268-7.967c-2.883-4.979,1.666-13.403,2.485-14.54c0.817-1.136,0.199-3.187-1.094-4.381
				c-1.293-1.195,0.597-3.287,1.889-1.295c1.293,1.991,3.778,0,3.778,0s-0.689-0.973,3.181-3.386
				C363.704,302.397,376.007,306.803,376.075,306.824L376.075,306.824z M383.877,174.381c-1.52,0.832-7.725-3.233-4.851-4.672
				c2.875-1.436,6.467,1.797,6.467,1.797s-1.437-3.592-0.719-5.748c0.719-2.156,2.875-0.541,4.491,2.156
				c1.618,2.693,2.875,2.874,8.803,6.647c5.93,3.771,13.654,15.091,13.654,21.379c0,6.288-2.833,25.691-3.014,29.104
				c-0.179,3.412,1.079,9.301,4.271,10.06c3.193,0.758-1.616,13.115-2.336,18.865c-0.717,5.749,3.235,11.498,7.006,19.941
				c3.774,8.443,1.618,21.378-1.616,27.667c-2.26,4.394-9.04,7.515-12.916,8.998c-0.717-2.707-1.574-5.042-2.505-7.073l0.002,0
				c0,0,9.491-1.924,11.646-5.337c2.157-3.414,2.874-15.271-0.718-22.996c-3.595-7.726-7.007-21.559-6.289-25.512
				c0.718-3.952,4.131-8.803,3.054-10.419c-1.078-1.618-2.515-8.624-2.874-11.679c-0.359-3.053,2.695-16.708-0.18-30.721
				c-2.875-14.015-7.188-14.912-12.576-17.607c-5.39-2.694-7.187-1.258-10.061,0.539c-2.875,1.796-3.773,3.594-4.312,0.539
				C377.769,177.255,383.877,174.381,383.877,174.381z"/>
		</g>
	</g>
</g>
</svg>
