<?xml version="1.0" encoding="utf-8"?>
<!-- Generator: Adobe Illustrator 22.1.0, SVG Export Plug-In . SVG Version: 6.00 Build 0)  -->
<svg version="1.1" id="Layer_1" xmlns="http://www.w3.org/2000/svg" xmlns:xlink="http://www.w3.org/1999/xlink" x="0px" y="0px"
	 viewBox="0 0 204.7 213.3" style="enable-background:new 0 0 204.7 213.3;" xml:space="preserve">
<style type="text/css">
	.st0{fill-rule:evenodd;clip-rule:evenodd;fill:#FFFFFF;}
</style>
<path class="st0" d="M120.5,73.5L120.5,73.5L120.5,73.5z M57.2,152L57.2,152L57.2,152z M151.3,122.1L151.3,122.1L151.3,122.1
	c0.1-0.2,0.3-0.3,0.5-0.2c0.1,0,0.1,0.1,0.2,0.2l0,0l0,0l0,0l0,0v0c0,0.1,0.1,0.1,0.1,0.2l0,0l0,0c0.1,0.1,0.2,0.1,0.3,0
	c0.1,0,0.2-0.1,0.3-0.2l0,0h0l0,0l0,0c0.1-0.1,0.1-0.2,0.1-0.3c0-0.1-0.1-0.2-0.2-0.3l0,0l0,0h0h0l0,0l0,0l0,0v0l0,0
	c-0.1,0-0.1,0-0.2,0c-0.2,0-0.3-0.2-0.3-0.3l0,0L151.3,122.1z M152.1,121.1l-0.8,1l0,0l0,0l0,0l0,0c-0.1,0.1-0.2,0.2-0.3,0.2
	c-0.1,0-0.2,0-0.3-0.1l0,0l0,0l0,0c-0.1-0.1-0.2-0.2-0.2-0.3c0-0.1,0-0.2,0.1-0.4l0,0l0,0c0.1-0.1,0.1-0.1,0.2-0.2l0,0c0,0,0,0,0,0
	c0,0,0,0,0.1,0l0,0h0c0.1,0,0.3-0.1,0.3-0.3c0-0.1,0-0.1,0-0.2l0,0l0,0l0,0l0,0c0.1-0.1,0.2-0.2,0.3-0.2c0.1,0,0.2,0,0.3,0l0,0l0,0
	l0,0c0.1,0.1,0.1,0.1,0.2,0.2v0l0,0l0,0v0C152.1,121,152.1,121,152.1,121.1L152.1,121.1L152.1,121.1L152.1,121.1L152.1,121.1
	C152.1,121.1,152.1,121.1,152.1,121.1 M157.1,122L157.1,122L157.1,122c0.2,0,0.4,0.1,0.4,0.3c0,0.1,0,0.2-0.1,0.2l0,0l0,0l0,0l0,0
	l0,0l0,0l0,0c0,0.1,0,0.1,0,0.2l0,0v0c0,0.1,0.1,0.2,0.1,0.3c0.1,0.1,0.2,0.1,0.3,0.1l0,0v0l0,0l0,0c0.1,0,0.2-0.1,0.3-0.1
	c0.1-0.1,0.1-0.2,0.1-0.3v0l0,0l0,0l0,0l0,0v0c0-0.1,0-0.1-0.1-0.2c-0.1-0.2-0.1-0.4,0.1-0.5l0,0L157.1,122z M158.4,122l-1.3-0.1
	l0,0l0,0l0,0h0c-0.1,0-0.3,0-0.3-0.1c-0.1-0.1-0.1-0.2-0.1-0.3l0,0v0v0c0-0.1,0-0.2,0.1-0.3c0.1-0.1,0.2-0.1,0.3-0.1l0,0l0,0
	c0.1,0,0.2,0,0.3,0.1l0,0c0,0,0,0,0,0c0,0,0,0,0,0l0,0l0,0h0c0.1,0.1,0.3,0.1,0.4,0.1c0,0,0.1,0,0.2-0.1l0,0l0,0h0l0,0l0,0
	c0.1,0,0.3,0,0.3,0.1c0.1,0.1,0.1,0.2,0.1,0.3l0,0v0c0,0.1,0,0.2-0.1,0.3h0l0,0l0,0v0C158.5,122,158.5,122,158.4,122L158.4,122
	L158.4,122L158.4,122C158.5,122,158.4,122,158.4,122 M139.6,150.5L139.6,150.5L139.6,150.5c0.2,0.1,0.2,0.3,0.1,0.5
	c-0.1,0.1-0.1,0.1-0.2,0.1l0,0l0,0l0,0l0,0l0,0v0c-0.1,0-0.1,0.1-0.2,0.1l0,0l0,0c-0.1,0.1-0.1,0.2-0.1,0.3c0,0.1,0.1,0.2,0.2,0.3
	l0,0l0,0l0,0c0.1,0.1,0.2,0.1,0.3,0.1c0.1,0,0.2-0.1,0.3-0.2l0,0l0,0l0,0l0,0l0,0v0c0-0.1,0-0.1,0.1-0.2c0-0.2,0.2-0.3,0.4-0.3l0,0
	L139.6,150.5z M134.6,146.5L134.6,146.5L134.6,146.5c0.1-0.2,0.3-0.2,0.5-0.1c0.1,0.1,0.1,0.1,0.1,0.2v0l0,0l0,0l0,0l0,0l0,0
	c0,0.1,0.1,0.1,0.1,0.2l0,0l0,0c0.1,0.1,0.2,0.1,0.3,0.1c0.1,0,0.2-0.1,0.3-0.2l0,0l0,0l0,0c0.1-0.1,0.1-0.2,0.1-0.3
	c0-0.1-0.1-0.2-0.1-0.3l0,0l0,0h0l0,0l0,0l0,0l0,0h0h0c0,0-0.1,0-0.2-0.1c-0.2,0-0.3-0.2-0.3-0.4l0,0L134.6,146.5z M135.5,145.6
	l-0.9,0.9l0,0l0,0l0,0l0,0c-0.1,0.1-0.2,0.2-0.3,0.2c-0.1,0-0.2,0-0.3-0.1l0,0l0,0l0,0c-0.1-0.1-0.1-0.2-0.1-0.3
	c0-0.1,0-0.2,0.1-0.3l0,0l0,0l0,0c0.1-0.1,0.1-0.1,0.2-0.1l0,0c0,0,0,0,0.1,0c0,0,0,0,0.1,0v0l0,0h0c0.1,0,0.3-0.1,0.3-0.3
	c0-0.1,0-0.1,0.1-0.2l0,0l0,0l0,0l0,0c0.1-0.1,0.2-0.2,0.3-0.2c0.1,0,0.2,0,0.3,0.1l0,0l0,0h0c0.1,0.1,0.1,0.2,0.1,0.3h0l0,0l0,0
	l0,0C135.5,145.5,135.5,145.5,135.5,145.6L135.5,145.6L135.5,145.6L135.5,145.6C135.5,145.6,135.5,145.6,135.5,145.6 M140.5,151.4
	l-0.9-0.9l0,0l0,0l0,0l0,0c-0.1-0.1-0.2-0.2-0.2-0.3c0-0.1,0-0.2,0.1-0.3l0,0l0,0l0,0c0.1-0.1,0.2-0.1,0.3-0.2c0.1,0,0.2,0,0.3,0.1
	l0,0l0,0c0.1,0.1,0.1,0.1,0.2,0.2l0,0c0,0,0,0,0,0.1c0,0,0,0,0,0.1l0,0h0c0,0.1,0.1,0.3,0.3,0.3c0.1,0,0.1,0,0.2,0.1l0,0l0,0l0,0
	l0,0c0.1,0.1,0.2,0.2,0.2,0.3c0,0.1,0,0.2-0.1,0.3l0,0l0,0l0,0c-0.1,0.1-0.2,0.1-0.3,0.2h0l0,0h0h0v0
	C140.6,151.4,140.6,151.4,140.5,151.4L140.5,151.4L140.5,151.4L140.5,151.4C140.5,151.4,140.5,151.4,140.5,151.4 M106.9,168.8
	L106.9,168.8L106.9,168.8c0.2,0.1,0.2,0.3,0.1,0.5c-0.1,0.1-0.1,0.1-0.2,0.1l0,0l0,0l0,0l0,0l0,0c-0.1,0-0.1,0.1-0.2,0.1l0,0l0,0
	c-0.1,0.1-0.1,0.2-0.1,0.3c0,0.1,0.1,0.2,0.2,0.3l0,0v0l0,0l0,0c0.1,0.1,0.2,0.1,0.3,0.1c0.1,0,0.2-0.1,0.3-0.2l0,0l0,0l0,0v0l0,0
	l0,0l0,0h0c0,0,0-0.1,0.1-0.2c0-0.2,0.2-0.3,0.4-0.3l0,0L106.9,168.8z M107.8,169.7l-0.9-0.9l0,0l0,0l0,0l0,0
	c-0.1-0.1-0.2-0.2-0.2-0.3c0-0.1,0-0.2,0.1-0.3l0,0l0,0l0,0c0.1-0.1,0.2-0.1,0.3-0.2c0.1,0,0.2,0,0.3,0.1l0,0l0,0v0
	c0.1,0.1,0.1,0.1,0.2,0.2l0,0c0,0,0,0,0,0.1c0,0,0,0,0,0.1l0,0h0c0,0.1,0.1,0.3,0.3,0.3c0.1,0,0.1,0,0.2,0.1l0,0l0,0v0l0,0l0,0
	c0.1,0.1,0.2,0.2,0.2,0.3c0,0.1,0,0.2-0.1,0.3l0,0l0,0h0c-0.1,0.1-0.2,0.1-0.3,0.2h0l0,0h0h0C107.9,169.7,107.9,169.7,107.8,169.7
	L107.8,169.7L107.8,169.7C107.9,169.7,107.8,169.7,107.8,169.7 M95.3,170.2L95.3,170.2L95.3,170.2z M31.4,106.9
	c-0.2-0.1-0.2-0.3-0.1-0.5c0.1-0.2,0.3-0.2,0.5-0.1c0,0,1.4,1,3,1.1l-0.1-0.1l0,0l-0.2-0.3c-0.6-0.9-0.9-1.3-2.3-1.9
	c-1.6-0.7-2.9-0.9-2.9-0.9c-0.2,0-0.3-0.2-0.3-0.4c0-0.2,0.2-0.3,0.4-0.3c0,0,1.5,0.2,3.1,0.9c0.1,0.1,0.3,0.1,0.4,0.2
	c-0.9-2-2.8-3.3-2.8-3.3c-0.2-0.1-0.2-0.3-0.1-0.5c0.1-0.2,0.3-0.2,0.5-0.1c0,0,2.6,1.7,3.4,4.4c0.6,0.4,0.9,0.9,1.3,1.5l0.2,0.3
	l0,0c0.1,0.2,0.3,0.4,0.5,0.6c0,0,0,0,0.1,0.1L31.4,106.9z M35.7,107.6l-4.4-0.7c0,0,1.9,1.3,3.9,1.2c0.3,0.3,0.5,0.5,0.8,0.7
	c0.4,0.4,0.8,0.7,1,1.1c0.6,0.8,1.4,2.2,1.4,2.2c0.1,0.2,0.3,0.2,0.4,0.1c0.2-0.1,0.2-0.3,0.1-0.4c0,0-0.8-1.4-1.4-2.3
	c-0.2-0.2-0.4-0.5-0.6-0.7c0-2.8-2.1-5.1-2.1-5.1c-0.1-0.1-0.3-0.2-0.5,0c-0.1,0.1-0.2,0.3,0,0.5c0,0,1.6,1.8,1.9,4
	c-0.2-0.2-0.3-0.3-0.5-0.5L35.7,107.6z M56.7,108.2L56.7,108.2L56.7,108.2z M139.3,47.7h-38.9v95.1c22.4-0.6,40.3-16,40.3-34.9
	c0,0,0,0,0-0.1h0v-59C140.8,48.2,140.1,47.7,139.3,47.7 M89.5,85.1c0,0.1,0.1,0.1,0.2,0.2c0,0,0,0,0.1,0h0H90h7.1l0.1-0.4v-4.9
	c0,0,0.1-0.3-0.4-0.3c-0.1,0-0.5,0-1,0v1.3c0,0.4-0.3,0.8-0.7,0.8c-0.4,0-0.7-0.4-0.7-0.8v-1.3h-1.3l-1.1,0v1.3
	c0,0.4-0.3,0.8-0.7,0.8c-0.4,0-0.7-0.4-0.7-0.8v-1.3l-1,0c0,0-0.1,0-0.3,0V85v0V85.1z M89.5,85.6h0.3h0H90h7c0,0.1,0,0.2-0.1,0.2
	L95.9,87v22.8v0h0.3c0.4,0,0.8,0.3,0.8,0.8v4.5c0.2,0,0.3,0.1,0.4,0.2l0,0c0.1,0.1,0.2,0.2,0.2,0.4l0,0v0v0.6v0h0v0
	c0,0.2-0.1,0.3-0.2,0.4c-0.1,0.1-0.2,0.2-0.4,0.2c0,0,0,0,0,0h0v0h-6.7l-5.2,7.5c0,0.1-0.2,0.3-0.3,0.3H75c-0.2,0-0.3-0.1-0.3-0.3
	l-5.2-7.5h-6.7v0h0c0,0,0,0,0,0c-0.2,0-0.3-0.1-0.4-0.2c-0.1-0.1-0.2-0.3-0.2-0.4v0h0v0v-0.6v0c0,0,0,0,0-0.1c0-0.2,0.1-0.3,0.2-0.4
	c0.1-0.1,0.3-0.2,0.4-0.2v-4.5c0-0.4,0.3-0.8,0.8-0.8H64V87l-1.3-1.4h7.9c0.1,0,0.2-0.1,0.2-0.3l0.1-0.4c0,0,0-0.1,0-0.1h0v-4.9
	c0,0,0-0.1,0-0.1c0,0,0,0,0-0.1l2.5-1.5l0,0v0h2.3V69v-0.3v-2.4c0,0,0-0.1,0-0.1c-0.5-0.2-1.3-0.6-1.5-1.6h11.1
	c0.1,0-0.7,1.4-1.6,1.6c0,0,0,0,0,0v0v0v0v2.4V69v9.2h2.3v0c0.1,0,0.2,0,0.3,0l2.9,1.7l0,0v5.5c0,0.1,0.1,0.1,0.1,0.1H89.5z
	 M40.4,123.4L40.4,123.4L40.4,123.4L40.4,123.4c0.2,0.1,0.4,0.1,0.5,0.2c0.3,0.1,0.6,0.2,0.9,0.4c-0.5-1.4-1-2.7-1.3-3.4
	c-0.1-0.3-0.2-0.6-0.3-1c-0.2-0.2-0.4-0.5-0.6-0.8c-0.3-0.5-1.3-1.2-2.2-1.8c-0.2-0.1-0.3-0.2-0.5-0.3l-0.2-0.1
	c-0.3,0.3-0.6,0.4-1,0.4v0h0h0v0c-0.4,0-0.8-0.2-1.1-0.5c-0.3-0.3-0.4-0.7-0.4-1.1h0v0v0h0c0-0.4,0.2-0.8,0.5-1.1
	c0.3-0.3,0.7-0.4,1.1-0.4v0h0h0v0c0.4,0,0.8,0.2,1.1,0.5c0.3,0.3,0.4,0.7,0.4,1.1h0v0v0h0c0,0.2,0,0.4-0.1,0.6l0.2,0.1
	c0.2,0.1,0.3,0.2,0.5,0.3c0.7,0.5,1.5,1.1,2,1.6c-0.3-1.8-0.5-3.7-0.5-3.7h0l0,0c-0.4-0.1-0.9-0.2-1.5-0.4c-2-0.7-7.3-4.2-7.9-5.8
	c-0.5-1.7,0.3-1.8-0.6-1.8c-1,0-2-1.7-1.9-3.7c0.1-2,0.8-1.4,0.5-2.4c-0.3-1-1.8-2.8-1-3.2c0.7-0.4,1.7,1.5,2.5,1.7
	c0.8,0.2,1.9-0.3,2.7,0.4c0.4,0.3,1,0.8,1.8,1.5c0.1-1.3,0.5-2.1,1.2-2.7c1-0.9,1.6-2.8,1.7-3.9c0.1-1.1,1.2-0.2,1.4,0.8
	c0.2,1,1.3,1.3,2.2,2.7c0.9,1.4,0.3,1.4,0.8,2.8c0.4,1.4,1.4,2.1,1.9,0.5c0.4-1.6,0.2-2.9,2-3.3c1.8-0.4,1.9-1,2.9-1.7
	c0.9-0.8,2-0.4,1.2,1.1c-0.8,1.5,0.1,3.6,0.5,4.5c0.4,0.9-0.1,2.2-0.7,3.4c-0.6,1.3,1,1.8-0.2,3.3c-1.2,1.6-3.7,3.9-4.7,4.4
	c-1,0.5-3.3,1.6-3.3,1.6l0,0c-0.1,1-0.1,2.8,0.6,5.1c0.1-0.6,0.4-1,0.6-1.3c0.1-0.1,0.2-0.2,0.3-0.3l0,0c-0.1-0.2-0.2-0.4-0.2-0.7h0
	v0v0h0c0-0.4,0.2-0.8,0.5-1.1c0.3-0.3,0.7-0.4,1.1-0.4v0h0h0v0c0.4,0,0.8,0.2,1.1,0.5c0.3,0.3,0.4,0.7,0.4,1.1h0v0v0h0
	c0,0.4-0.2,0.8-0.5,1.1c-0.3,0.3-0.7,0.4-1.1,0.4v0h0h0v0c-0.4,0-0.7-0.1-1-0.3c0,0-0.1,0.1-0.1,0.2c-0.4,0.5-0.8,1.4-0.4,2.7
	c0,0.1,0,0.1,0,0.2c1.3,3,2.6,5.4,3.3,6.6c0.5,0.2,1.1,0.4,1.7,0.8c1.4,0.9,0.8,1.2,1.8,2.3c1,1.1,2.1,1.4,1.9-0.3
	c-0.2-1.7-0.9-2.8,0.6-3.8c1.5-1.1,1.4-1.6,2-2.7c0.6-1.1,1.7-1.1,1.5,0.6c-0.2,1.7,1.5,3.3,2.2,3.9c0.7,0.7,0.8,2,0.6,3.5
	s1.6,1.2,1.1,3.1c-0.6,1.9-1.9,5-2.6,5.9c-0.3,0.4-0.9,1-1.3,1.5c0.9,0.9,2.2,2,3,2.7c0.9,0.7,3.9,2.3,6.5,3.6
	c-0.1-1.1,0.3-2,0.6-2.5c0.1-0.1,0.2-0.2,0.3-0.3l0,0c-0.1-0.2-0.2-0.4-0.2-0.7h0v0v0h0c0-0.4,0.2-0.8,0.5-1.1
	c0.3-0.3,0.7-0.4,1.1-0.4v0h0h0v0c0.4,0,0.8,0.2,1.1,0.5c0.3,0.3,0.4,0.7,0.4,1.1h0v0v0h0c0,0.4-0.2,0.8-0.5,1.1
	c-0.3,0.3-0.7,0.4-1.1,0.4v0h0h0v0c-0.4,0-0.7-0.1-1-0.3c0,0-0.1,0.1-0.1,0.2c-0.3,0.5-0.7,1.3-0.4,2.4c1.2,0.6,2.2,1,3,1.3
	c1.3,0.5,3.4,1.6,5.1,2.5c0,0-0.1,0-0.1,0c0.8,0.2,1.7-0.3,3.1-0.1c1.6,0.2,1.3,0.6,2.7,1.2c1.4,0.6,2.5,0.2,1.5-1.1
	c-1-1.4-2.1-2-1.3-3.7c0.8-1.6,0.5-2.1,0.5-3.3c0-1.2,1-1.8,1.6-0.2c0.7,1.6,2.8,2.2,3.8,2.4c1,0.2,1.6,1.5,2.2,2.8
	c0.6,1.3,2,0.3,2.4,2.3c0.4,1.9,0.6,5.3,0.4,6.4c-0.1,0.6-0.3,1.4-0.5,2.2l0,0l0.6,0.1c0,0,5.9,3.8,10,6.9c4-3.1,10-6.9,10-6.9
	l0.1,0c0.1-0.3,2.3-5.9,6.7-9.7c4.5-4,7.8-4.1,9.2-5.1c1.4-1,4.2-4,4-2.7c-0.2,1.2-1,2.1-2.5,4.2c-1.5,2.1-4.6,5.9-4.6,5.9
	s2.5-0.4,4.4-0.7c1.3-0.7,4-2.2,5.6-3.2l0.2-0.1c0.7-1,0.9-2.6,1-3.1c-0.3,0-1-0.1-1.1-0.9c-0.3-1.1,0.9-1.3,0.9-1.3
	s0.2-0.8,1.1-0.7c0.9,0.1,1,1,1,1.1c0,0,0.9,0.4,0.6,1.3c-0.4,1.4-1.7,0.7-1.7,0.7l-0.2,0c-0.1,0.4-0.2,1.4-0.6,2.4
	c2.2-1.2,5-2.4,5-2.7c0,0,0,0,0-0.1l-0.1-0.1c0,0-0.5-6.1,1.8-11.7c2.3-5.6,5.2-7.1,6-8.6c0.8-1.5,2-5.4,2.4-4.2
	c0.3,1.2,0,2.4-0.4,4.9c-0.4,2.5-1.6,7.3-1.6,7.3s0.9-0.6,1.9-1.3c0.3-0.7,1.8-4,2.9-6.5c0.1-1.6-1.1-3.7-1.1-3.7c0-0.1,0-0.1,0-0.2
	c-0.3,0-1,0.1-1.3-0.8c-0.4-1.1,0.8-1.4,0.8-1.4s0.1-0.8,1-0.8c0.9,0,1.1,0.9,1.2,0.9c0,0,0.9,0.3,0.7,1.3c-0.2,1.4-1.6,0.9-1.6,0.9
	l-0.1,0c0.2,0.4,0.7,1.5,0.9,2.6l0.5-1c0.9-2,1.2-5.8,1.2-5.8c-0.7-1.1-3.4-5.6-4.1-10.8c-0.8-6,1-8.7,1-10.5c0-1.7-0.9-5.7,0-4.8
	c0.9,0.9,1.2,2,2.1,4.4c0.9,2.4,2.2,7.2,2.2,7.2s2-4.4,2.9-5.6c0.8-1.2,0.6-3,1.3-4.1c0.7-1.1,1.6-0.6,1.3,0.3
	c-0.3,0.9-0.7,2.7-0.6,4.1c0.1,1.3,0.3,3.9,0,5.4c-0.3,1.5-0.3,1.8-0.3,1.8s3-4.2,5.3-6.3c2.2-2.1,4.8-3,3.8-1.7c-1,1.3-2,3-2.7,5.8
	c-0.7,2.8-1.3,5.5-3.4,7.7c-2.1,2.2-7,7.7-7,7.7s-0.9,2.2-1.3,3.5c0,0.2-0.1,0.4-0.2,0.7c0.7-0.6,1.4-1.1,1.8-1.3
	c-0.2-0.2-0.5-0.8,0-1.5c0.7-0.9,1.6-0.2,1.6-0.2s0.7-0.4,1.3,0.4c0.6,0.7-0.1,1.5-0.1,1.5c0,0,0.3,0.9-0.6,1.3
	c-1.3,0.6-1.7-0.8-1.7-0.8l-0.1-0.2c-0.7,0.4-2.6,1.7-2.9,3c0,0.1-0.1,0.1-0.1,0.2c-0.8,2.4-1.8,5.3-1.9,5.8
	c0.3-0.2,0.6-0.4,0.8-0.5c1.3-0.6,2-2.3,3.1-3c1.2-0.6,1.7,0.2,1,0.8c-0.7,0.6-2,2-2.6,3.2c-0.6,1.2-1.7,3.5-2.7,4.7
	c-1,1.2-1.2,1.4-1.2,1.4s4.7-2.1,7.7-2.9c3-0.7,5.7-0.3,4.2,0.4c-1.5,0.7-3.3,1.6-5.2,3.7c-2,2.1-3.9,4.1-6.8,5
	c-2.9,0.8-9.9,3.2-9.9,3.2l-0.2-0.2c-0.4,0.3-1.7,1.4-3.2,2.2c0.8,0.1,1.6,0.3,1.9,0.4c0-0.1-0.1-1.1,0.9-1.3
	c1.1-0.3,1.3,0.9,1.3,0.9s0.8,0.2,0.7,1.1c0,0.9-1,1.1-1,1.1c0,0-0.4,0.9-1.3,0.6c-1.4-0.4-0.8-1.7-0.8-1.7l0,0
	c-0.5-0.1-2.1-0.5-3.4-0.3c-1.3,0.6-2.9,1.6-4,2.3c0.7-0.3,1.4-0.7,2.1-0.7c1.3-0.1,1.4,0.9,0.5,1.2c-0.9,0.2-2.6,1-3.7,1.8
	c-1.1,0.8-3,2.4-4.4,3.1c-1.4,0.7-1.7,0.8-1.7,0.8s5.2,0.1,8.2,0.8c3,0.6,5.2,2.2,3.6,2.2c-1.7-0.1-3.7,0.1-6.3,1.1
	c-2.7,1-5.3,2-8.3,1.5c-2.7-0.5-9.2-1.3-10.2-1.4l0,0c-0.5,0.2-0.9,0.4-1.4,0.6c-3,1.4-5.6,3-7.8,4.9c1.6-0.6,4-0.2,4.4-0.1l0,0
	c0,0-0.2-1.1,0.9-1.3c1.1-0.3,1.3,0.9,1.3,0.9s0.8,0.2,0.7,1.1c0,0.9-1,1.1-1,1.1c0,0-0.4,0.9-1.3,0.6c-1.3-0.3-0.8-1.5-0.8-1.7
	c-0.5-0.1-3.3-0.6-4.5,0.4c0.9,0.7,1.6,1.4,2,1.9c0.8,0.9,2.5,3.3,4.6,6.2c16-0.9,29.3-5,37.3-8.8c1.3-0.9-0.1-2.2-1.9-1.4
	c-3.1,0.7-5.1,0.8-5,0.5c-1,0-0.6-1.4,0.9-2.1c17.2-5.3,36.8-20.6,46-35.5c2.2-3.8,3.8-6.9-1.5-5.7c-1.1,0.5-2.5,1.8-3.7,1.2
	c-1.8-2.5-0.2-4.4,4.8-9.4c9.5-7.9,13.3-10.8,12.5-23.8c3.5,9,5.1,18-3.1,25.1c2.9,0,4.3,0.4,5.9,1c-5.6,3-6.4,5.6-7.7,8.5
	c1.4,1.3,5.6,3.9,7.1,5.3c2.2,1.7,1.3,3.6,0.6,4.9c-8.6,16.6-28.3,35-46.9,43.5c0.6,1.2,0,3.6-1,3.7c-9.7,4-20.6,7-31.9,8.7l0,0
	c0.5,0.5,1,1,1.4,1.3c5.6,5,17.8,11.8,23.7,11.7c5.9-0.1,4.7,2.5,3.9,3.2c-0.8,0.7-10.7-0.9-16.6-4.6c-4-2.5-9.8-6-15-11.3l0,0
	c-11.9,1.6-24.2,1.7-35.9,0c0.2,0,0.5,0.1,0.7,0.1c-5.2,5.2-10.9,8.8-14.9,11.2c-6,3.6-15.8,5.3-16.6,4.6c-0.8-0.7-2-3.3,3.9-3.2
	c5.9,0.1,18.1-6.7,23.7-11.7c0.4-0.4,0.9-0.8,1.4-1.3c0.5,0.1,0.9,0.1,1.4,0.2c-9.3-1.4-18.2-3.9-26.2-7.8c-1-0.5-1.6-2.7-1.2-3.9
	c-18.6-8.4-40.2-23.8-48.8-40.4c-0.7-1.3-1.6-3.2,0.6-4.9c1.5-1.3,5.9-4,7.3-5.3c-1.3-2.9-3.4-6.3-9.1-9.3c1.6-0.6,3.1-1,6-1
	c-6.1-5.3-6.3-9.8-6.5-15.5c0.5-3.7,1.7-7.2,2.6-9.7c0,3.4,0.1,7.6,0.8,11.5c3.2,6,7.6,8.3,13.9,13.2c4.9,5,5.7,6.9,4.3,9.5
	c-1.1-0.4-2.2-0.8-3.3-1.3c-4.2-0.3-3.3,2.2-1.5,5.7c9.1,14.9,27.9,27.1,46,32.1c1.1,0.1,2.1,1.9,1.2,2.1c-1.4,0.5-3.9-0.6-5.4,0.1
	c-0.4-0.2-4.2,0.2-1.9,1.2c11.2,4.5,22.1,6.8,32.4,7.6c2.1-2.8,3.7-5.1,4.5-6c0.5-0.6,1.4-1.4,2.4-2.2l-0.1-0.1
	c-1.2,0.9-2.4,0.8-3.1,0.6c-0.1,0-0.3-0.1-0.4-0.1l0,0c-0.2,0.2-0.3,0.3-0.6,0.4l0,0c-0.4,0.1-0.8,0.1-1.2,0l0,0
	c-0.3-0.2-0.6-0.5-0.8-0.8l0,0l0,0c-0.2-0.4-0.1-0.8,0-1.2l0,0c0.2-0.3,0.5-0.6,0.8-0.8l0,0l0,0h0v0c0.4-0.2,0.8-0.1,1.2,0l0,0
	c0.3,0.2,0.6,0.5,0.8,0.8l0,0c0.1,0.3,0.1,0.7,0,1c0.1,0,0.1,0,0.2,0.1c0.6,0.1,1.4,0.2,2.4-0.4c-2.3-2-4.8-3.6-7.9-5
	c-0.6-0.3-1.1-0.5-1.6-0.7c0.3,0.3-0.2,0.9-2,2.1c-1.8,1.1-7.9,3-9.5,2.4c-1.6-0.6-1.1-1.4-1.8-0.6c-0.6,0.7-2.6,0.5-4.1-0.9
	c-1.5-1.4-0.6-1.5-1.5-1.9c-1-0.4-3.2-0.4-3.1-1.2c0.2-0.8,2.3-0.3,2.9-0.8c0.6-0.5,1-1.6,2-1.9c0.5-0.1,1.4-0.2,2.4-0.5l-0.2,0
	c-0.9-0.9-1.3-1.8-1.4-2.6c-0.1-1.2-0.9-2.6-1.6-3.5l0,0.1c0,0-5.1-2-7.8-3.6c-0.4-0.1-1-0.2-1.8-0.3c-0.4,0-1.1,0-1.8,0.2
	c-0.7,0.1-1.4,0.3-1.9,0.4c0,0.3,0,0.5-0.1,0.7c0,0,0,0,0,0c-0.2,0.3-0.5,0.6-0.8,0.8l0,0c-0.4,0.1-0.8,0.1-1.2,0l0,0
	c-0.3-0.2-0.6-0.5-0.8-0.8l0,0l0,0c-0.2-0.4-0.1-0.8,0-1.2l0,0c0.2-0.3,0.5-0.6,0.8-0.8l0,0l0,0h0l0,0c0.4-0.2,0.8-0.1,1.2,0l0,0
	c0.3,0.1,0.5,0.4,0.7,0.6c0.5-0.1,1.3-0.3,2-0.4c0.8-0.1,1.6-0.2,2-0.2l0.1,0c-3.3-1.9-8.4-5.1-8.4-5.1c-0.4,0.2-1.2,0.4-2.5,0.5
	c-2.1,0.2-8.4-1-9.5-2.4c-1.1-1.3-0.4-1.8-1.3-1.4c-0.9,0.3-2.5-0.8-3.2-2.7c-0.6-1.9,0.2-1.6-0.5-2.4c-0.7-0.8-2.7-1.9-2.2-2.5
	c0.5-0.6,2.2,0.8,3,0.6c0.8-0.1,1.6-1,2.7-0.7c0.5,0.1,1.2,0.4,2.2,0.7c-0.4-1.2-0.4-2.2,0-3c0.6-1.3,0.4-3.2,0.1-4.3
	c-0.1-0.3-0.1-0.5,0.1-0.6l-0.5-1.2c-0.4-0.3-1-0.5-1.5-0.7c-0.2-0.1-0.3-0.1-0.4-0.1l0,0l-0.1,0c-0.1,0.1-0.1,0.2-0.2,0.2
	c-0.3,0.3-0.7,0.4-1.1,0.4v0h0h0v0c-0.4,0-0.8-0.2-1.1-0.5c-0.3-0.3-0.4-0.7-0.4-1.1h0v0v0h0c0-0.4,0.2-0.8,0.5-1.1
	c0.3-0.3,0.7-0.4,1.1-0.4v0h0h0v0c0.4,0,0.8,0.2,1.1,0.5c0.3,0.3,0.4,0.7,0.4,1.1h0v0v0h0C40.4,123.2,40.4,123.3,40.4,123.4
	 M77.5,159c-0.2,0.1-0.3,0.1-0.4,0.1C77.2,159.1,77.4,159.1,77.5,159 M155.2,105.2c0,0-1.1,4-1,6.6l0,0v0v0c0,0.4,0,0.7,0.1,1.1
	c0,0.3,0.1,0.7,0.1,1.1c0.2,1.9,0.5,3.6,0.6,3.8c0.1,0.2,0.2,0.3,0.4,0.2c0.2-0.1,0.3-0.2,0.2-0.4c-0.1-0.2-0.4-1.9-0.6-3.7
	c0-0.3-0.1-0.7-0.1-1.1c0-0.4-0.1-0.7-0.1-1.1l0,0c-0.1-2.4,1-6.4,1-6.4c0-0.2-0.1-0.4-0.2-0.4C155.4,104.9,155.2,105,155.2,105.2
	 M159.4,106.9c0,0-1.6,3.9-1.8,6.4c0,0.2,0.1,0.3,0.3,0.4c0.2,0,0.3-0.1,0.4-0.3c0.2-2.4,1.8-6.2,1.8-6.2c0.1-0.2,0-0.4-0.2-0.4
	C159.7,106.7,159.5,106.7,159.4,106.9 M146.3,134.4c0.1-0.1,0.3-0.1,0.5,0c0.1,0.1,0.1,0.3,0,0.5c0,0-2.8,3-3.9,5.1v0l0,0.1l0,0
	c-0.1,0.3-0.3,0.6-0.4,1c-0.1,0.3-0.3,0.7-0.4,1c-0.7,1.7-1.2,3.3-1.3,3.5c0,0.2-0.2,0.3-0.4,0.3c-0.2,0-0.3-0.2-0.3-0.4
	c0-0.2,0.6-1.9,1.3-3.6c0.1-0.3,0.3-0.7,0.4-1c0.1-0.3,0.3-0.7,0.4-1l0,0l0-0.1h0C143.4,137.4,146.3,134.4,146.3,134.4 M149.3,139
	c0,0-3.3,2.6-4.7,4.7c-0.1,0.2-0.1,0.4,0.1,0.5c0.2,0.1,0.4,0.1,0.5-0.1c1.4-2,4.6-4.5,4.6-4.5c0.1-0.1,0.2-0.3,0.1-0.5
	C149.6,138.9,149.4,138.9,149.3,139 M94,168.4c-0.1,0.2-0.1,0.4,0,0.7v0l0,0c0.1,0.2,0.3,0.4,0.4,0.5l0,0c0.2,0.1,0.4,0.1,0.7,0l0,0
	l0,0c0.2-0.1,0.3-0.2,0.4-0.3l0,0l0,0l0,0l0,0c0,0,0-0.1,0-0.1l0,0c0.1-0.2,0.1-0.4,0-0.7l0,0c-0.1-0.2-0.2-0.4-0.4-0.5l0,0
	c-0.2-0.1-0.4-0.1-0.7,0v0l0,0C94.2,168,94.1,168.2,94,168.4L94,168.4z M40.5,114.5L40.5,114.5L40.5,114.5L40.5,114.5L40.5,114.5
	L40.5,114.5z M44.4,127.2C44.5,127.2,44.5,127.2,44.4,127.2C44.5,127.2,44.5,127.2,44.4,127.2 M45.1,127.6c0,0,0.1,0,0.1,0.1
	C45.2,127.6,45.2,127.6,45.1,127.6 M38.9,122.3L38.9,122.3L38.9,122.3L38.9,122.3L38.9,122.3c-0.2,0-0.5,0.1-0.6,0.3
	c-0.2,0.2-0.3,0.4-0.3,0.6h0v0v0h0c0,0.2,0.1,0.5,0.3,0.6c0.2,0.2,0.4,0.3,0.6,0.3v0h0h0v0c0.2,0,0.5-0.1,0.6-0.3
	c0.1-0.1,0.1-0.2,0.2-0.3h0v0l0,0l0,0l0,0l0,0l0,0c0-0.1,0.1-0.2,0.1-0.3h0v0v0h0c0-0.2-0.1-0.5-0.3-0.6
	C39.3,122.4,39.1,122.3,38.9,122.3 M40.1,139.3c0,0,1.4-0.3,3.1-0.3c1.5,0.1,2,0.4,2.8,1l0.3,0.2l0,0h0c0,0,0.1,0.1,0.1,0.1
	c-1.5,0.5-3.2,0.1-3.2,0.1c-0.2,0-0.4,0.1-0.4,0.2c0,0.2,0.1,0.4,0.2,0.4c0,0,2.3,0.6,4.1-0.3c0.3,0.2,0.7,0.3,1,0.4
	c0.5,0.2,1,0.4,1.3,0.6c0.8,0.6,2.1,1.6,2.1,1.6c0.1,0.1,0.3,0.1,0.5,0c0.1-0.1,0.1-0.4,0-0.5c0,0-1.3-1-2.2-1.6
	c-0.3-0.2-0.5-0.3-0.8-0.4c-1-2.6-3.8-4-3.8-4c-0.2-0.1-0.4,0-0.5,0.1c-0.1,0.2,0,0.4,0.1,0.4c0,0,2.1,1.1,3.2,3.1
	c-0.3-0.1-0.5-0.2-0.8-0.3c0,0,0,0-0.1,0c-0.2-0.1-0.4-0.2-0.7-0.4l-0.3-0.2c-0.6-0.4-1.1-0.7-1.8-0.9c-1.7-2.2-4.7-2.8-4.7-2.8
	c-0.2,0-0.4,0.1-0.4,0.3c0,0.2,0.1,0.4,0.3,0.4c0,0,2.3,0.5,3.8,2c-0.1,0-0.3,0-0.4,0c-1.8-0.1-3.2,0.3-3.2,0.3
	c-0.2,0-0.3,0.2-0.3,0.4C39.8,139.2,40,139.3,40.1,139.3 M51.7,130c0,0,0.9,1.1,1.6,2.6c0.6,1.4,0.6,1.9,0.4,3l0,0.4v0h0
	c0,0.1,0,0.1,0,0.2c-1.1-1.1-1.5-2.8-1.5-2.8c0-0.2-0.2-0.3-0.4-0.3c-0.2,0-0.3,0.2-0.3,0.4c0,0,0.3,1.3,1.2,2.5
	c-0.4-0.3-0.8-0.6-1.3-0.9c-1.1-0.7-2.2-1.4-3-2.1l0,0l0,0h0c-1.8-1.4-2.9-2.9-2.9-2.9c-0.1-0.1-0.3-0.2-0.5-0.1
	c-0.1,0.1-0.2,0.3-0.1,0.5c0,0,1.2,1.5,3,3h0l0,0l0,0c0.8,0.6,2,1.4,3.1,2.1c1.3,0.8,2.4,1.6,2.6,1.8c0,0,0.1,0.1,0.1,0.1
	c0,0.2,0,0.3,0,0.4c0,0.5,0.1,1,0,1.5c-0.1,1-0.5,2.6-0.5,2.6c0,0.2,0.1,0.4,0.2,0.4c0.2,0,0.4-0.1,0.4-0.2c0,0,0.4-1.6,0.5-2.7
	c0-0.3,0-0.6,0-0.9c1.8-2.1,1.9-5.2,1.9-5.2c0-0.2-0.1-0.3-0.3-0.3c-0.2,0-0.3,0.1-0.3,0.3c0,0,0,2.4-1.3,4.3c0-0.3,0-0.6,0-0.8
	c0,0,0-0.1,0-0.1c0-0.2,0-0.5,0-0.7h0l0-0.4c0.1-0.8,0.2-1.3,0-2c1.2-2.5,0.4-5.5,0.4-5.5c0-0.2-0.2-0.3-0.4-0.2
	c-0.2,0-0.3,0.2-0.2,0.4c0,0,0.6,2.3-0.1,4.3c0-0.1-0.1-0.2-0.2-0.4c-0.8-1.6-1.7-2.8-1.7-2.8c-0.1-0.1-0.3-0.2-0.5,0
	C51.6,129.7,51.6,129.9,51.7,130 M43.7,116.1L43.7,116.1L43.7,116.1L43.7,116.1L43.7,116.1c-0.2,0-0.5,0.1-0.6,0.3
	c-0.2,0.2-0.3,0.4-0.3,0.6h0v0v0h0c0,0.2,0.1,0.4,0.2,0.5l0,0v0l0,0l0,0c0,0,0,0.1,0.1,0.1c0.2,0.2,0.4,0.3,0.6,0.3v0h0h0v0
	c0.2,0,0.5-0.1,0.6-0.3c0.2-0.2,0.3-0.4,0.3-0.6h0v0v0h0c0-0.2-0.1-0.5-0.3-0.6C44.2,116.2,44,116.1,43.7,116.1 M36.5,115.9
	L36.5,115.9L36.5,115.9c0.1-0.2,0.2-0.3,0.2-0.5h0v0v0h0c0-0.2-0.1-0.5-0.3-0.6c-0.2-0.2-0.4-0.3-0.6-0.3v0h0h0v0
	c-0.2,0-0.5,0.1-0.6,0.3c-0.2,0.2-0.3,0.4-0.3,0.6v0v0c0,0.2,0.1,0.5,0.3,0.6c0.2,0.2,0.4,0.3,0.6,0.3h0h0c0.2,0,0.5-0.1,0.6-0.3
	C36.4,116,36.4,115.9,36.5,115.9 M46.5,104.7c0.1-0.2,0.3-0.2,0.4-0.2c0.2,0.1,0.2,0.3,0.2,0.4c0,0-1.3,2.9-3.8,4
	c-0.1,0.3-0.2,0.6-0.4,0.8c-0.5,0.9-1.5,2.2-1.5,2.2c-0.1,0.1-0.3,0.2-0.5,0.1c-0.1-0.1-0.2-0.3-0.1-0.5c0,0,1-1.3,1.5-2.2
	c0.2-0.4,0.4-0.9,0.6-1.4c0-0.1,0.1-0.3,0.1-0.4c0,0,0-0.1,0-0.1c0-0.3-0.8-1.4-1.6-2.7c-0.7-1.1-1.5-2.2-2-3.2l0,0v0
	c-1.1-2.1-1.6-3.9-1.6-4c0-0.2,0.1-0.4,0.2-0.4c0.2,0,0.4,0.1,0.4,0.2c0,0,0.5,1.8,1.5,3.8l0,0l0,0c0.5,0.9,1.2,2.1,1.9,3.1
	c0.3,0.5,0.6,0.9,0.8,1.3c-0.3-1.4,0-2.8,0-2.8c0-0.2,0.2-0.3,0.4-0.3c0.2,0,0.3,0.2,0.3,0.4c0,0-0.3,1.7,0.2,3.2
	c0,0,0.1-0.1,0.1-0.2l0,0l0.2-0.3l0,0c0.5-0.9,0.8-1.4,0.8-2.9c0-1.7-0.4-3-0.4-3c0-0.2,0.1-0.4,0.2-0.4c0.2,0,0.4,0.1,0.4,0.2
	c0,0,0.4,1.4,0.4,3.2c0,0.1,0,0.3,0,0.4c1.5-1.6,1.8-3.9,1.8-3.9c0-0.2,0.2-0.3,0.4-0.3c0.2,0,0.3,0.2,0.3,0.4c0,0-0.5,3.1-2.6,4.9
	c-0.1,0.7-0.4,1.2-0.8,1.8l0,0l-0.2,0.3c-0.1,0.2-0.2,0.4-0.3,0.7c0,0,0,0.1,0,0.1c-0.1,0.3-0.2,0.5-0.3,0.8
	C45.5,106.9,46.5,104.7,46.5,104.7 M66.8,144.5L66.8,144.5L66.8,144.5L66.8,144.5L66.8,144.5c-0.2,0-0.5,0.1-0.6,0.3
	c-0.2,0.2-0.3,0.4-0.3,0.6h0v0v0h0c0,0.2,0.1,0.4,0.2,0.5l0,0l0,0c0,0,0,0.1,0.1,0.1c0.2,0.2,0.4,0.3,0.6,0.3v0h0h0v0
	c0.2,0,0.5-0.1,0.6-0.3c0.2-0.2,0.3-0.4,0.3-0.6h0v0v0h0c0-0.2-0.1-0.5-0.3-0.6C67.2,144.6,67,144.5,66.8,144.5 M55.9,150.2
	c-0.1,0.2-0.1,0.4,0,0.7v0l0,0c0.1,0.2,0.3,0.4,0.4,0.5l0,0c0.2,0.1,0.4,0.1,0.7,0v0l0,0c0.2-0.1,0.4-0.2,0.5-0.4l0,0
	c0.1-0.2,0.1-0.4,0-0.7l0,0c-0.1-0.2-0.2-0.4-0.4-0.5l0,0c-0.2-0.1-0.4-0.1-0.7,0l0,0C56.2,149.9,56,150,55.9,150.2L55.9,150.2z
	 M106.5,177.9c-4,0.2-8.2,0.1-12.5-0.2c2-2.9,3.9-5.4,6.2-7.6C102.5,172.3,104.5,174.9,106.5,177.9 M93.2,177.7l-0.6,0
	C92.7,177.6,93,177.7,93.2,177.7 M118.4,193.7c0.2,0,0.5-0.1,0.7-0.1C118.9,193.7,118.7,193.7,118.4,193.7 M8.4,140.6l1.4,2.1
	l0.9-0.7l-0.4-0.6l3.9-2.8l2-1.5l0.1,0.1l-2.6,2.5l-3.4,3.5l0.2,0.3l4.7-2.3l2.8-1.5l0.1,0.1l-2.1,1.4l-3.8,2.8l-0.4-0.6l-0.9,0.7
	l1.6,2.3l0.9-0.7l-0.4-0.6l5.8-4.1l0.4,0.6l0.9-0.7l-1.6-2.3l-1.6,0.8c-0.4,0.2-0.8,0.4-1.4,0.7l-1.4,0.7l0,0l1.3-1.2
	c0.4-0.3,0.6-0.6,0.8-0.8l1.4-1.5l-1.6-2.3l-0.9,0.7l0.4,0.6l-5.8,4.1l-0.4-0.6L8.4,140.6z M19.5,142l0.5,0.5l-4.7,4.4
	c-0.4,0.4-0.7,0.9-0.7,1.4c0,0.5,0.1,1,0.6,1.5c0.4,0.4,0.8,0.7,1.4,0.7c0.5,0,1.1-0.3,1.7-0.8l4.4-4.1l0.5,0.5l0.8-0.8l-1.5-1.8
	l-0.8,0.8l0.3,0.4l-4.4,4.1c-0.3,0.3-0.6,0.5-0.8,0.5c-0.2,0-0.4,0-0.6-0.3c-0.2-0.2-0.2-0.4-0.2-0.6c0.1-0.2,0.3-0.5,0.6-0.8
	l4.4-4.1l0.3,0.4l0.8-0.8l-1.7-1.9L19.5,142z M18.6,153.4l1.9,1.9l0.8-0.8l-0.5-0.5l2.1-2.3l3.7-1.9l0.4,0.4l0.8-0.8l-1.7-1.7
	l-0.8,0.8l0.4,0.4l-2.3,1.3l0,0l1.1-2.5l0.4,0.4l0.8-0.8l-1.8-1.8l-0.8,0.8l0.4,0.4l-1.7,4.1l-2.1,2.2l-0.5-0.5L18.6,153.4z
	 M23.4,158.1l1.9,1.5l0.7-0.9l-0.5-0.4l1.9-2.5l1.7-2.4l0,0l-0.9,2c-0.2,0.5-0.4,1-0.6,1.4l-1.3,3.6l0.8,0.7l5-6.6l0.5,0.4l0.7-0.9
	l-1.9-1.5l-0.7,0.9l0.5,0.4l-1.3,1.7l-1.6,2.4l0,0l1.2-2.6l1.2-3.4l-1.6-1.3l-0.7,0.9l0.5,0.4l-4.3,5.7l-0.5-0.4L23.4,158.1z
	 M34.7,161.1c0.9-1.3,1.5-2.5,1.7-3.4c0.2-0.9,0-1.6-0.6-2c-0.4-0.3-0.8-0.4-1.3-0.3c-0.5,0.1-1,0.4-1.5,0.9
	c-0.6,0.5-1.2,1.2-1.8,2.1c-0.9,1.3-1.5,2.4-1.7,3.3c-0.2,0.9,0,1.5,0.6,2C31.4,164.6,32.9,163.7,34.7,161.1 M32.4,159.4
	c-0.8,1.1-1.3,1.9-1.5,2.4c-0.2,0.5-0.2,0.8,0,0.9c0.2,0.2,0.5,0.1,0.9-0.3c0.4-0.3,0.9-1.1,1.7-2.2c0.9-1.2,1.4-2.1,1.6-2.5
	c0.2-0.5,0.2-0.8,0-1c-0.2-0.2-0.6-0.1-1,0.3C33.8,157.5,33.2,158.3,32.4,159.4 M34.2,165.1l-0.6-0.4l-0.6,1l1.7,1.2
	c0.7,0.5,1.4,0.7,2,0.5c0.6-0.1,1.2-0.6,1.6-1.3c0.3-0.5,0.5-1,0.5-1.6c0-0.5-0.2-1-0.6-1.3l0,0c0.4,0.2,0.8,0.2,1.2,0.1
	c0.4-0.2,0.7-0.5,1-1c0.4-0.6,0.5-1.3,0.4-1.9c-0.1-0.6-0.5-1.1-1.2-1.6l-1.7-1.2l-0.6,1L38,159L34.2,165.1z M39.1,159.8l-1.5,2.4
	c0.2,0.1,0.4,0.2,0.6,0.3c0.2,0,0.3,0,0.5-0.1c0.2-0.1,0.4-0.3,0.6-0.7c0.3-0.4,0.4-0.8,0.4-1.1C39.7,160.3,39.5,160,39.1,159.8
	 M37,163.1l-1.7,2.7c0.4,0.3,0.8,0.4,1.1,0.3c0.3-0.1,0.6-0.4,0.9-0.8c0.3-0.4,0.4-0.8,0.4-1c0-0.3,0-0.5-0.2-0.7
	C37.4,163.4,37.2,163.3,37,163.1 M37.9,168.9l3.7,2.2l2-3.6l-1-0.6l-1.5,2.6l-1-0.6l3.5-6.3l0.6,0.4l0.6-1l-2.3-1.4l-0.6,1l0.6,0.3
	l-3.5,6.3l-0.6-0.3L37.9,168.9z M42.3,171.6l3.7,2.1l1.4-2.6l-1-0.6l-0.8,1.6l-1-0.6l1.5-2.8l0.8,0.5l0.5-1l-0.8-0.5l1.4-2.5l1,0.6
	l-0.8,1.4l1,0.6l1.3-2.4l-3.7-2.1l-0.5,1l0.6,0.3l-3.4,6.3l-0.6-0.3L42.3,171.6z M49.4,175.6l2.4,1.2l0.5-1l-0.6-0.3l1.4-2.9l3-3
	l0.5,0.3l0.5-1l-2.1-1.1l-0.5,1l0.5,0.3l-1.8,1.9l0,0l0.3-2.7l0.5,0.3l0.5-1l-2.3-1.1l-0.5,1l0.5,0.3l-0.4,4.4l-1.3,2.8l-0.6-0.3
	L49.4,175.6z M61.1,185.1l2.5,0.9l0.4-1.1l-0.7-0.2l1.6-4.8l0.8-2.6l0.1,0l-0.8,3.8l-0.8,5.2l0.4,0.1l2.6-5l1.5-3.1l0.1,0l-1,2.5
	l-1.6,4.8l-0.7-0.2l-0.4,1.1l2.7,1l0.4-1.1l-0.7-0.2l2.4-7.2l0.7,0.2l0.4-1.1l-2.8-1l-0.9,1.7c-0.2,0.4-0.5,0.9-0.7,1.5l-0.7,1.5
	l0,0l0.4-1.8c0.1-0.5,0.2-0.9,0.2-1.2l0.3-2.1l-2.7-1l-0.4,1.1l0.7,0.2l-2.4,7.2l-0.7-0.2L61.1,185.1z M70.9,179.1l0.7,0.2l-1.5,6.7
	c-0.1,0.6-0.1,1.2,0.2,1.6c0.3,0.5,0.7,0.8,1.4,0.9c0.6,0.1,1.1,0,1.6-0.3c0.5-0.3,0.8-0.9,1-1.8l1.4-6.2l0.7,0.2l0.3-1.2l-2.4-0.6
	l-0.3,1.2l0.5,0.1l-1.4,6.3c-0.1,0.5-0.2,0.8-0.4,1c-0.2,0.2-0.4,0.2-0.7,0.1c-0.3-0.1-0.5-0.2-0.5-0.4c-0.1-0.2-0.1-0.6,0-1
	l1.4-6.3l0.5,0.1l0.3-1.2l-2.6-0.6L70.9,179.1z M76.8,189.6l2.7,0.5l0.2-1.2l-0.7-0.1l0.6-3.3l2.1-3.9l0.6,0.1l0.2-1.2l-2.5-0.4
	l-0.2,1.2l0.6,0.1l-1.3,2.5l0,0l-0.4-2.8l0.6,0.1l0.2-1.2l-2.6-0.5l-0.2,1.2l0.6,0.1l0.8,4.6l-0.5,3.2l-0.7-0.1L76.8,189.6z
	 M84.8,191l4.4,0.5l0.4-4.3l-1.2-0.1l-0.3,3.1L87,190l0.8-7.6l0.7,0.1l0.1-1.2l-2.8-0.3l-0.1,1.2l0.7,0.1l-0.8,7.6l-0.7-0.1
	L84.8,191z M90.3,191.5l4.5,0.2l0.2-3.1l-1.2-0.1l-0.1,1.9l-1.2-0.1l0.2-3.4l1,0.1l0.1-1.2l-1-0.1l0.2-3l1.2,0.1l-0.1,1.7l1.2,0.1
	l0.1-2.9l-4.5-0.2l-0.1,1.2l0.7,0l-0.4,7.6l-0.7,0L90.3,191.5z M98.2,188.3h1.2l0.2,2.3H99v1.2h2.6v-1.2H101l-1.1-7.6h0.7v-1.2H97
	v1.2h0.7l-1.1,7.6H96v1.2h2.6v-1.2H98L98.2,188.3z M98.3,187.1h1l-0.4-4.5h-0.2L98.3,187.1z M102.7,191.8l4.5-0.2l-0.1-4.4l-1.2,0
	l0.1,3.2l-1.2,0l-0.3-7.6l0.7,0l0-1.2l-2.8,0.1l0,1.2l0.7,0l0.3,7.6l-0.7,0L102.7,191.8z M114.2,187.4c0.1,0.9,0.1,1.5,0,1.9
	c-0.1,0.4-0.3,0.6-0.6,0.6c-0.3,0-0.6-0.2-0.7-0.7c-0.2-0.5-0.3-1.5-0.5-3.1c-0.1-1.2-0.2-2-0.2-2.5c0-0.5,0-0.9,0.1-1
	c0.1-0.2,0.2-0.3,0.4-0.3c0.3,0,0.5,0.1,0.7,0.5c0.2,0.3,0.3,0.9,0.4,1.5l1.2-0.1l-0.3-3.2l-1.2,0.1l0,0.5l0,0
	c-0.3-0.4-0.7-0.6-1.1-0.5c-1.3,0.1-1.8,2-1.4,5.5c0.2,1.7,0.5,2.9,0.9,3.7c0.5,0.8,1.1,1.1,1.8,1.1c0.6-0.1,1.1-0.4,1.4-1.1
	c0.3-0.6,0.4-1.5,0.3-2.5L114.2,187.4z M117,190.7l2.8-0.4l-0.2-1.2l-0.7,0.1l-1-7.5l0.7-0.1l-0.2-1.2l-2.8,0.4l0.2,1.2l0.7-0.1
	l1,7.5l-0.7,0.1L117,190.7z M119.4,181.3l0.7-0.1l1.2,6.8c0.1,0.6,0.4,1.1,0.8,1.4c0.4,0.3,1,0.4,1.6,0.3c0.6-0.1,1-0.4,1.3-0.9
	c0.3-0.5,0.4-1.2,0.3-2.1l-1.1-6.3l0.7-0.1l-0.2-1.2l-2.4,0.4l0.2,1.2l0.5-0.1l1.1,6.3c0.1,0.5,0.1,0.8,0,1
	c-0.1,0.2-0.3,0.4-0.6,0.4c-0.3,0.1-0.5,0-0.7-0.2c-0.2-0.2-0.3-0.5-0.4-1l-1.1-6.3l0.5-0.1l-0.2-1.2l-2.6,0.5L119.4,181.3z
	 M127.7,188.7l1.8-0.4c1-0.2,1.7-0.8,2.1-1.7c0.3-0.9,0.3-2.2-0.1-3.8c-0.4-1.7-0.9-2.9-1.6-3.6c-0.7-0.7-1.6-0.9-2.6-0.6l-1.7,0.4
	l0.3,1.2l0.7-0.2l1.7,7.4l-0.7,0.2L127.7,188.7z M127.8,179.6l1.7,7.4c0.5-0.1,0.8-0.5,0.8-1c0.1-0.6,0-1.5-0.3-2.8
	c-0.2-1-0.4-1.8-0.7-2.3c-0.2-0.5-0.4-0.9-0.7-1.1C128.4,179.6,128.1,179.5,127.8,179.6 M134.5,183.4l1.1-0.3l0.8,2.1l-0.6,0.2
	l0.3,1.2l2.5-0.7l-0.3-1.2l-0.6,0.2l-3-7.1l0.7-0.2l-0.3-1.2l-3.5,1l0.3,1.2l0.7-0.2l0.9,7.6l-0.6,0.2l0.3,1.2l2.5-0.7l-0.3-1.2
	l-0.6,0.2L134.5,183.4z M134.3,182.2l1-0.3l-1.5-4.2l-0.1,0L134.3,182.2z M139.8,185.5l1.7-0.5c1-0.3,1.7-1,1.9-1.9
	c0.3-0.9,0.1-2.2-0.3-3.8c-0.5-1.7-1.1-2.8-1.8-3.4c-0.7-0.6-1.6-0.8-2.7-0.4l-1.7,0.5l0.3,1.2l0.7-0.2l2.2,7.3l-0.7,0.2
	L139.8,185.5z M139.3,176.4l2.2,7.3c0.5-0.2,0.7-0.5,0.8-1.1c0-0.6-0.1-1.5-0.5-2.8c-0.3-1-0.6-1.8-0.8-2.3c-0.2-0.5-0.5-0.9-0.7-1
	C140,176.3,139.7,176.3,139.3,176.4 M170.5,151.5l1.1-0.2v-1.7h-0.9L170.5,151.5z M154.2,175.3l1.5-0.8c0.9-0.5,1.4-1.2,1.5-2.1
	c0.1-0.9-0.2-2.1-0.9-3.5c-0.7-1.5-1.5-2.4-2.2-2.9c-0.8-0.5-1.6-0.5-2.6,0l-1.5,0.8l0.5,1l0.6-0.3l3.2,6.5l-0.6,0.3L154.2,175.3z
	 M152.3,166.9l3.2,6.5c0.4-0.2,0.6-0.6,0.6-1.1c-0.1-0.5-0.4-1.4-0.9-2.5c-0.4-0.9-0.8-1.6-1.1-2c-0.3-0.5-0.6-0.7-0.9-0.9
	C152.9,166.8,152.6,166.8,152.3,166.9 M159.9,172.3l3.7-2.3l-1.5-2.5l-1,0.6l0.9,1.5l-1,0.6l-1.6-2.7l0.8-0.5l-0.6-1l-0.8,0.5
	l-1.4-2.5l1-0.6l0.8,1.4l1-0.6l-1.4-2.4l-3.7,2.3l0.6,1l0.6-0.4l3.6,6.2l-0.6,0.4L159.9,172.3z M169,166.2l2-1.5l-0.7-0.9l-0.6,0.4
	l-2.8-3.9l-1.6-2l0.1-0.1l2.5,2.6l3.5,3.4l0.3-0.2l-2.4-4.8l-1.6-2.9l0.1-0.1l1.4,2.1l2.8,3.9l-0.6,0.4l0.7,0.9l2.2-1.7l-0.7-0.9
	l-0.6,0.4l-4.2-5.8l0.6-0.4l-0.7-0.9l-2.2,1.7l0.8,1.6c0.2,0.4,0.4,0.8,0.7,1.4l0.8,1.4l0,0l-1.2-1.3c-0.3-0.4-0.6-0.6-0.8-0.8
	l-1.5-1.4l-2.2,1.7l0.7,0.9l0.6-0.4l4.2,5.8l-0.6,0.4L169,166.2z M175.8,160.9l3.2-2.9l-1.9-2.2l-0.8,0.8l1.1,1.3l-0.9,0.8l-2-2.4
	l0.7-0.6l-0.7-0.9l-0.7,0.6l-1.8-2.2l0.9-0.8l1,1.2l0.8-0.8l-1.8-2.1l-3.2,2.9l0.7,0.9l0.5-0.5l4.6,5.5l-0.5,0.5L175.8,160.9z
	 M179,152.1c0.1-0.1,0.3-0.3,0.3-0.4l3.8,2.3l1.1-1.1l-0.8-0.8l-0.4,0.4l-3.1-1.8c0.2-0.9,0-1.7-0.7-2.4c-0.5-0.6-1.1-0.9-1.8-0.9
	c-0.6,0-1.3,0.3-1.8,0.8l-1.7,1.7l0.8,0.8l0.6-0.6l4.9,5.2l-0.6,0.6l0.8,0.8l2-2l-0.8-0.8l-0.5,0.5L179,152.1z M176.2,149.2l2,2.1
	c0.4-0.4,0.5-0.7,0.5-1c0-0.3-0.2-0.7-0.5-1c-0.4-0.4-0.7-0.6-1-0.6C176.9,148.7,176.6,148.9,176.2,149.2 M185.2,151.9l1.9-2.1
	l-0.8-0.8l-0.5,0.5l-5.1-4.9l0.5-0.5l-0.8-0.8l-1.9,2.1l0.8,0.8l0.5-0.5l5.1,4.9l-0.5,0.5L185.2,151.9z M188.2,148.4l1.1-1.3
	c0.7-0.8,0.9-1.6,0.6-2.5c-0.3-0.9-1-1.8-2.2-2.9c-1.2-1.1-2.3-1.7-3.2-1.8c-0.9-0.1-1.7,0.2-2.4,1.1l-1.1,1.3l0.9,0.7l0.4-0.5
	l5.4,4.7l-0.4,0.5L188.2,148.4z M183.3,141.4l5.4,4.7c0.3-0.4,0.3-0.8,0.1-1.3c-0.3-0.5-0.8-1.1-1.8-1.9c-0.7-0.6-1.3-1.1-1.8-1.4
	c-0.5-0.3-0.8-0.4-1.1-0.4C183.8,141,183.5,141.2,183.3,141.4 M190.6,140l0.7-0.9l1.8,1.1l-0.3,0.5l0.9,0.7l1.5-2.1l-0.9-0.7
	l-0.3,0.5l-6.3-3.4l0.4-0.5l-0.9-0.7l-2,2.9l0.9,0.7l0.4-0.5l5.1,5.1l-0.3,0.5l0.9,0.7l1.5-2.1l-0.9-0.7l-0.3,0.5L190.6,140z
	 M189.8,139.3l0.6-0.8l-3.6-2.2l-0.1,0.1L189.8,139.3z M75.6,159.6c-0.2,0.1-0.5,0.1-0.7,0.2C75.2,159.7,75.4,159.6,75.6,159.6
	 M81.8,149.3c0,0,1.7,1.6,2.2,3.8c-0.1-0.1-0.2-0.2-0.3-0.2c-1.5-1-2.9-1.5-2.9-1.5c-0.2-0.1-0.4,0-0.4,0.2c-0.1,0.2,0,0.4,0.2,0.4
	c0,0,1.3,0.5,2.7,1.4c1.2,0.8,1.5,1.4,1.9,2.3l0.2,0.3l0,0l0.1,0.1c-1.6-0.4-2.7-1.6-2.7-1.6c-0.1-0.1-0.3-0.1-0.5,0
	c-0.1,0.1-0.1,0.3,0,0.5c0,0,0.9,1,2.3,1.6c-0.5,0-1,0-1.5-0.1c-1.3,0-2.6-0.1-3.7-0.2h0l0,0c-2.3-0.3-4-0.9-4-0.9
	c-0.2-0.1-0.4,0-0.4,0.2c-0.1,0.2,0,0.4,0.2,0.4c0,0,1.8,0.7,4.1,1l0,0l0,0c1,0.1,2.4,0.2,3.7,0.2c1.5,0.1,2.9,0.1,3.1,0.2
	c0,0,0.1,0,0.1,0c0.1,0.1,0.2,0.2,0.3,0.4c0.3,0.4,0.6,0.8,0.8,1.2c0.4,0.9,0.9,2.5,0.9,2.5c0.1,0.2,0.3,0.3,0.4,0.2
	c0.2-0.1,0.3-0.3,0.2-0.4c0,0-0.5-1.6-1-2.5c-0.1-0.3-0.3-0.5-0.5-0.8c0.5-2.7-1.1-5.4-1.1-5.4c-0.1-0.2-0.3-0.2-0.5-0.1
	c-0.2,0.1-0.2,0.3-0.1,0.5c0,0,1.2,2.1,1.1,4.3c-0.2-0.2-0.3-0.4-0.5-0.7c0,0,0-0.1,0-0.1c-0.1-0.2-0.2-0.4-0.3-0.6l0,0l-0.2-0.3
	c-0.3-0.7-0.5-1.2-1-1.7c-0.3-2.7-2.5-4.9-2.5-4.9c-0.1-0.1-0.3-0.1-0.5,0C81.7,148.9,81.7,149.2,81.8,149.3 M73.3,162.4
	c0,0,2.3-0.5,4.3,0.2c-0.1,0-0.2,0.1-0.4,0.2c-1.7,0.7-2.8,1.6-2.8,1.6c-0.1,0.1-0.2,0.3-0.1,0.5c0.1,0.1,0.3,0.2,0.5,0.1
	c0,0,1.1-0.9,2.7-1.6c1.4-0.6,1.9-0.5,3-0.4l0,0l0.4,0.1l0,0c0.1,0,0.1,0,0.2,0c-1.2,1.1-2.8,1.5-2.8,1.5c-0.2,0-0.3,0.2-0.3,0.4
	c0,0.2,0.2,0.3,0.4,0.3c0,0,2.3-0.5,3.6-2.1c0.4,0,0.7,0,1.1-0.1c0.5,0,1-0.1,1.5,0c1,0.1,2.6,0.5,2.6,0.5c0.2,0,0.4-0.1,0.4-0.2
	c0-0.2-0.1-0.4-0.2-0.4c0,0-1.6-0.4-2.6-0.5c-0.3,0-0.6,0-0.9,0c-2-1.9-5.2-2-5.2-2c-0.2,0-0.3,0.1-0.3,0.3c0,0.2,0.1,0.3,0.3,0.3
	c0,0,2.4,0.1,4.2,1.4c-0.3,0-0.6,0-0.8,0c0,0-0.1,0-0.1,0c-0.2,0-0.5,0-0.7-0.1h0l-0.4-0.1l0,0c-0.8-0.1-1.3-0.2-2,0
	c-2.4-1.2-5.5-0.5-5.5-0.5c-0.2,0-0.3,0.2-0.3,0.4C72.9,162.3,73.1,162.5,73.3,162.4 M123.3,159.2c0,0-4.1,0.9-6.3,2.1
	c-0.2,0.1-0.2,0.3-0.1,0.5c0.1,0.2,0.3,0.2,0.5,0.1c2.1-1.2,6.1-2.1,6.1-2.1c0.2,0,0.3-0.2,0.3-0.4
	C123.7,159.3,123.5,159.2,123.3,159.2 M122.3,154.6c0,0-3.9,1.5-5.9,3l0,0l0,0l0,0c-0.3,0.2-0.6,0.5-0.8,0.7
	c-0.3,0.2-0.5,0.5-0.8,0.7c-1.4,1.3-2.6,2.5-2.8,2.7c-0.1,0.1-0.1,0.4,0.1,0.5c0.1,0.1,0.4,0.1,0.5-0.1c0.1-0.2,1.3-1.4,2.7-2.6
	c0.3-0.2,0.5-0.5,0.8-0.7c0.3-0.2,0.6-0.5,0.8-0.7l0,0l0,0c1.9-1.5,5.7-2.9,5.7-2.9c0.2-0.1,0.3-0.3,0.2-0.4
	C122.7,154.7,122.5,154.6,122.3,154.6 M57.6,14.4l4,4.3c0-0.4,0.4-0.8,0.9-0.8c0.5,0,0.9,0.4,0.9,0.9c0,0.5-0.4,0.8-0.8,0.9l4.1,4.5
	c0,0,1.9,2.4,4.9,1.3c3-1.1,3.2-2.5,3.2-2.5s2.2,1.4,4,1c1.9-0.5,3.1-3.4,3.4-3.8c0.4-0.3,2.1,2.4,4.1,2c2-0.4,3.6-3.2,3.9-3.6
	c0.3-0.3,2.4,2.6,4.6,2.6h0c-0.6,0-1.2,0-1.8,0.1c-10.3,0.5-24.7,5.9-24.7,5.9c-1.7,1,1.8,2.8,1.8,2.8s0.4,0.7,0.9,1.7l2.2-1
	c0.1,0,0.2,0,0.2,0.1l0.8,1.8c0,0.1,0,0.2-0.1,0.2l-2.1,0.9c0.4,0.8,0.8,1.5,1,1.9c0.4,1.1,0.7,2.3,3.4,3.9
	c2.7,1.6,18.8,2.7,24.1,2.9c5.3,0.2,21.5-1.8,23.9-2.6c2.5-0.8,3.5-3.5,3.5-3.5s0.4-0.9,0.9-2.3l-2.6-1.2c-0.1,0-0.1-0.2-0.1-0.2
	l0.8-1.8c0-0.1,0.2-0.1,0.2-0.1l2.2,1l-0.6,2.3c0.2-0.7,0.5-1.5,0.7-2.4c0.6-2.6,2.5-2.5,3.4-3.5c1-1.1-1.7-1.7-1.7-1.7
	s-0.9-0.3-2.3-0.7l0,0c2.3,0.5,3,0,5.8-2.8c0.9-0.9,2-2,3.2-3.2c0,0-0.1,0-0.1,0c-0.5,0-0.9-0.4-0.9-0.9c0-0.5,0.4-0.9,0.9-0.9
	c0.5,0,0.9,0.4,0.9,0.9c0,0,0,0.1,0,0.1c2.1-2,4-3.8,4-3.8s1.3-1.5,2.7-1.5c1.4,0,2.7-0.4,1.8-1.2c-1-0.8-3-1.1-3.5-0.8
	c-0.5,0.3-0.9,1.3-2.8,0.3c-1.9-1.1-3.3-0.2-3.8,0.4c-0.5,0.6-2,0.9-3,1.1c-1,0.2-1,1-0.9,1.6c0.1,0.6,0.9,0.9,0.9,0.9
	s-1.4,0.1-1.4,1.4c0,1.3,0.8,1,0.8,1s-1.3,0.3-1.2,1.2c0.1,0.9,1.1,0.8,1.1,0.8s-0.5,2.8-2.8,3.1c-2.3,0.3-3.2-2.4-3.1-3
	c0-0.1,0-0.2,0-0.3c0.1,0,0.3,0.1,0.5,0.1c0.9,0,1.6-0.7,1.6-1.6c0-0.9-0.7-1.6-1.6-1.6c-0.9,0-1.6,0.7-1.6,1.6c0,0.5,0.2,1,0.6,1.3
	c-0.2,0.1-0.3,0.3-0.5,0.6c-1.7,2.2-4.1,1.6-5.4-0.2c0,0,0-0.1,0-0.2c0.7,0.1,1,0.3,1.2,0c0.2-0.3-0.1-1.1-0.1-1.1s0.8,0.6,1.1,0.6
	c1.6-0.2-0.5-1.7-0.3-1.9c0.2-0.2,2.5,0.8,3.1,0.2c0.6-0.7,0.6-1.3,0.4-1.8c-0.3-0.5-1.5-0.7-1.5-1c0-0.3,1.9-1,2.1-1.3
	c0.2-0.4,0.1-1.3-0.6-1.3c-0.8-0.1-1.3-0.2-1.3-0.7c0-0.5,0.4-1.5-0.4-1.9c-0.8-0.4-1.5,0.6-1.7,0.8c-0.2,0.2-0.5-0.2-1.1-0.3
	c-0.6-0.2-1.5,0.3-1.4,0.9c0,0.6-0.1,1-0.4,0.9c-0.3-0.1-0.3-0.4-0.9,0c-0.6,0.4,1.2,2.3-0.3,1.2c-0.6-0.4-0.9-0.5-1.2-0.2
	c-0.4,0.3,0,0.9,0.4,1.2c0.4,0.3,0.5,0.7-0.1,0.5c-0.6-0.2-1.1,0.1-0.9,0.6c0.2,0.5,0.7,0.6,0.9,0.8c0.2,0.2-0.3,0.3-0.8,0.3
	c-1.7-0.2-1,1.4,0.3,1.1c0.5-0.1,1,0.1,0.8,0.5c-0.2,0.3-0.2,0.6-0.2,1c-0.8,0.4-1.5,0.7-1.8,0.8c-0.4,0.2-2.1,0.5-3.6-1
	c-0.9-0.9-1.2-2.6-1.3-3.5l0,0c0.9,0,1.6-0.7,1.6-1.6c0-0.9-0.7-1.6-1.6-1.6c-0.9,0-1.6,0.7-1.6,1.6c0,0.7,0.5,1.3,1.1,1.5
	c-0.5,0.6-1.4,1.2-2,1.8c-2.1,2.2-5.8,1.3-7-1.5c-0.2-0.5,0.6,0.3,1-0.4c0.4-0.6-1-2.2-0.1-1.3c0.2,0.2,1.5,1,1.7,0.1
	c0.2-0.7-0.5-1.2-0.8-1.6l0.1,0l0,0c1.9,0.3,2.6-0.3,3-0.7c0.4-0.4,0.5-1.2-0.7-1.6c-0.6-0.2-1.5,0-2.2,0.3l-0.1,0
	c0.4-0.3,1-0.9,0.8-1.6c-0.3-1-1.5-0.1-1.7,0.1c-1.7,1.7,0.4-0.5,0.1-1.3c-0.2-0.6-1.2-0.4-1.6,0.3c-0.3,0.5,0.7-1.7,0.8-1.9
	c0.2-0.5-0.2-1.4-0.6-1.4c-0.4,0-0.9-0.2-0.9-0.8c0-0.6-0.9-0.8-0.9-0.1c0,0.7-0.3,0.8-0.8,0.9c-0.5,0.1-0.7,0.8-0.6,1.3
	c0.1,0.3,0.6,1.3,1,1.9c-0.4-0.7-1.2-0.8-1.6-0.3c-0.6,0.8,1.8,3.1,0,1.3c-0.2-0.2-1.5-1-1.7-0.1C96,9.1,96.6,9.6,97,10
	c-0.7-0.2-1.4-0.4-2-0.2c-1.2,0.4-1.1,1.2-0.7,1.6c0.4,0.4,1.1,0.9,2.7,0.7c-0.4,0.3-1,0.9-0.8,1.6c0.3,1,1.5,0.1,1.7-0.1
	c1.1-1-0.5,0.5,0,1.3c0.8,1.2,1.9-1,0.6,0.8c-1.1,1.4-2.3,2.3-4.1,2.4c-1.8,0.1-3.5-1.9-4.1-2.9c-0.1-0.1-0.2-0.2-0.2-0.3
	c0.6-0.2,1.1-0.8,1.1-1.5c0-0.9-0.7-1.6-1.6-1.6c-0.9,0-1.6,0.7-1.6,1.6c0,0.9,0.7,1.6,1.6,1.6c-0.2,0.3-0.3,0.7-0.4,1.4
	c-0.2,1.4-2,3.2-3.1,3.4c-0.9,0.2-2.3,0.1-3.2-0.7c0.1-0.4,0.1-1-0.1-1.3c-0.3-0.4,0.2-0.3,0.8-0.3c1.3,0.2,2-1.5,0.3-1.3
	c-0.5,0.1-1-0.1-0.8-0.3c0.2-0.2,0.7-0.3,0.9-0.8c0.2-0.5-0.3-0.8-0.9-0.6c-0.6,0.2-0.5-0.2-0.1-0.5c0.4-0.3,0.8-0.9,0.4-1.2
	c-0.4-0.3-0.6-0.2-1.2,0.2c-1.6,1.1,0.3-0.8-0.3-1.2c-0.6-0.4-0.6,0-0.9,0c-0.3,0.1-0.5-0.3-0.4-0.9c0-0.6-0.8-1.1-1.4-0.9
	c-0.6,0.2-0.9,0.5-1.1,0.3c-0.2-0.2-0.9-1.2-1.7-0.8c-0.8,0.4-0.4,1.4-0.4,1.9c0,0.5-0.5,0.6-1.3,0.7c-0.8,0.1-0.9,1-0.6,1.3
	c0.2,0.4,1.9,0.6,1.9,0.9c0,0.3-1,1-1.3,1.4c-0.3,0.5-0.3,1.1,0.4,1.8c0.6,0.7,2.6-0.7,2.9-0.4c0.3,0.3-1.2,1.1-1.1,1.8
	c0.1,0.7,0.7,0.5,1,0.3c0.3-0.2,1.4-1.2,0.9-0.8c-0.5,0.4-0.4,1.3-0.3,1.4c0.1,0.1,0.5,0,0.9,0c-0.8,1.5-2.2,1.8-3.3,1.4
	c-0.9-0.4-1.7-1.8-2.3-2.3c0.3-0.3,0.4-0.7,0.4-1.1c0-0.9-0.7-1.6-1.6-1.6c-0.9,0-1.6,0.7-1.6,1.6c0,0.9,0.7,1.6,1.6,1.6
	c0.2,0,0.4,0,0.6-0.1c-0.1,0.6-0.2,1.7-1.1,2.6c-1.3,1.3-2.6,0.8-3.4,0.3c-0.6-0.4-1.2-1.6-1.4-2.2c0.6,0,0.6-1.1,0.5-1.5
	c-0.1-0.4,0-0.5,0.4-1c0.4-0.5,0-0.9-0.4-1.3c-0.4-0.4-0.2-0.6-0.1-1.1c0.1-0.4,0.1-0.9-0.7-1.5c-0.7-0.6-1.6,0.1-1.6-0.2
	c0-0.3-0.3-1-0.9-1.8c-0.6-0.8-2.1-1-3.1-0.9c-0.9,0.1-1.2,0.5-2.4,0.8c-0.4-0.2-0.8-0.3-1-0.3c-1.3-0.1-3.9-0.6-4.7,1.3
	C52.6,13.9,55.8,12.8,57.6,14.4 M95,21.2c1.6-0.1,4.6-2.5,5-5c0,0,1.9,4.4,4.4,4.9c2.6,0.5,5.8-2.6,5.8-2.6s1.5,3,3.5,3.5
	c2,0.4,4-1.1,4.4-1.7c0.3-0.5,0.9,2.1,2.8,2.8c1.9,0.7,4.3,0.4,4.8-0.2c0.5-0.5,1,1.7,2.8,2.5c-2.4-0.7-5.8-1.7-8.6-2.3
	C115.5,22.3,104.8,21,95,21.2 M121.1,15c0.5,0,0.9,0.4,0.9,0.9c0,0.5-0.4,0.9-0.9,0.9c-0.5,0-0.9-0.4-0.9-0.9
	C120.3,15.4,120.7,15,121.1,15 M100.3,10c0.5,0,0.9,0.4,0.9,0.9c0,0.5-0.4,0.9-0.9,0.9c-0.5,0-0.9-0.4-0.9-0.9
	C99.4,10.4,99.8,10,100.3,10 M79.4,14.7c0.5,0,0.9,0.4,0.9,0.9c0,0.5-0.4,0.9-0.9,0.9c-0.5,0-0.9-0.4-0.9-0.9
	C78.5,15.1,78.9,14.7,79.4,14.7 M119.7,66.3c0,0,0.2-0.6,1.3-0.5c1.1,0.1,1.5,0.4,1.7,0.8c0.1,0.2,0.2,0.6,0.1,0.9
	c-0.1,0.3-0.2,0.4-0.4,0.5c-0.2,0.1-0.4,0.1-0.7,0c-0.3-0.1-0.6-0.3-0.7-0.5c-0.1-0.1-0.3-0.2-0.5-0.3c-0.4-0.2-0.7-0.3-0.9-0.5
	C119.6,66.6,119.7,66.3,119.7,66.3 M120,66.4c0,0,0.2-0.3,1-0.2c0.9,0.1,1.2,0.3,1.4,0.6c0.2,0.3,0.2,0.9-0.1,1
	c-0.3,0.1-0.8-0.2-1-0.4c-0.2-0.2-1.2-0.7-1.3-0.7C119.9,66.6,120,66.4,120,66.4 M76.3,58.9C76.2,58.9,76.2,58.9,76.3,58.9
	C76.2,58.9,76.2,58.9,76.3,58.9 M69.8,116.6l5.1,7.4c0,0,0.1,0,0.1,0l0-2.6l0-0.1l-0.2-0.2l-3.9-4.4l-1.2-1.4L69.8,116.6z
	 M69.4,115.4h-6.5h0h0h0h0l0,0h0h0l0,0h0h0l0,0h0h0l0,0l0,0l0,0h0l0,0h0l0,0l0,0h0l0,0l0,0l0,0l0,0l0,0l0,0l0,0h0l0,0l0,0h0l0,0h0
	l0,0l0,0h0l0,0l0,0v0l0,0l0,0l0,0l0,0l0,0l0,0v0l0,0l0,0l0,0l0,0l0,0l0,0v0l0,0l0,0l0,0l0,0l0,0l0,0l0,0l0,0l0,0l0,0l0,0l0,0l0,0
	l0,0l0,0l0,0l0,0v0l0,0l0,0l0,0l0,0l0,0l0,0v0l0,0v0v0l0,0l0,0v0l0,0v0v0l0,0v0l0,0l0,0v0v0l0,0v0v0v0.6c0,0.2,0.1,0.3,0.3,0.3h6.5
	h0.1v-1.2H69.4z M90.1,115.4l-0.5,0.6l-4.6,5.2c0,0.1-0.1,0.2-0.1,0.2l0,2.6c0.1,0,0.1,0,0.1,0l4.7-6.8l0.5-0.7V115.4z M63.7,75.2
	C63.7,75.2,63.7,75.2,63.7,75.2C63.7,75.2,63.7,75.2,63.7,75.2 M80,110.5L80,110.5L80,110.5L80,110.5L80,110.5v0.8h0l0,1.7h4.4
	c0,0,0,0,0-0.1v-1.1l0,0v-1.2h-1H80z M90.1,110.2l-5.1,3l-0.1,7.5l4.9-5.4c0,0,0.1-0.1,0.1-0.1h0l0,0l0,0l0,0l0,0l0,0l0,0h0l0,0h0
	l0,0l0,0l0,0h0h0l0,0h0l0,0h0l0,0h0l0,0l0,0l0,0l0,0h0h0l0,0h0h0h0h0V110.2z M90.4,115.4v1.2h6.5c0.2,0,0.3-0.1,0.3-0.3v-0.6
	c0-0.2-0.1-0.3-0.3-0.3h0h0H90.4z M75.3,124h2.4v-6.4c0-1,1-1.9,2.2-1.9c1.2,0,2.2,0.8,2.2,1.9v6.4h2.3l0-2.5
	c-0.1-0.1-0.2-0.2-0.2-0.3l0.1-7.9h-8.7l-0.1,7.9c0,0.1-0.1,0.2-0.2,0.3L75.3,124z M69.7,115.1L69.7,115.1L69.7,115.1L69.7,115.1
	L69.7,115.1L69.7,115.1L69.7,115.1L69.7,115.1L69.7,115.1L69.7,115.1L69.7,115.1L69.7,115.1L69.7,115.1L69.7,115.1L69.7,115.1l0.1,0
	l0,0l0,0h0l0,0l0,0l0,0l0,0l0,0h0l0,0l0,0l0,0h0l0,0l0,0l0,0l0,0l0,0l0,0l0,0l0,0l0,0l0,0h0l0,0c0,0,0,0,0,0l0,0l0,0l0,0l0,0l0,0
	l4.9,5.4l0.1-7.3l-5.3-3.2V115.1z M75.5,111.7v1.2l0,0v0c0,0,0,0,0,0h4.1l0-1.7v-0.4v-0.3v0v0h-2.3v0h-1.8v0.6V111.7z M82.1,110.1
	v-2.1h-4.5v2.1v0L82.1,110.1L82.1,110.1z M82.1,103.1h-4.5v2.1h4.5V103.1z M77.7,88.4v0.3v1.8v0h4.5v0v-1.8v-0.3H77.7z M70.5,85.3
	l0.1-0.4V80v0c0,0,0.1-0.3-0.4-0.3c-0.1,0-0.5,0-1,0v1.3c0,0.4-0.3,0.8-0.7,0.8l0,0h0l0,0h0l0,0c-0.3,0-0.6-0.4-0.6-0.8v-1.3h-1.3
	l-1.1,0v1.3c0,0.4-0.3,0.8-0.7,0.8l0,0h0l0,0h0l0,0c-0.3,0-0.6-0.4-0.6-0.8v-1.3l-1,0c0,0-0.5-0.1-0.6,0.6c0,0.7,0,4.1,0,4.4
	c0,0.3,0.1,0.6,0.4,0.6h0h0h0h0h0.1h0.1h0.1h0.1h0.1h0.1h0.1h0.1h0.1h0.1H64h0.1h0.1h0.1h0.1h0.2h0.2h0.2h0.2h0.2h0.2h0.2h0.2h0.2
	h0.2h0.2h0.2h0.2h0.2h0.2h0.2h0.2h0.2h0.2H68h0.2h0.2h0.2h0.2h0.1h0.1H69h0.1h0.1h0.1h0.1h0.1h0.1h0.1H70h0.1h0.1h0.1h0.1h0.1H70.5
	L70.5,85.3z M75.5,110.1h1.9v-1.8h-1.9V110.1z M77.3,108c0-0.2,0.2-0.3,0.3-0.3h2v-2.1h-4.1v2.5H77.3z M80,107.7h2.2
	c0.2,0,0.3,0.1,0.3,0.3h1.8v-2.5H80L80,107.7z M82.5,110.1h1.8v-1.8h-1.8V110.1z M75.5,105.3h1.9v-1.8h-1.9V105.3z M77.3,103.1
	c0-0.2,0.2-0.3,0.3-0.3h1.9v-2.2h-4.1v2.5H77.3z M80,102.8h2.2c0.2,0,0.3,0.1,0.3,0.3h1.8v-2.5H80L80,102.8z M82.5,105.3h1.8v-1.8
	h-1.8V105.3z M75.5,100.3h1.9v-1.8h-1.9V100.3z M77.7,98.6v1.8h4.5v-1.8H81c-0.2,0-0.3-0.1-0.3-0.3H79c0,0.2-0.2,0.3-0.3,0.3h0h-0.8
	v0H77.7z M76.2,98.2L76.2,98.2v-2.5h-0.7v2.5H76.2z M79,97.9h0.6v-2.2H79V97.9z M80.7,97.9v-2.2H80l0,2.2H80.7z M83.5,98.2h0.8v-2.5
	h-0.8V98.2z M83.2,98.5L83.2,98.5L83.2,98.5h-0.7v1.8h1.8v-1.8H83.2z M75.5,95.4h0.7v-1.6v0h0c0-0.1,0-0.2,0-0.2h-0.7V95.4z
	 M76.3,93.3c0.1-0.3,0.2-0.5,0.3-0.8c0.3-0.4,0.6-0.6,1-0.6h0h0c0.4,0,0.8,0.2,1,0.6c0.1,0.1,0.2,0.3,0.2,0.5h0.8v-2.1h-4.1v2.4
	H76.3z M79,93.3c0,0.2,0.1,0.3,0.1,0.5h0v0v1.6h1.7v-1.6v0h0c0-0.2,0-0.4,0-0.5H79z M80.8,93c0.1-0.2,0.1-0.3,0.2-0.5
	c0.3-0.4,0.6-0.6,1-0.6h0h0c0.4,0,0.8,0.2,1,0.6c0.1,0.2,0.2,0.5,0.3,0.8h0.9v-2.4H80l0,2.1H80.8z M83.5,93.6c0,0.1,0,0.2,0,0.2h0v0
	v1.6h0.8v-1.8H83.5z M75.5,90.5h1.9v-1.8h-1.9V90.5z M82.5,90.5h1.8v-1.8h-1.8V90.5z M75.5,88.4h1.9c0-0.2,0.2-0.3,0.3-0.3h2.3v-2.1
	h-4.4c0,0-0.1,0-0.1,0.1V88.4z M75.7,85.6h8.7c0,0,0-0.1,0-0.1c0,0,0,0,0-0.1l1.1-1.8H74l1.6,1.8C75.6,85.5,75.6,85.5,75.7,85.6
	L75.7,85.6z M84.3,85.9h-4v2.1h1.9c0.2,0,0.3,0.1,0.3,0.3h1.8V85.9z M65.9,109.8h2.5v-2.4h-2.5V109.8z M69.1,109.8h0.3
	c0-0.1,0-0.1,0-0.2c0.1-0.1,0.2-0.2,0.3-0.2l0-2h-0.7V109.8z M90.1,109.5c0.1,0,0.2,0.1,0.2,0.2c0,0.1,0,0.1,0,0.2h0.4v-2.4h-0.7
	l0,0L90.1,109.5z M91.5,109.8h2.5v-2.4h-2.5V109.8z M90.1,106.8L90.1,106.8h3.8v-1.6h-2.8l0,0l0,0h-1l0,0V106.8z M90.1,104.5
	L90.1,104.5h0.7v-1.4h-0.7l0,0V104.5z M90.1,102.4L90.1,102.4l1,0c0,0,0,0,0,0c0,0,0,0,0,0h2.8v-1.6h-2.8c0,0,0,0,0,0c0,0,0,0,0,0
	h-1l0,0L90.1,102.4z M90.1,100.1L90.1,100.1l0.7,0v-1.6h-0.7l0,0V100.1z M90.1,97.9L90.1,97.9l1,0c0,0,0.1,0,0.1,0c0,0,0.1,0,0.1,0
	h2.7v-1.4h-2.8c0,0,0,0,0,0c0,0,0,0,0,0h-1l0,0V97.9z M90.1,95.8L90.1,95.8l0.7,0v-1.5h-0.7l0,0L90.1,95.8z M90.1,93.6L90.1,93.6
	l1,0c0,0,0,0,0,0c0,0,0,0,0,0h2.8V92h-2.6h0h0h-1.2l0,0V93.6z M90.1,91.3L90.1,91.3l0.9,0v-1.4h-0.9l0,0V91.3z M90.1,89.3L90.1,89.3
	l1.2,0l0,0l0,0h2.6v-2.1h-3.8l0,0.1c0,0.1,0,0.1,0,0.2L90.1,89.3z M93.9,89.9h-2.3v1.4h2.3V89.9z M93.9,94.3h-2.5v1.5h2.5V94.3z
	 M93.9,98.5h-2.5v1.6h2.5V98.5z M93.9,103.1h-2.5v1.4h2.5V103.1z M65.9,106.8h3.8v-1.6h-1l0,0l0,0h-2.8V106.8z M65.9,104.5h2.5v-1.4
	h-2.5V104.5z M65.9,102.4h2.8l0,0l0,0h1l0-1.6h-1c0,0,0,0,0,0c0,0,0,0,0,0h-2.8V102.4z M69.7,103.1h-0.7v1.4h0.7V103.1z M65.9,100.1
	h2.5v-1.6h-2.5V100.1z M65.9,97.9h2.7c0,0,0.1,0,0.1,0c0,0,0.1,0,0.1,0h0.9l0-1.4h-1c0,0,0,0,0,0c0,0,0,0,0,0h-2.8V97.9z M69.7,98.5
	h-0.7v1.6h0.7V98.5z M65.9,95.8h2.5v-1.5h-2.5V95.8z M65.9,93.6h2.8c0,0,0,0,0,0c0,0,0,0,0,0h1V92h-1.2h0h0h-2.6V93.6z M69.7,94.3
	h-0.7v1.5h0.7V94.3z M68.2,89.9h-2.3v1.4h2.3V89.9z M68.9,89.9v1.4h0.9l0-1.4H68.9z M65.9,89.3h2.6l0,0l0,0h1.2v-1.4
	c0-0.1,0-0.1,0-0.2l0.1-0.5h-3.9V89.3z M63.9,79.3l0.1,0l0,0c0.2,0,0.3,0.1,0.3,0.3v1.3v0h0c0,0.1,0,0.3,0.1,0.3l0,0
	c0.1,0.1,0.1,0.1,0.2,0.1v0h0h0v0c0.1,0,0.2,0,0.2-0.1c0.1-0.1,0.1-0.2,0.1-0.4h0v0v-1.3h0c0-0.2,0.1-0.3,0.3-0.3l1.1,0v0h1.3
	c0.2,0,0.3,0.1,0.3,0.3v1.3v0h0c0,0.1,0,0.3,0.1,0.3l0,0c0.1,0.1,0.1,0.1,0.2,0.1v0h0h0v0c0.1,0,0.2,0,0.2-0.1
	c0.1-0.1,0.1-0.2,0.1-0.4h0v0v-1.3h0v0c0-0.1,0.1-0.2,0.2-0.3v-0.7v-3.2h-5.1v3.2V79.3z M76.5,80.2h2.2v-2h-2.2V80.2z M80.9,80.2
	h2.2v-2h-2.2V80.2z M71,85.4l-0.5,1.8l4.2-1.7l-1.3-1.5L71,85.4z M89.3,86.9l-0.2-1.5l-3-1.4l-0.8,1.4L89.3,86.9z M83.4,77.9
	L83.4,77.9l0-1.8h-1.5v0h-2.2v1.3v0.6v0.3h0.8c0-0.2,0.1-0.3,0.3-0.3h2.2c0.2,0,0.3,0.2,0.3,0.3h0V77.9z M79.4,77.9v-0.6v-1.3h-1.9
	v0H76v1.3v0.6v0.3h0.1c0-0.2,0.2-0.3,0.3-0.3h2.2c0.2,0,0.3,0.2,0.3,0.3h0.5V77.9z M81,73.8V74c0,0.1-0.1,0.2-0.2,0.2h-2.1
	c-0.1,0-0.2-0.1-0.2-0.2v-0.2v-0.2h-0.6v0.3v0.6v1.2h1.6h0.3h1.8v-1.8h0v-0.3H81V73.8z M77.1,58.9C77.1,58.9,77.1,59,77.1,58.9
	C77.1,59,77.1,58.9,77.1,58.9 M73.4,63.1v-4c0-0.3,0.4-0.9,0.8-1.4c0.4-0.5,1.2-0.8,1.2-0.1c0,0.7,0.2,1.4,0.7,1.4h1
	c0.3-0.1,0.5-0.3,0.5-0.7c0-1,0-1.4,0.7-1.5c0.8,0,2.6,0.1,2.6,0.1s0.6,0.1,0.6,0.6c-0.1,0.5,0,1,0,1s-0.1,0.6,0.9,0.6
	c0.9,0,1.3-0.3,1.3-0.9c0.1-0.6,0-1.5,0.6-1.1c0.6,0.4,1.2,0.9,1.3,1.1c0.1,0.3,0.2,0.5,0.2,0.8v4.2H73.4z M73.8,64.3
	c-0.2-0.2-0.3-0.4-0.4-0.8h12.5c0,0-0.1,0.5-0.2,0.7c0,0,0,0.1-0.1,0.1c0,0,0,0,0,0H73.8z M62.4,73.6h8.1c0.1-0.1,0.2-0.2,0.2-0.4
	v-3.1c0-0.7-0.4-1.3-1.1-1.3c-0.8,0-0.6,1.2-0.6,1.9c0,0.4-0.4,0.8-0.8,0.8c-0.4,0-0.8-0.4-0.8-0.8v-1.9h-1.8v1.9
	c0,0.4-0.4,0.8-0.8,0.8c-0.4,0-0.8-0.4-0.8-0.8v-1.3c0-0.6-0.4-0.6-0.6-0.6c-0.6,0-1.1,0.5-1.1,1.1v3.2
	C62.2,73.4,62.3,73.5,62.4,73.6 M63.8,75.1c0,0,0.1,0,0.1,0H69c0.1,0,0.2,0.1,0.3,0.2v0l0.9-1.3l-7.4,0L63.8,75.1z M73.4,79.1
	L71,80.4v4.2l2.4-1.3v0l0,0V79.1z M86.1,83.3L86.1,83.3L86.1,83.3l3,1.3l0-4.1l-3-1.7V83.3z M90.1,68.9c-0.6,0-1.1,0.5-1.1,1.1v3.2
	c0,0.3,0.2,0.5,0.5,0.5h7.4c0.3,0,0.5-0.2,0.5-0.5v-3.1c0-0.7-0.4-1.3-1.1-1.3c-0.8,0-0.6,1.2-0.6,1.9c0,0.4-0.4,0.8-0.8,0.8
	c-0.4,0-0.8-0.4-0.8-0.8v-1.9h-1.8v1.9c0,0.4-0.4,0.8-0.8,0.8c-0.4,0-0.8-0.4-0.8-0.8v-1.3C90.7,68.9,90.3,68.9,90.1,68.9
	 M90.6,75.2c0.1-0.1,0.1-0.1,0.2-0.1h5.1c0.1,0,0.1,0,0.2,0.1l0.7-1.1h-7.2L90.6,75.2z M90.8,79.3v-0.6v-3.2h5.1v3.2v0.6
	c-0.2,0-0.3,0.1-0.3,0.3v0h0v1.3v0h0c0,0.1,0,0.3-0.1,0.4c-0.1,0.1-0.1,0.1-0.2,0.1v0h0h0v0c-0.1,0-0.2,0-0.2-0.1l0,0
	c-0.1-0.1-0.1-0.2-0.1-0.3h0v0v-1.3c0-0.2-0.1-0.3-0.3-0.3h-1.3v0l-1.1,0c-0.2,0-0.3,0.1-0.3,0.3h0v1.3v0h0c0,0.1,0,0.3-0.1,0.4
	c-0.1,0.1-0.1,0.1-0.2,0.1v0h0h0v0c-0.1,0-0.2,0-0.2-0.1l0,0c-0.1-0.1-0.1-0.2-0.1-0.3h0v0v-1.3C91.2,79.4,91,79.3,90.8,79.3
	 M76,66.3v2.3h1.5v0c0,0,0,0,0,0l0,0c0,0,0,0,0,0c0,0,0,0,0.1-0.1v0l0,0l0,0l0,0l0,0l0,0l0,0l0,0l0,0l0,0l0,0l0,0h0l0,0l0,0l0,0l0,0
	l0,0l0,0h0l0,0h0l0,0h0l0,0h0v0h0l0,0l0,0h0l0,0h0l0,0l0,0h0l0,0h0h0l0,0h0l0,0h0h0h0h0l0,0h1.5v-2.1H76z M79.8,66.3v2.1h1.8
	c0.1,0,0.3,0.1,0.3,0.2h1.5v-2.3H79.8z M77.9,68.7v2.1h0.6v-0.4c0-0.8,0.6-1.4,1.3-1.4c0.7,0,1.3,0.6,1.3,1.4v0.4h0.1h0.4h0v-2.1
	H77.9z M81,73.3h0.5c0.2,0,0.4,0.1,0.4,0.3h0.3h1.2v-1.4v-0.9h-1.9H81V73.3z M81.9,73.9v1.8h1.5v-1.8h-1.2H81.9z M77.5,75.7v-1.8
	h-0.3H76v1.8H77.5z M76.1,71.2L76.1,71.2L76.1,71.2L76,73.6h1.2h0.3c0-0.2,0.2-0.3,0.4-0.3h0.5v-1.8v-0.3v0H76.1z M81.9,68.9v0.2
	v1.1v0.7h1.5v-0.7V69v-0.2H81.9z M76,68.9v0.2v1.8h1.5v-0.7v-1.2H76z M60.3,47.7h38.9v95.1c-22.4-0.6-40.3-16-40.3-34.9v-0.1v-59
	C58.9,48.2,59.5,47.7,60.3,47.7 M100.6,32.9c13.6,0,24.7,1.7,24.7,3.8c0,2.1-11.1,3.8-24.7,3.8c-13.6,0-24.7-1.7-24.7-3.8
	C75.9,34.6,86.9,32.9,100.6,32.9 M71,29.6c-0.1,0-0.3,0-0.3-0.2c0-0.1,0-0.3,0.2-0.3c0,0,13.2-4.3,21.8-4.9
	c4.3-0.3,7.4-0.4,10.1-0.3c2.7,0.1,5,0.3,7.7,0.5l0,0h0v0c0.8,0.1,1.6,0.2,2.6,0.3c0.9,0.2,2,0.4,3,0.6c5.3,1.1,11.4,2.8,12.5,3.1
	c0.1,0,0.2,0.2,0.2,0.3c0,0.1-0.2,0.2-0.3,0.2c-1.1-0.3-7.1-2-12.4-3.1c-1-0.2-2-0.4-3-0.6c-0.9-0.2-1.8-0.3-2.6-0.3v0l0,0
	c-2.7-0.2-5-0.4-7.7-0.5c-2.7-0.1-5.8,0-10.1,0.3C84.1,25.3,71.1,29.6,71,29.6 M76.8,29.9c0.5,0,0.9,0.4,0.9,0.9
	c0,0.5-0.4,0.9-0.9,0.9c-0.5,0-0.9-0.4-0.9-0.9C76,30.2,76.3,29.9,76.8,29.9 M79.8,30.3l2.3-2.3l3.8,0.8l-2.8,2.3L79.8,30.3z
	 M90.5,27.1c0.8,0,1.4,0.6,1.4,1.4c0,0.8-0.6,1.4-1.4,1.4c-0.8,0-1.4-0.6-1.4-1.4C89.1,27.7,89.7,27.1,90.5,27.1 M123.8,29.9
	c0.5,0,0.9,0.4,0.9,0.9c0,0.5-0.4,0.9-0.9,0.9c-0.5,0-0.9-0.4-0.9-0.9C122.9,30.2,123.3,29.9,123.8,29.9 M121,30.3l-3.3,0.8
	l-2.8-2.3l3.8-0.8L121,30.3z M110.2,27.1c0.8,0,1.4,0.6,1.4,1.4c0,0.8-0.6,1.4-1.4,1.4c-0.8,0-1.4-0.6-1.4-1.4
	C108.8,27.7,109.4,27.1,110.2,27.1 M95.8,26.7h9.1c0.1,0,0.2,0.1,0.2,0.2v2c0,0.1-0.1,0.2-0.2,0.2h-9.1c-0.1,0-0.2-0.1-0.2-0.2v-2
	C95.6,26.8,95.7,26.7,95.8,26.7 M58,45.3h83.5h0v0c0.5,0,0.9,0.2,1.2,0.4c0.3,0.3,0.5,0.6,0.5,1h0v0v61.4l0,0v0v0h0v0h0
	c0,10.1-4.9,19.3-12.8,25.9c-7.9,6.6-18.7,10.7-30.8,10.7h0h0c-12,0-22.9-4.1-30.8-10.7c-7.9-6.6-12.8-15.8-12.8-25.9h0v0l0,0v0l0,0
	V46.8v0h0c0-0.4,0.2-0.8,0.5-1C57.1,45.5,57.5,45.3,58,45.3L58,45.3L58,45.3z M141.5,45.8H58h0v0c-0.4,0-0.7,0.1-0.9,0.3
	c-0.2,0.2-0.3,0.4-0.3,0.6h0v0v61.5v0l0,0l0,0v0h0c0,10,4.8,19,12.6,25.5c7.8,6.5,18.6,10.6,30.4,10.6v0h0h0v0
	c11.9,0,22.7-4,30.4-10.6c7.8-6.5,12.6-15.5,12.6-25.5h0v0h0v0l0,0v0V46.8v0h0c0-0.3-0.1-0.5-0.4-0.7
	C142.2,45.9,141.9,45.8,141.5,45.8L141.5,45.8L141.5,45.8z M112.3,92.4L112.3,92.4c0.1-0.2,0.2-0.3,0.4-0.2c0.4,0.1,0.6,0.1,0.8,0.1
	c0.4-0.3,2.1-1.9,2-3.3c0-0.2,0-0.4,0-0.5l0,0c0-0.1,0-0.2,0.1-0.2c0-0.1,0.1-0.1,0.2-0.1l0,0h0h0c0.3,0,0.3,0.2,0.4,0.5
	c0.2,0.6,0.7,1.9,1.6,2.3h0l0,0l0,0l0,0c0.1,0,0.1,0.1,0.2,0.2c0,0.1-0.1,0.2-0.1,0.2l0,0c0,0,0,0,0.1-0.1c0.1-0.1,0.2-0.2,0.4-0.2
	c0,0,0,0,0.1,0l0,0v0c0,0,0.1,0,0.1,0c0.1,0,0.2,0.1,0.2,0.3c2-0.4,4.8-2.7,5.5-2.4c0.8,0.5,0.3,1.6,1.1,1.4c0.8-0.2,0.6-2,1.3-0.9
	c0.7,1,1.4,2,1.8,2.1c0.3,0.1,1.6,1.2,2.5,0c0.9-1.2,0.3-1.1-0.3-2c-0.6-0.9-1-1.2,0.1-1.7c1.2-0.5,1.8-2.1,1.3-2.3
	c-0.5-0.2-0.4,0.9-0.9,0.9c-0.5,0-2-1-1.7-1.7c0.2-0.8-0.9-1.4-0.9-1.4s1.4,0.3,1.7-1.2c0.3-1.5-0.9-3-1.2-3.2
	c-0.3-0.2,0.2-1.8,0-2.5c-0.2-0.7-0.8-0.7-1.2-1.8c-0.3-1.1,1.6-1.1,0.5-2.7c-1.1-1.6-1.8-3.1-1.8-3.1h0l0,0h0c0,0-0.1,0-0.2-0.1
	l0,0c-0.5-0.2-1.8-0.5-2,1.8c-0.2,2.8-4,3-4.1,3h0h0l0,0v0l0,0l0,0v0l0,0l0,0l0,0l0,0l0,0l0,0l0,0l0,0l0,0l0,0l0,0l0,0
	c0,0-0.1,0-0.1,0l0,0l-0.1,0l0,0l0,0h0c-0.1,0-0.3-0.1-0.6-0.1l0,0c0,0-0.1,0-0.1,0h0h0l0,0l0,0c-0.1,0-0.1,0-0.2,0l0,0l0,0
	c0,0-0.1,0-0.1,0h0c0,0-0.1,0-0.1,0l0,0l0,0c-0.4,0.2-0.8,0.6-1,1.5c-0.5,2.4-0.5,4.4-1.5,4.7c-1,0.3-1.8-0.9-2,0
	c-0.2,0.9,0.9,1.5,0.6,2.5c-0.3,1-0.2,0.6-1.2,0.6c-1,0.1-1,1.1-0.9,2.3c0.1,1.1-1.4,2.2-1.6,2.9c-0.2,0.7-1.9,2-0.3,3.5
	C111.5,92,111.9,92.2,112.3,92.4 M118.9,91.6c1-0.2,2.3-0.9,3.4-1.5c1-0.6,1.8-1,2-0.9l0,0c0.3,0.2,0.3,0.5,0.4,0.7
	c0,0.1,0,0.1,0.1,0.2c0.1,0.4,0.3,0.7,0.9,0.5c0.5-0.1,0.7-0.6,0.8-1l0,0c0.1-0.1,0.1-0.3,0.1-0.3c0.1,0-0.1,0.1,0,0.2l0,0
	c0.1,0.2,0.2,0.3,0.3,0.4c0.1,0.1,0.2,0.3,0.3,0.4c0.3,0.4,0.6,0.8,0.9,1.1c0.5,1.6,0.9,3.7,1.8,4.8c0.6,0.8,2,1.8,3.1,4
	c0,0-0.1,0-0.1,0.1v0v0c-0.1,0.1-0.1,0.1-0.1,0.2v0c0,0.1,0,0.1,0,0.2c0.1,0.3,0.3,0.6,0.4,1c0.1,0.4,0.3,0.8,0.4,1.2
	c0,0.2,0.2,0.3,0.4,0.2c0,0.2,0.1,0.4,0.1,0.5c0.6,2.7,0.5,4.6,0.3,5.9l0,0c0.2,1.1,1,1.6,1.7,1.2c0.8-0.4,0.8,0.4-0.3,1.5
	c-1,1.1-1.9,0.5-2.6,0.2c-0.6-0.3-0.4,0.5,0.3,1c0.7,0.5,2,2.8,2.2,3.7c0.2,0.9-0.8,0.2-1.1,0c-0.4-0.2-0.5,1-0.1,1.7
	c0.4,0.7,0.6,2.6,0.3,3.1c-0.4,0.5-0.7-0.2-1.4-0.3c-0.7-0.1-2.2,1.4-2.2,2.2c0,0.8-0.5,1-1,1.2c-0.5,0.2-0.6-1.4-0.9-0.8
	c-0.3,0.6-0.6,0.5-1.2,0.3c-0.6-0.2-0.1-1-0.6-0.6c-0.5,0.4-1.3,0-0.8-0.8c0.5-0.9,2.2-1.6,3.6-1.5c0.7,0,0.9-0.5,0.9-1.1
	c-0.2-0.2-0.4-0.4-0.5-0.6c-0.4-0.6-0.6-1.9-0.1-2.8c0.5-0.9-0.3-1.5-1.4-2c-1.1-0.5-1.4,1.5-2.9,1.7c-1.5,0.2-3.3-1.1-3.4-3.4
	c0-0.5,0-1,0.1-1.6c0.1,0,0.2-0.1,0.2-0.1c0,0,0.1,0,0.1-0.1v0v0c0.1-0.1,0.1-0.1,0.1-0.2c0-0.2,0.1-0.5,0.2-0.7
	c0.1-0.2,0.1-0.5,0.2-0.8c0.4-1.3,1.2-2.6,2.2-3.8l0,0c0.2-0.2,0.4-0.5,0.5-0.7c0.1-0.3,0.2-0.5,0.2-0.8c0.2-1.3-0.6-2.4-1.3-3.1
	c0,0-0.1-0.1-0.1-0.1v0l-0.1,0l0,0h0c-0.1,0-0.3-0.1-0.5-0.2c-0.1-0.1-0.2-0.2-0.2-0.2s-3.1-0.2-5.4-2.6c-0.5-0.5-0.7-1.2-0.8-2.1
	c0,0,0.1,0,0.1-0.1c0.1-0.1,0.2-0.2,0.2-0.3h0c0-0.7,0-1.5,0.1-2.2C118.6,93,118.7,92.3,118.9,91.6 M115.8,88.8
	C115.8,88.8,115.8,88.8,115.8,88.8c0-1.4,0.3,1.7,2,2.4c0.3,0.7,0.5,0.1,0.8,0.1l0,0c-0.4,1.5-0.7,3.2-0.6,4.6
	c-0.3,0.1-0.5,0.4-0.7,0.9c-0.4,1.2-0.6,1.1-1.3,0.9c-0.6-0.1-1.7,0.8-2.8,1.7c-1.1,0.9-1.1,1.5-1.3,2.3c-0.2,0.8-1-0.4-1.4-0.7
	c-0.4-0.3-1.2,0-1.4,0.4c-0.2,0.4-0.4,0.7-1,1c-0.6,0.2-0.8-0.6-1.1-0.4c-0.3,0.1-0.7,1.2-1.7,1c-1-0.1-0.1-1.4,0-1.8
	c0-0.4-0.6-0.9-1-1.6c-0.4-0.7,1.9-0.8,2.9-0.6c1,0.1,1.2-0.8,1.8-1.8c0.6-1,1.4-1,1.5-0.5c0.1,0.6,0.6,0,0.6,0s1.1-3.1,1.3-3.7
	c0-0.1,0.1-0.2,0.1-0.4c0.6,0.2,1,0.1,1,0.1s2.3-1.9,2.2-3.6L115.8,88.8L115.8,88.8z M119.4,80.4c-0.1-0.2-0.1-0.4,0.1-0.5
	c0.2-0.1,0.4-0.1,0.5,0.1c0,0,1.9,2.7,0.4,3.7h0v0c-0.1,0.1-0.3,0.2-0.4,0.3c-0.7,0.5-1,0.6-0.6,2.1c0.1,0.6,0.3,1,0.3,1.3
	c0.2,0.6,0.2,0.7-0.1,1.4c-0.1,0.2-0.3,0.2-0.5,0.1c-0.2-0.1-0.2-0.3-0.1-0.4c0.2-0.5,0.2-0.5,0.1-0.9c-0.1-0.3-0.2-0.7-0.4-1.4
	c-0.4-1.9-0.1-2.1,0.9-2.8c0.1-0.1,0.3-0.2,0.4-0.3v0C120.9,82.5,119.4,80.4,119.4,80.4 M124.7,74.4c0.1-0.1,0.3-0.1,0.5,0
	c0.1,0.1,0.1,0.3,0,0.5c0,0-1,1-0.6,1.6l0,0c0.1,0.2,0.3,0.4,0.5,0.6c0.5,0.6,1,1.1,0.5,2.2c-0.3,0.6-0.5,1.2-0.6,1.7
	c-0.1,0.5-0.1,0.9,0.1,1.3l0,0c0.1,0.1,0.1,0.3,0.2,0.4c0.4,0.8,0.8,1.5,0.1,2.4c-0.1,0.1-0.3,0.2-0.5,0.1c-0.1-0.1-0.2-0.3-0.1-0.5
	c0.5-0.6,0.2-1.1-0.1-1.7c-0.1-0.1-0.1-0.3-0.2-0.4l0,0c-0.3-0.5-0.3-1.1-0.2-1.7c0.1-0.6,0.4-1.2,0.7-1.8c0.3-0.7,0-1-0.4-1.4
	c-0.2-0.2-0.4-0.4-0.6-0.7l0,0C123.4,75.8,124.7,74.4,124.7,74.4 M120.5,73.2L120.5,73.2L120.5,73.2L120.5,73.2L120.5,73.2
	L120.5,73.2L120.5,73.2L120.5,73.2l-0.1,0l0,0l-0.1,0l0,0h0v0c-0.1,0-0.2-0.1-0.3-0.1h0l0,0l0,0c-0.1,0-0.2,0-0.3,0h0h0l-0.1,0l0,0
	v0l0,0h0h0l0,0v0l0,0h0l0,0h0h0l0,0l0,0l0,0h0c0,0-0.1,0-0.1,0c0,0-0.1,0-0.1,0h0l0,0h0l0,0l0,0h0l0,0l0,0l0,0l0,0l0,0v0l0,0l0,0
	l0,0l0,0l0,0l0,0l0,0l0,0c-0.1,0-0.2,0.1-0.2,0.1c-0.2-0.3-0.4-0.8-1.2-0.6c-1.1,0.3-2.1-0.3-2.4-0.8c-0.3-0.5,0.8-1.6,1.3-1.3
	c0.5,0.3,0.7,0.5,1.1,0.6c0.4,0.1,1,0.6,1.6,0.5c0.6-0.1,0.9-1.8,0.3-2.4c-0.6-0.5,0-1.5-0.9-1.9c-0.9-0.5,0.2,1.7-1.5,0.6
	c-1.3-0.9-0.5-1.2-0.3-1.6c0.2,0.2,0.7,0.4,1.4,0.5c0.2,0,0.4-0.1,0.4-0.3c0-0.2-0.1-0.4-0.3-0.4c-1.3-0.2-1.2-0.4-1.2-0.4
	c0-0.1,0-0.3-0.1-0.4c0.2-0.2,0.6-0.2,0.6-0.2s3.1-0.2,4.5-0.2c1.4,0.1,3.1,1,3.1,1s1.2-0.3,1.7-0.1c0.5,0.3,0.9,1.5,0.3,2.4
	c0,0-0.1,0.1-0.1,0.1c0,0-0.1-0.1-0.1-0.1l0,0l0,0l0,0l0,0l0,0l0,0l0,0l0,0l-0.1-0.1l0,0c0,0,0,0,0,0h0l0,0c-0.3-0.1-0.8-0.3-1.4,0
	c-0.5,0.2-1,0.8-1.1,2.1c0,0.1,0,0.2,0,0.3C123.8,72.8,121,73.1,120.5,73.2L120.5,73.2z M110.6,88.5c-0.6-0.2-1.2-0.5-1.9-0.8
	c-1.6-0.7-1.9-3.5-2.4-4.8c-0.4-1.3-0.3-1.6-1.2-1.6c-0.9,0-0.8-1.1-0.5-2.1c0.3-1,0.3-2,0-2.5c-0.3-0.5-0.5-0.9-0.5-1.4
	c0-0.5-0.1-0.8-0.3-1.6c-0.2-0.8,0.7-1.1,1.3-1.1c0.6-0.1,0.2,1.3,0.3,1.3c0.1,0,0.1-1.1,0.6-1.2c0.5-0.2,0.5,1.2,0.6,0.8
	c0.1-0.4,0.3-0.6,0.7-0.7c0.3,0,0.9,1,1.2,1.9c0.3,0.9-0.2,2.7-0.7,4.2c-0.5,1.5,0.3,2.4,0.7,3.1c0.4,0.7,1.5,1.3,2.2,1.3
	c0.7,0,1.2,0.8,1.2,1.4c0,0.2,0.3,0.3,0.8,0.4l0,0.1v0l0,0v0c0,0.6-0.5,1.2-0.9,1.7l0,0c-0.3,0.4-0.6,0.7-0.7,1v0l0,0l0,0l0,0
	c0,0.1-0.2,0.3-0.3,0.5L110.6,88.5L110.6,88.5z M118.8,71.4c-0.4-0.5-1.2-1.3-1.9-1.5c-0.9-0.4-2.2,0.1-3,0.2
	c-0.8,0.2-2.2,0.5-3,0.2c-0.8-0.3-1.1-1.1-1.1-1.7c0-0.6,1-0.3,1.2,0.3c0.2,0.6,1.8,0.5,2.7,0.3c0.9-0.2,2.6-0.4,3.8-0.1
	c0.8,0.2,1.5,1,1.9,1.4c0,0.1,0,0.3-0.1,0.4c0,0.2-0.1,0.3-0.2,0.4c0,0,0,0-0.1,0C119,71.4,118.9,71.4,118.8,71.4 M125.1,101.7
	c0.9,0.9,2,2.6,0.6,4.2c-1.6,1.7-2.4,3.7-2.7,5.5c0,0-1.5,0.6-1.7,1.1c-0.2,0.5,1.1,2.3,1.1,3.7c0,1.4-1.8,2.5-2.2,2.6
	c-0.5,0.1-0.3-1.4-0.5-0.5c-0.2,0.9-1,0.6-1.1,0.2c-0.1-0.3-0.5-1.6-0.7-0.5c-0.2,1.2-1.6,2.2-2.2,2.9c-0.6,0.7-0.9,0-1-0.4
	c0-0.4-1.1-0.2-1.7,0.1c-0.6,0.2-0.5,0.9-0.9,1.2c-0.4,0.3-0.3-0.7-0.5-0.3c-0.2,0.3-0.3,0.4-1,0.4c-0.7,0-0.2-1.1-0.4-1.2
	c-0.3,0-0.1,0.6-0.7,0.6c-0.6,0-0.2-0.8-0.4-0.7c-0.2,0.1-0.3,0.2-0.9-0.3c-0.6-0.5,0.7-1.1,1.3-1.3c0.7-0.2,1.1-0.1,1.5-0.5
	c0.4-0.4,0.7-0.1,1,0c0.3,0.1-0.1,1.3,2.2,0.3c2.3-0.9,2-3.2,2.2-3.6c0.2-0.4-0.1-0.7-0.5-1c-0.4-0.3-0.3-0.8,0-1.4
	c0.2-0.6-0.8-1-1.7-2.6c-0.9-1.6,0.5-4.4,0.8-4.7c0.3-0.4,0.1-1-0.4-1.4c-0.4-0.4,0.2-1.1,0.6-0.4c0.4,0.6,1.2,0,1.2,0
	s-0.2-0.3,1-1.1C121.1,100.3,125.1,101.7,125.1,101.7 M127.6,58.5c-0.5,0.3-2.5-1.1-1.6-1.5c0.9-0.5,2.1,0.6,2.1,0.6
	s-0.5-1.2-0.2-1.9c0.2-0.7,0.9-0.2,1.5,0.7c0.5,0.9,0.9,0.9,2.9,2.2c1.9,1.2,4.5,4.9,4.5,7c0,2.1-0.9,8.4-1,9.5
	c-0.1,1.1,0.4,3,1.4,3.3c1,0.2-0.5,4.3-0.8,6.2c-0.2,1.9,1.1,3.8,2.3,6.5c1.2,2.8,0.5,7-0.5,9c-0.7,1.4-3,2.5-4.2,2.9
	c-0.2-0.9-0.5-1.6-0.8-2.3v0c0,0,3.1-0.6,3.8-1.7c0.7-1.1,0.9-5-0.2-7.5c-1.2-2.5-2.3-7-2.1-8.3c0.2-1.3,1.3-2.9,1-3.4
	c-0.4-0.5-0.8-2.8-0.9-3.8c-0.1-1,0.9-5.5-0.1-10c-0.9-4.6-2.3-4.9-4.1-5.7c-1.8-0.9-2.3-0.4-3.3,0.2c-0.9,0.6-1.2,1.2-1.4,0.2
	C125.6,59.4,127.6,58.5,127.6,58.5"/>
</svg>
